<svg xmlns="http://www.w3.org/2000/svg" xmlns:xlink="http://www.w3.org/1999/xlink" width="243.833" height="48.067" viewBox="0 0 243.833 48.067">
  <defs>
    <linearGradient id="linear-gradient" x1="0.105" y1="-0.035" x2="0.407" y2="1.253" gradientUnits="objectBoundingBox">
      <stop offset="0" stop-color="#f48302"/>
      <stop offset="1" stop-color="#e75627"/>
    </linearGradient>
    <linearGradient id="linear-gradient-2" x1="-0.262" y1="0.144" x2="0.817" y2="0.144" gradientUnits="objectBoundingBox">
      <stop offset="0" stop-color="#18194c"/>
      <stop offset="1" stop-color="#00538c"/>
    </linearGradient>
    <linearGradient id="linear-gradient-3" x1="0.426" y1="-0.12" x2="0.4" y2="0.863" gradientUnits="objectBoundingBox">
      <stop offset="0" stop-color="#3e0f51"/>
      <stop offset="1" stop-color="#703d85"/>
    </linearGradient>
    <linearGradient id="linear-gradient-4" x1="-0.327" y1="0.782" x2="0.549" y2="0.782" gradientUnits="objectBoundingBox">
      <stop offset="0" stop-color="#5ba921"/>
      <stop offset="1" stop-color="#147f00"/>
    </linearGradient>
    <linearGradient id="linear-gradient-5" x1="-0.191" y1="-1.271" x2="-0.264" y2="0.339" gradientUnits="objectBoundingBox">
      <stop offset="0" stop-color="#e7401d"/>
      <stop offset="1" stop-color="#aa0021"/>
    </linearGradient>
    <linearGradient id="linear-gradient-6" x1="0" y1="0.5" x2="1" y2="0.5" xlink:href="#linear-gradient-2"/>
  </defs>
  <g id="Group_1589" data-name="Group 1589" transform="translate(-321 -16.741)">
    <g id="Group_1" data-name="Group 1" transform="translate(321 16.741)">
      <path id="Path_1" data-name="Path 1" d="M773.21,378.138a.041.041,0,0,0,.008.03l-.828.265a.04.04,0,0,1,0-.057A1.742,1.742,0,0,1,773.21,378.138Z" transform="translate(-715.956 -330.72)" fill="#baa3c2"/>
      <path id="Path_2" data-name="Path 2" d="M771.973,378.946c0,.008.006.017.01.025l-.191.061-.01-.026A.13.13,0,0,1,771.973,378.946Z" transform="translate(-715.55 -331.257)" fill="#d7c9dc"/>
      <path id="Path_3" data-name="Path 3" d="M695.07,312.436l-.191.06a9.186,9.186,0,0,1-6.5-.649,14.227,14.227,0,0,1-4.42-3.452,16.466,16.466,0,0,1-2.084-2.85,1.217,1.217,0,0,0-.073-.112c-.212-.29-.417-.283-.609.021a.524.524,0,0,1-.127.151,7.975,7.975,0,0,1-2.7,1.382,4.611,4.611,0,0,1-2.857-.036.954.954,0,0,0-1.235.458,3.32,3.32,0,0,1-1.069,1.064,9.712,9.712,0,0,1-2.908,1.4,11.435,11.435,0,0,1-2.871.4,9.283,9.283,0,0,1-4.223-.825,8.294,8.294,0,0,1-3.729-3.423,2.865,2.865,0,0,1-.281-.937,9.234,9.234,0,0,1-.112-3.054,7.226,7.226,0,0,1,3.1-5.007,10.681,10.681,0,0,1,2.72-1.328c1.326-.475,2.661-.934,3.959-1.477a12.065,12.065,0,0,0,5.49-4.206,7.863,7.863,0,0,0,1.475-4.686c0-.16-.033-.32-.048-.48a1.759,1.759,0,0,1,.614-1.487,4.562,4.562,0,0,1,1.364-.824,14.154,14.154,0,0,1,2.568-.893,8.985,8.985,0,0,1,6.224.695,11.578,11.578,0,0,1,4.6,4.3c.062.1.124.2.179.3a.85.85,0,0,1-.061.93,1.446,1.446,0,0,1-.441.427,4.118,4.118,0,0,0-1.653,2.159,6.036,6.036,0,0,0-.259,3.011,8.811,8.811,0,0,0,.679,2.369,1.324,1.324,0,0,0,1.622.744.548.548,0,0,0,.416-.544,1.562,1.562,0,0,0-.255-.951,4.319,4.319,0,0,1-.8-2.722,4.263,4.263,0,0,1,1.77-3.216,6.5,6.5,0,0,1,3.678-1.387,5.918,5.918,0,0,1,4.131,1.479,1.831,1.831,0,0,1,.389.655,8.5,8.5,0,0,1,.152,7.228,15.7,15.7,0,0,1-3.362,4.923,20.542,20.542,0,0,1-2.377,2.119,4.365,4.365,0,0,1-.389.259,2.138,2.138,0,0,0-1.117,1.812,3.5,3.5,0,0,0,.966,2.765,4.475,4.475,0,0,0,1.691.985,6.987,6.987,0,0,0,1.244.32,1.185,1.185,0,0,1,.468.17.366.366,0,0,1,.146.506.913.913,0,0,1-.409.424,12.926,12.926,0,0,1-1.651.762Z" transform="translate(-638.647 -264.747)" fill="url(#linear-gradient)"/>
      <path id="Path_4" data-name="Path 4" d="M595.7,290.325a14.258,14.258,0,0,1-.627-5.224,8.733,8.733,0,0,1,1.353-4.165,6.233,6.233,0,0,1,.48-.621,1.542,1.542,0,0,0,.454-1.149,12.348,12.348,0,0,1,2.391-8.306,12.927,12.927,0,0,1,3.4-3.435,8.023,8.023,0,0,1,5.732-1.278,13.328,13.328,0,0,1,4.109,1.3,21.512,21.512,0,0,1,4.712,3.144c.08.069.157.142.231.217a1.106,1.106,0,0,0,1.606.1,10.331,10.331,0,0,1,3.749-1.877,6.2,6.2,0,0,1,4.376.224,4.866,4.866,0,0,1,1.466,1.007,4.4,4.4,0,0,1,.766,1.206,6.355,6.355,0,0,1,.625,3.811,7.81,7.81,0,0,1-1.238,3.148,12.692,12.692,0,0,1-3.836,3.824,4.7,4.7,0,0,1-2.052.683,11.092,11.092,0,0,0-5.844,2.5,12.376,12.376,0,0,0-2.786,3.171,2.536,2.536,0,0,0-.157.295.707.707,0,0,1-.962.438c-.344-.112-.673-.267-1.013-.389a14.9,14.9,0,0,0-5.911-.946,12.612,12.612,0,0,0-8.048,3.47,9.331,9.331,0,0,0-1.135,1.243,1.327,1.327,0,0,1-.307.3.357.357,0,0,1-.595-.162A22.11,22.11,0,0,1,595.7,290.325Z" transform="translate(-595.035 -254.302)" fill="url(#linear-gradient-2)"/>
      <path id="Path_5" data-name="Path 5" d="M642.86,232.554a15.273,15.273,0,0,1,5.668-.682.631.631,0,0,1,.275.057,1.542,1.542,0,0,0,1.773-.125,6.43,6.43,0,0,1,1.1-.616,24.684,24.684,0,0,1,3.329-1.295,15.876,15.876,0,0,1,6.359-.723,11.146,11.146,0,0,1,3.954,1.157,10.255,10.255,0,0,1,3.966,3.47,6.446,6.446,0,0,1,.813,2.075,4.309,4.309,0,0,1,.094,1.64,3.365,3.365,0,0,1-1.868,2.57,4.879,4.879,0,0,1-.98.324,3.506,3.506,0,0,0-2.67,3.148c-.012.137.016.277.012.416a.5.5,0,0,1-.477.526,8.09,8.09,0,0,0-2.494.772c-.427.192-.83.429-1.247.641a1.232,1.232,0,0,1-1.2.056,1.112,1.112,0,0,1-.362-.339,10.4,10.4,0,0,0-2.563-2.512,6.953,6.953,0,0,0-5.305-1.093,9.151,9.151,0,0,0-3.9,1.729,1,1,0,0,1-1.073.108,1.859,1.859,0,0,1-.529-.346,15.348,15.348,0,0,0-6.29-3.475,16.263,16.263,0,0,0-3.141-.616,1.749,1.749,0,0,1-.471-.107.513.513,0,0,1-.292-.814c.13-.22.272-.435.415-.646a13.362,13.362,0,0,1,7.1-5.3Z" transform="translate(-622.447 -229.096)" fill="url(#linear-gradient-3)"/>
      <path id="Path_6" data-name="Path 6" d="M751.735,255.874a20.079,20.079,0,0,1,.886,5.74,1.727,1.727,0,0,1-.046.48.4.4,0,0,1-.574.306.747.747,0,0,1-.182-.083,4.459,4.459,0,0,0-2.448-.667,12.149,12.149,0,0,0-3.77.533.549.549,0,0,1-.784-.415,3.665,3.665,0,0,0-.4-.983,11.569,11.569,0,0,0-3.336-3.964,9.112,9.112,0,0,0-3.927-1.722,1.265,1.265,0,0,0-.365-.009,1.637,1.637,0,0,1-.333,0,.785.785,0,0,1-.757-.9,1.833,1.833,0,0,1,.707-1.332,4.369,4.369,0,0,1,1.271-.755.6.6,0,0,0,.135-.063,6.1,6.1,0,0,0,2.226-2.916,5.3,5.3,0,0,0,.043-3.443,1.324,1.324,0,0,1-.063-.276c-.031-.313.115-.457.432-.44a3.265,3.265,0,0,1,.771.211,14.922,14.922,0,0,1,9.322,7.722A19.508,19.508,0,0,1,751.735,255.874Z" transform="translate(-690.945 -239.92)" fill="url(#linear-gradient-4)"/>
      <path id="Path_7" data-name="Path 7" d="M610.908,340.422a11.473,11.473,0,0,1,5.161-.408,14.4,14.4,0,0,1,4.216,1.284c.639.306.767.715.7,1.1a4.908,4.908,0,0,0-.08,1.061,17.143,17.143,0,0,0,.371,2.692c.058.3.186.573.215.874a.655.655,0,0,1-.288.667,13.383,13.383,0,0,1-3.8,1.7,11.407,11.407,0,0,1-7.329-.505,13.521,13.521,0,0,1-4.137-2.6,2.571,2.571,0,0,1-.42-.4,1.158,1.158,0,0,1-.13-1.038,2.735,2.735,0,0,1,.58-1.026,11.683,11.683,0,0,1,3.587-2.837A11.965,11.965,0,0,1,610.908,340.422Z" transform="translate(-602.048 -304.64)" fill="url(#linear-gradient-5)"/>
    </g>
    <g id="Group_1516" data-name="Group 1516" transform="translate(277.5 28.544)">
      <path id="Path_1131" data-name="Path 1131" d="M12.118.389a9.753,9.753,0,0,0,9.361-6.346H20.257a8.664,8.664,0,0,1-8.14,5.189A8.97,8.97,0,0,1,3.062-9.99a8.931,8.931,0,0,1,9.056-9.222,8.56,8.56,0,0,1,8.094,5.134h1.2a9.594,9.594,0,0,0-9.3-6.29A10.075,10.075,0,0,0,1.859-9.99,10.125,10.125,0,0,0,12.118.389ZM44.631-10.129c0-5.763-4.079-10.24-9.824-10.24A9.989,9.989,0,0,0,24.79-10.018C24.79-4.089,29.11.389,34.808.389,38.9.389,42.115-1.748,44-5.7H42.744A8.669,8.669,0,0,1,34.808-.777a8.783,8.783,0,0,1-8.846-8.852H44.613C44.622-9.787,44.631-9.972,44.631-10.129Zm-9.824-9.1c4.695,0,8.352,3.424,8.657,8.482H25.98a8.745,8.745,0,0,1,8.828-8.482Zm23.412-.8a7.427,7.427,0,0,0-7.1,4.582l-.193-4.526H50V0H51.18V-11.248c0-4.422,2.793-7.65,6.965-7.65H59.94v-1.138Zm16.086-.333a9.946,9.946,0,0,0-9.065,5.477V-27.038H64.057V0h.99l.172-5.138A9.951,9.951,0,0,0,74.306.389c5.948,0,10.157-4.477,10.157-10.379S80.253-20.369,74.306-20.369Zm-.064,19.6A8.959,8.959,0,0,1,65.185-9.99a8.937,8.937,0,0,1,9.056-9.222A8.837,8.837,0,0,1,83.26-9.99,8.837,8.837,0,0,1,74.241-.768ZM98.614.389a10.129,10.129,0,0,0,10.4-10.379,10.129,10.129,0,0,0-10.4-10.379A10.124,10.124,0,0,0,88.217-9.99,10.146,10.146,0,0,0,98.614.389Zm0-1.156A8.985,8.985,0,0,1,89.42-9.99a8.952,8.952,0,0,1,9.194-9.222,8.969,8.969,0,0,1,9.195,9.222A8.969,8.969,0,0,1,98.614-.768ZM120.259.389c4.523,0,7.539-2.276,7.539-5.717,0-4.431-3.959-5.143-7.456-5.726-3.256-.546-6.142-1.027-6.142-4.024,0-2.516,2.35-4.2,5.911-4.2,3.617,0,5.827,1.674,6.022,4.5h1.138c-.194-3.45-2.9-5.587-7.141-5.587-4.218,0-7.086,2.146-7.086,5.319,0,3.922,3.57,4.542,7.03,5.134,3.293.555,6.549,1.165,6.549,4.625,0,2.766-2.525,4.56-6.336,4.56-3.774,0-6.16-1.721-6.475-4.708h-1.165C112.961-1.813,115.764.389,120.259.389ZM148.231-19.98,140.065-2.437,131.424-19.98H130.11L139.44-1.111l-1.208,2.545c-1.73,3.682-3.089,4.523-5.837,4.523h-1.489v1.1h1.563c3.182,0,4.912-1.156,6.845-5.3L149.5-19.98ZM159.294.389c4.523,0,7.539-2.276,7.539-5.717,0-4.431-3.959-5.143-7.455-5.726-3.256-.546-6.142-1.027-6.142-4.024,0-2.516,2.35-4.2,5.911-4.2,3.617,0,5.828,1.674,6.022,4.5h1.138c-.194-3.45-2.9-5.587-7.141-5.587-4.218,0-7.086,2.146-7.086,5.319,0,3.922,3.571,4.542,7.03,5.134,3.293.555,6.549,1.165,6.549,4.625,0,2.766-2.525,4.56-6.336,4.56-3.774,0-6.16-1.721-6.475-4.708h-1.165C152-1.813,154.8.389,159.294.389Z" transform="translate(120.5 25.197)" fill="#304269"/>
      <circle id="Ellipse_1" data-name="Ellipse 1" cx="4.011" cy="4.011" r="4.011" transform="translate(191.15 15.932)" fill="url(#linear-gradient-6)"/>
      <circle id="Ellipse_2" data-name="Ellipse 2" cx="4.011" cy="4.011" r="4.011" transform="translate(216.061 15.932)" fill="url(#linear-gradient-6)"/>
    </g>
  </g>
</svg>
