<?xml version="1.0" encoding="utf-8"?>
<!-- Generator: Adobe Illustrator 19.0.0, SVG Export Plug-In . SVG Version: 6.00 Build 0)  -->
<svg version="1.1" id="Layer_1" xmlns="http://www.w3.org/2000/svg" xmlns:xlink="http://www.w3.org/1999/xlink" x="0px" y="0px"
	 viewBox="0 0 134 154" style="enable-background:new 0 0 134 154;" xml:space="preserve">
<style type="text/css">
	.st0{fill:#FFFFFF;}
	.st1{fill:#C9243F;}
	.st2{fill-rule:evenodd;clip-rule:evenodd;fill:#FAA61A;}
	.st3{fill:#ED1C24;}
	.st4{fill-rule:evenodd;clip-rule:evenodd;fill:#007DC5;}
	.st5{fill:none;stroke:#808285;stroke-width:0.4287;stroke-miterlimit:2.6131;}
	.st6{fill-rule:evenodd;clip-rule:evenodd;fill:#034EA2;}
	.st7{fill:#FAA61A;}
	.st8{fill:#034EA2;}
</style>
<g>
	<path class="st0" d="M119.8,120.3c0-7.9,0-33.9,0-49.8l0-7.5c0-13.4-9.3-25.2-22.2-28.5c-0.4-0.1-0.7-0.5-0.7-0.9V15.2
		c0-0.5,0.4-1,1-1h8.1c3.4,0,6.2-2.7,6.2-6.1c0-3.4-2.8-6.1-6.2-6.1H28.2C24.8,2,22,4.7,22,8.1c0,3.4,2.8,6.1,6.2,6.1h8.1
		c0.5,0,1,0.4,1,1v18.3c0,0.4-0.3,0.8-0.7,0.9c-13,3.3-22.3,15.1-22.3,28.5v57.4"/>
	<g>
		<g>
			<g>
				<g>
					<path class="st1" d="M115.4,118.5l-0.5,0.5l-0.6-0.5l0.6-0.5L115.4,118.5z M115.2,114.4l-0.2,3.1l-0.4-0.2l-0.1-3.3
						L115.2,114.4z M111.9,115.8h-0.6v3.3l-0.7-0.5v-1.2h-1v0.3c0,0.2-0.1,0.2-0.2,0.2c-0.1-0.1-0.3-0.2-0.5-0.4
						c-0.2-0.2-0.3-0.4-0.3-0.5c0-0.2,0-0.2,0.2-0.2h1.8v-0.9h-2.1l-0.2-0.6h3.4L111.9,115.8z M107.4,117.1
						c-0.2-0.1-0.4-0.2-0.5-0.3c-0.2-0.1-0.3-0.1-0.5-0.1c-0.3,0-0.5,0.1-0.6,0.2c-0.2,0.2-0.3,0.3-0.3,0.6c0,0.1,0.1,0.2,0.1,0.3
						c0.1,0.1,0.2,0.1,0.3,0.1c0.1,0,0.3-0.1,0.6-0.2C106.8,117.6,107.1,117.4,107.4,117.1z M108.6,115.8h-0.6v3.3l-0.7-0.5V118
						c-0.2,0.2-0.4,0.3-0.6,0.4c-0.2,0.1-0.3,0.1-0.5,0.1c-0.3,0-0.6-0.1-0.9-0.4c-0.3-0.3-0.5-0.6-0.5-0.8c0-0.3,0.1-0.6,0.4-0.8
						c0.2-0.2,0.5-0.3,0.8-0.3c0.1,0,0.3,0.1,0.5,0.2c0.2,0.1,0.5,0.3,0.7,0.5v-1h-2.7l-0.2-0.6h3.9L108.6,115.8z M104.9,115.8h-0.6
						v3.3l-0.7-0.5v-2.8h-0.5l-0.2-0.6h0.9c0-0.3-0.1-0.6-0.3-0.8c-0.2-0.2-0.4-0.3-0.6-0.3c-0.2,0-0.3,0.1-0.4,0.3
						c-0.1,0.2-0.1,0.4-0.1,0.6H102c-0.1-0.1-0.2-0.2-0.2-0.3c-0.1-0.1-0.1-0.2-0.1-0.3c0-0.2,0.1-0.4,0.3-0.5
						c0.2-0.1,0.4-0.2,0.6-0.2c0.2,0,0.5,0.2,0.9,0.5c0.3,0.3,0.5,0.7,0.5,1.2h0.6L104.9,115.8z M103.2,115.8h-0.6v3.3l-0.7-0.5
						v-1.7h-1c0.1,0.1,0.2,0.1,0.2,0.2c0.1,0.1,0.1,0.2,0.1,0.3c0,0.2-0.1,0.3-0.2,0.4c-0.1,0.1-0.3,0.2-0.4,0.2
						c-0.3,0-0.7-0.1-1-0.4c-0.3-0.3-0.5-0.6-0.7-1.1l0.3-0.2c0.1,0.3,0.2,0.5,0.4,0.7c0.2,0.2,0.4,0.3,0.6,0.3c0.1,0,0.2,0,0.3-0.1
						c0.1-0.1,0.1-0.1,0.1-0.2c0-0.2-0.1-0.3-0.4-0.5c-0.1-0.1-0.2-0.2-0.2-0.2c0,0,0-0.1,0-0.1c0,0,0.1,0,0.1,0h1.7v-0.4h-3.2
						l-0.2-0.6h4.4L103.2,115.8z M97.5,115.8h-0.6v1.3c0,0.1-0.1,0.2-0.2,0.3c-0.1,0.1-0.2,0.2-0.4,0.3l1,1.1l-0.2,0.2
						c-0.1-0.2-0.5-0.6-1.1-1.3c-0.4-0.5-0.6-0.8-0.6-0.8c0,0,0-0.1,0.1-0.2c0-0.1,0.1-0.1,0.2-0.1c0.1,0,0.2,0,0.2,0.1
						c0.1,0,0.2,0.1,0.2,0.2v-1.1h-0.9l-0.2-0.6h2.2L97.5,115.8z M95.4,115.8h-0.6v3.3l-0.7-0.5V117h-0.9c-0.2,0-0.3,0.1-0.4,0.2
						c-0.1,0.1-0.1,0.3-0.1,0.4c0,0.2,0.1,0.4,0.2,0.6c0.1,0.2,0.3,0.4,0.5,0.6l-0.2,0.2c-0.3-0.3-0.6-0.7-0.8-1
						c-0.2-0.3-0.3-0.6-0.3-0.8c0-0.2,0.1-0.4,0.2-0.6c0.2-0.2,0.3-0.2,0.5-0.2h1.3v-0.6h-2.3l-0.2-0.6h3.5L95.4,115.8z M92,115.8
						h-0.6v1H90c-0.1,0-0.2,0-0.2,0.1c-0.1,0-0.1,0.1-0.1,0.2c0,0,0,0.1,0,0.2c0,0,0.1,0.1,0.1,0.2c0.2-0.1,0.5-0.2,0.8-0.2
						c0.3,0,0.6,0.1,0.8,0.3c0.2,0.2,0.3,0.4,0.3,0.7c0,0.1-0.1,0.2-0.2,0.3c-0.1,0.1-0.3,0.2-0.5,0.3l-0.4-0.5
						c0.2,0,0.3-0.1,0.4-0.2c0.1-0.1,0.2-0.2,0.2-0.2c0-0.1,0-0.1-0.1-0.2c-0.1-0.1-0.1-0.1-0.2-0.1c-0.3,0-0.5,0.1-0.7,0.2
						c-0.2,0.2-0.3,0.4-0.3,0.6c0,0.3,0.1,0.5,0.3,0.7c0.2,0.2,0.5,0.3,0.8,0.3l-0.1,0.3c-0.5-0.1-0.9-0.3-1.2-0.6
						c-0.3-0.3-0.5-0.5-0.5-0.8c0-0.1,0-0.3,0.1-0.4c0.1-0.1,0.1-0.2,0.2-0.3c-0.2-0.2-0.3-0.3-0.3-0.4c-0.1-0.1-0.1-0.3-0.1-0.4
						c0-0.1,0-0.2,0.1-0.3c0.1-0.1,0.2-0.1,0.3-0.1h1.2v-0.4h-2.1l-0.2-0.6h3.3L92,115.8z M88.2,115.1h-0.3
						c-0.2-0.3-0.3-0.5-0.5-0.7c-0.2-0.2-0.3-0.3-0.5-0.4c-0.1-0.1-0.3-0.1-0.4-0.1c-0.1,0-0.3,0-0.4,0.1l-0.4-0.8
						c0.2-0.1,0.3-0.1,0.5-0.1c0.2,0,0.3,0.1,0.5,0.2C87.1,113.5,87.6,114.1,88.2,115.1z M86.7,118l-0.6-1.1
						c-0.2,0.1-0.3,0.2-0.4,0.3c-0.1,0.1-0.1,0.3-0.1,0.4c0,0.1,0,0.2,0.1,0.3c0.1,0.1,0.2,0.1,0.3,0.2c0.1,0,0.2,0,0.3,0
						C86.4,118.1,86.5,118,86.7,118z M87.5,117.1c0-0.2-0.1-0.3-0.4-0.3c-0.2-0.1-0.4-0.1-0.7,0l0.6,1c0.2-0.1,0.3-0.2,0.4-0.3
						C87.5,117.3,87.5,117.2,87.5,117.1z M88.9,115.8h-0.6v3.3l-0.7-0.5V118c-0.2,0.2-0.4,0.3-0.6,0.4c-0.2,0.1-0.3,0.1-0.5,0.1
						c-0.3,0-0.6-0.1-1-0.5c-0.3-0.3-0.4-0.6-0.4-0.9c0-0.3,0.1-0.6,0.4-0.7c0.2-0.2,0.5-0.3,0.9-0.3c0.1,0,0.4,0,0.6,0.1
						c0.2,0.1,0.4,0.2,0.6,0.4v-0.9h-2.8l-0.2-0.6h4L88.9,115.8z M84.5,118.5l-0.5,0.5l-0.5-0.5l0.5-0.5L84.5,118.5z M82.4,118.5
						l-0.5,0.5l-0.5-0.5l0.5-0.5L82.4,118.5z M80.9,115.8h-0.6v3.3l-0.7-0.5v-1.2h-1v0.3c0,0.2-0.1,0.2-0.2,0.2
						c-0.1-0.1-0.3-0.2-0.5-0.4c-0.2-0.2-0.3-0.4-0.3-0.5c0-0.2,0-0.2,0.2-0.2h1.8v-0.9h-2.1l-0.2-0.6h3.4L80.9,115.8z M75.2,115.7
						c0-0.1,0-0.2-0.1-0.2c-0.1,0-0.1,0-0.2,0c-0.3,0-0.4,0.1-0.4,0.3c0,0.2,0,0.3,0.1,0.4c0.2,0,0.4-0.1,0.5-0.2
						C75.2,115.9,75.2,115.8,75.2,115.7z M77.7,115.8h-0.6v3.3l-0.7-0.5v-0.5c-0.2,0.1-0.3,0.2-0.5,0.3c-0.2,0.1-0.3,0.1-0.5,0.1
						c-0.4,0-0.7-0.1-0.9-0.3c-0.3-0.2-0.4-0.5-0.4-0.8c0-0.1,0-0.3,0.1-0.4c0.1-0.1,0.2-0.2,0.4-0.3c-0.3-0.1-0.4-0.3-0.6-0.5
						c-0.1-0.2-0.2-0.3-0.2-0.5c0-0.2,0.1-0.4,0.3-0.6c0.2-0.1,0.4-0.2,0.6-0.2c0.2,0,0.4,0.1,0.6,0.2c0.2,0.1,0.3,0.3,0.3,0.5
						c0,0.2-0.1,0.3-0.2,0.5c-0.2,0.1-0.4,0.2-0.6,0.3l0.2,0.2l0.5,0l0.4,0.6c-0.5,0-0.7,0-0.9,0.1c-0.3,0.1-0.4,0.2-0.4,0.4
						c0,0.1,0,0.2,0.1,0.2c0.1,0,0.2,0.1,0.3,0.1c0.2,0,0.5-0.1,0.7-0.2c0.2-0.1,0.5-0.3,0.7-0.5v-1.5h-0.3l-0.4-0.6h1.7L77.7,115.8
						z M73.8,114.5l-0.4,0.4l-0.4-0.4l0.4-0.4L73.8,114.5z M73.8,113.8l-0.1,0.2c-0.1-0.1-0.2-0.1-0.3-0.2c-0.1,0-0.2-0.1-0.2-0.1
						c-0.1,0-0.2,0-0.3,0.2c-0.1,0.1-0.1,0.3-0.1,0.4c0,0.3,0.1,0.6,0.3,0.9h-0.2c-0.2-0.2-0.3-0.4-0.4-0.6
						c-0.1-0.2-0.1-0.4-0.1-0.6c0-0.2,0.1-0.3,0.2-0.5c0.1-0.1,0.3-0.2,0.5-0.2c0.1,0,0.3,0,0.4,0.1
						C73.5,113.5,73.7,113.6,73.8,113.8z M73.8,115.8h-0.6v0.9c0,0,0,0.1-0.1,0.1c0,0-0.1,0.1-0.1,0.1c-0.2,0-0.5,0-1.1,0
						c-0.1,0-0.2,0-0.3,0.1c-0.1,0.1-0.1,0.2-0.1,0.3c0,0.1,0,0.1,0.1,0.2c0.1,0.1,0.1,0.1,0.2,0.1c0.1,0,0.2,0,0.4-0.1
						c0.3-0.1,0.5-0.1,0.6-0.1c0.1,0,0.2,0.1,0.4,0.3c0.2,0.2,0.3,0.4,0.3,0.7c0,0.2-0.1,0.4-0.4,0.6c-0.2,0.2-0.5,0.3-0.9,0.4
						l0.7,0.7l-0.4,0.2l-0.6-0.9c-0.3-0.1-0.5-0.1-0.7-0.2c-0.2-0.1-0.3-0.2-0.3-0.3c0-0.1,0.1-0.2,0.1-0.4c0.1-0.1,0.2-0.2,0.3-0.2
						c0,0,0.1,0,0.2,0.1c0.1,0.1,0.2,0.2,0.2,0.3c0.4-0.1,0.7-0.2,0.9-0.3c0.2-0.1,0.3-0.3,0.3-0.4c0-0.1,0-0.1-0.1-0.1
						c0,0-0.1-0.1-0.2-0.1c-0.1,0-0.2,0-0.3,0.1c-0.2,0.1-0.4,0.1-0.5,0.1c-0.2,0-0.4-0.1-0.7-0.4c-0.2-0.3-0.3-0.5-0.3-0.7
						c0-0.2,0.1-0.3,0.2-0.4c0.1-0.1,0.2-0.2,0.4-0.2h1v-0.5h-1.9l-0.2-0.6h3.1L73.8,115.8z M68.5,116.9c0-0.1,0-0.1-0.1-0.2
						c-0.1-0.1-0.1-0.1-0.2-0.1c-0.2,0-0.3,0-0.4,0.1c-0.1,0.1-0.1,0.2-0.1,0.4c0,0.1,0.1,0.3,0.2,0.4c0.1,0.1,0.2,0.2,0.4,0.2
						c0.1-0.1,0.2-0.2,0.2-0.4C68.5,117.3,68.5,117.1,68.5,116.9z M69.3,115.8h-0.9v0.4c0.2,0.1,0.3,0.3,0.4,0.5
						c0.1,0.2,0.2,0.4,0.2,0.6c0,0.5-0.2,0.9-0.6,1.3c-0.4,0.4-0.8,0.5-1.3,0.5c-0.3,0-0.6-0.1-1-0.3c-0.3-0.2-0.5-0.5-0.5-0.8
						c0-0.1,0-0.1,0.1-0.2c0.1-0.1,0.2-0.2,0.3-0.3c-0.2-0.1-0.3-0.2-0.4-0.3c-0.1-0.1-0.2-0.3-0.2-0.4c0-0.2,0.1-0.3,0.3-0.5
						c0.2-0.1,0.4-0.2,0.7-0.2l0.3,0.5c-0.2,0-0.4,0-0.6,0.1c-0.2,0.1-0.2,0.2-0.2,0.3c0,0.1,0,0.1,0.1,0.2c0.1,0.1,0.2,0.1,0.3,0.2
						l0.5-0.2l0.3,0.5c-0.2,0-0.4,0.1-0.6,0.2c-0.2,0.1-0.2,0.2-0.2,0.4c0,0.1,0,0.2,0.1,0.2c0.1,0.1,0.2,0.1,0.2,0.1
						c0.3,0,0.5-0.1,0.8-0.2c0.3-0.1,0.5-0.3,0.7-0.5c-0.3-0.1-0.5-0.3-0.7-0.5c-0.2-0.2-0.3-0.4-0.3-0.7c0-0.2,0.1-0.3,0.2-0.5
						c0.1-0.1,0.3-0.2,0.4-0.3v-0.4h-2.7l-0.2-0.6h4.2L69.3,115.8z M65.3,118.1c-0.2,0.1-0.3,0.2-0.5,0.3c-0.2,0.1-0.3,0.1-0.5,0.1
						c-0.3,0-0.6-0.1-0.9-0.3c-0.3-0.2-0.4-0.4-0.4-0.6c0-0.1,0-0.2,0.1-0.3c0-0.1,0.1-0.2,0.2-0.3l-0.7,0l-0.4-0.6h2.4l0.4,0.6
						h-0.9c-0.2,0.1-0.3,0.2-0.4,0.4c-0.1,0.1-0.2,0.3-0.2,0.4c0,0.1,0,0.2,0.2,0.2c0.1,0,0.2,0,0.3,0c0.2,0,0.4-0.1,0.7-0.2
						c0.2-0.1,0.5-0.3,0.7-0.6V118.1z M65.2,115.8H62l-0.2-0.6H65L65.2,115.8z M60.9,117.1c-0.2-0.1-0.4-0.2-0.5-0.3
						c-0.2-0.1-0.3-0.1-0.5-0.1c-0.3,0-0.5,0.1-0.6,0.2c-0.2,0.2-0.3,0.3-0.3,0.6c0,0.1,0.1,0.2,0.1,0.3c0.1,0.1,0.2,0.1,0.3,0.1
						c0.1,0,0.3-0.1,0.6-0.2C60.3,117.6,60.6,117.4,60.9,117.1z M62.1,115.8h-0.6v3.3l-0.7-0.5V118c-0.2,0.2-0.4,0.3-0.6,0.4
						c-0.2,0.1-0.3,0.1-0.5,0.1c-0.3,0-0.6-0.1-0.9-0.4c-0.3-0.3-0.5-0.6-0.5-0.8c0-0.3,0.1-0.6,0.4-0.8c0.2-0.2,0.5-0.3,0.8-0.3
						c0.1,0,0.3,0.1,0.5,0.2c0.2,0.1,0.5,0.3,0.7,0.5v-1h-2.7l-0.2-0.6h3.9L62.1,115.8z M58.4,117.6c-0.2,0.1-0.4,0.2-0.7,0.1
						c-0.1,0-0.2,0-0.3-0.1c-0.1-0.1-0.3-0.2-0.4-0.3c-0.1,0.2-0.3,0.4-0.6,0.5l1,1.1l-0.2,0.2c-0.3-0.4-0.8-1.1-1.5-2.1
						c0-0.1,0-0.1,0.1-0.2c0.1-0.1,0.1-0.1,0.2-0.1c0.1,0,0.1,0,0.2,0c0.1,0,0.2,0.1,0.2,0.1v-1.1h-0.9l-0.2-0.6h2.9l0.2,0.6h-1.2
						v1.2c-0.1-0.1,0,0,0.1,0.1c0.1,0.1,0.1,0.1,0.2,0.1c0.2,0,0.3,0,0.5-0.1c0.2-0.1,0.3-0.2,0.5-0.3V117.6z"/>
					<path class="st2" d="M87.3,49.7c-0.2,25.8-20.8,21.7-26.7,34c3.3-11.6,22-10.7,23.9-30C71.9,57.7,56.7,54,45.9,65.1
						C54.5,51.3,78.9,55.6,87.3,49.7"/>
					<path class="st3" d="M51.2,71v1h2.4v-2.7h-7.7v2.7h2.1v-1v-0.8h0.8h1.6h0.8V71z M50.3,72.8V71h-1.6v1.8H45v-4.4h9.3v4.4H50.3z
						 M60.4,79.5c0-0.4,0-0.6,0-0.9c0-2.8-2-5.2-4.7-5.7v-4.5h2.1c0.6,0,1.1-0.5,1.1-1.1c0-0.6-0.5-1.1-1.1-1.1h-16
						c-0.6,0-1.1,0.5-1.1,1.1c0,0.6,0.5,1.1,1.1,1.1h2.1v4.5c-2.7,0.5-4.7,2.9-4.7,5.7v0.9v6.6V87l-0.1,0c0,0,0,0,0.1,0
						c-0.3-0.1-0.5-0.3-0.8-0.4l0,0v0c-13.7-7.9-19-20.7-17.1-37c4.9,3.7,12.2,5.9,19,7.2c12.6,2.3,24.3,4.7,24.4,14.8
						C64.6,74.3,62.9,77.9,60.4,79.5z M41.7,65.5h16v0l0,0v0c0.5,0,1,0.2,1.3,0.5c0.3,0.3,0.5,0.8,0.6,1.3l0,0v0v0l0,0
						c0,0.5-0.2,1-0.6,1.3h0c-0.3,0.3-0.8,0.5-1.3,0.5l0,0l0,0h-1.2v3c0.2,0.1,0.4,0.1,0.6,0.2c0.4,0.2,0.8,0.4,1.1,0.6
						c1.8,1.2,3,3.2,3,5.6v0c1.6-1.7,2.5-3.5,2.4-5.7C63.3,62.5,51.9,61.1,40.6,59c-6.2-1.1-13.4-2.9-16.8-5
						C21.7,69.2,29.6,81,38.2,86.3v-0.2v-7.5h0v0h0c0-0.5,0-0.9,0.1-1.3c0.1-0.4,0.2-0.8,0.4-1.2c0.8-1.8,2.3-3.2,4.2-3.8v-3h-1.2
						l0,0l0,0c-0.5,0-1-0.2-1.3-0.5v0c-0.3-0.3-0.6-0.8-0.6-1.3h0v0l0,0h0c0-0.5,0.2-1,0.6-1.3C40.7,65.7,41.2,65.5,41.7,65.5
						L41.7,65.5L41.7,65.5L41.7,65.5z"/>
					<path class="st4" d="M51.2,49.1c1.2,2.2,3.8,4.5-0.8,7.6C47.6,55.4,48.7,50.8,51.2,49.1 M51.5,58.4
						c-10.5-6.8,0.3-12.1,0.2-11.9C50.8,49.6,60.8,52.6,51.5,58.4z"/>
					<line class="st5" x1="115.4" y1="111.3" x2="42.7" y2="111.3"/>
					<path class="st6" d="M81,93.3c-1,0.9-1.6,1.8-1.6,2.7c0,0.4,0.2,0.8,0.5,1.1c0.4,0.3,0.8,0.4,1.3,0.4c0.9,0,1.8-0.4,2.7-1.3
						c0.9-0.9,1.3-1.8,1.3-2.7c0-0.4-0.1-0.8-0.4-1.1C84,91.2,81.8,92.6,81,93.3 M43,85.8c22.9,0,45.8,0,68.8,0c1.9,0,3.6,1,3,2.5
						H112c-1.4,2.4-2.4,4.5-3.1,6.5c-1.2,3.2-1.1,4.8-1.1,8c-0.7-0.2-1.2-0.6-1.6-1.2c-2-2.9,0.8-10.4,2.5-13.3H105
						c-0.7,0.8-1.2,1.6-1.6,2.4c-0.4,0.8-0.7,1.7-0.9,2.5c0.6,0.7,1.1,1.5,1.4,2.3c0.3,0.8,0.5,1.6,0.5,2.4c0,1.2-0.2,2.3-1,3.2
						c-0.8,0.9-2.1,1.3-3.3,1.3c-0.7,0-1.3-0.2-1.8-0.7c-0.5-0.5-0.7-1.1-0.7-1.7h1.5c1,0,1.9-0.3,2.6-1c0.7-0.7,1.1-1.5,1.1-2.4
						c0-0.4-0.2-0.8-0.5-1.1c-0.3-0.3-0.7-0.4-1.1-0.4c-1.6,0-2.6,2-3.3,3.2c-0.7-0.2-1.2-0.5-1.5-0.8c-0.3-0.3-0.5-0.6-0.5-0.8
						c0-0.2,0-0.4,0.2-0.7c0.2-0.3,0.5-1.1,0.7-1.4c-0.2-0.2-0.5-0.4-0.8-0.5c-0.3-0.1-0.5-0.2-0.8-0.2c-0.9,0-1.7,0.4-2.4,1.1
						c-0.7,0.7-1,1.6-1,2.6c0,2.5,1.9,4,4.3,4.9l-0.3,0.9c-2.2-0.8-4.3-2.3-5.7-3.9c-1.5-1.8-1.6-5.1,0.4-7.1c1.5-1.5,4-1.7,6.1-0.6
						c0.7,0.4,1.2,1,1.3,1.7c0.2-0.2,0.5-0.4,0.8-0.5c0.3-0.1,0.6-0.2,0.9-0.3c0.1-0.9,0.4-1.7,0.7-2.4c0.3-0.7,0.6-1.4,1-1.9H91.2
						c-1.4,1.7-2.5,3.5-3.2,5.4c-0.7,2-1.1,3.9-1.1,6v3.1c-0.7-0.2-1.2-0.6-1.6-1.2c-0.4-0.6-0.6-1.2-0.6-1.9V99
						c-0.3,0.2-0.8,0.4-1.2,0.5c-0.5,0.1-1,0.2-1.5,0.2c-1.2,0-2.2-0.5-3.1-1.4c-0.8-0.9-1.3-2-1.3-3.3c0-0.8,0.1-1.5,0.4-2.2
						c-0.1,0-0.2,0-0.4,0c-0.5,0-0.9,0-1.2,0.1c-0.3,0-0.6,0.1-0.8,0.2c0.3,0.3,0.6,0.7,0.8,1.2c0.2,0.5,0.3,1,0.3,1.6
						c0,1-0.3,1.9-1,2.6c-0.7,0.7-1.5,1.1-2.4,1.1c-1.5,0-2.9-0.7-4.3-2c-1.3-1.4-1.9-2.8-1.9-4.4c0-0.1,0-0.2,0-0.3
						c-0.1,0-0.3,0-0.4,0c-0.5,0-0.9,0-1.2,0.1c-0.3,0-0.6,0.1-0.8,0.2c0.3,0.3,0.6,0.7,0.8,1.2c0.2,0.5,0.3,1,0.3,1.6
						c0,1-0.3,1.9-1,2.6c-0.7,0.7-1.5,1.1-2.4,1.1c-1.5,0-2.9-0.7-4.3-2c-1.3-1.4-2-2.8-2-4.4c0-0.6,0.2-1.2,0.6-1.8
						c0.4-0.6,0.8-0.9,1.2-0.9c0.3,0,0.7,0.2,1.1,0.5c0.4,0.3,0.8,0.8,1.1,1.4c-0.6,0.2-1,0.6-1.3,1.1c-0.3,0.5-0.5,1.1-0.5,1.7
						c0,0.6,0.2,1.1,0.7,1.5c0.5,0.4,1.1,0.6,1.8,0.6c0.8,0,1.4-0.3,2-0.8c0.6-0.5,0.8-1.2,0.8-2c0-0.5-0.1-1.1-0.3-1.6
						c-0.2-0.5-0.5-0.9-0.9-1.2c0.5-0.4,1.1-0.7,1.8-0.9c0.7-0.2,1.6-0.3,2.5-0.3c0.5,0,1,0.1,1.4,0.2c0.1,0,0.2,0,0.2,0.1
						c0.2-0.1,0.4-0.2,0.6-0.2c0.3,0,0.7,0.2,1.1,0.5c0.4,0.3,0.8,0.8,1.1,1.4c-0.6,0.2-1,0.6-1.3,1.1c-0.3,0.5-0.5,1.1-0.5,1.7
						c0,0.6,0.2,1.1,0.7,1.5c0.5,0.4,1.1,0.6,1.8,0.6c0.8,0,1.4-0.3,2-0.8c0.6-0.5,0.8-1.2,0.8-2c0-0.5-0.1-1.1-0.3-1.6
						c-0.2-0.5-0.5-0.9-0.9-1.2c0.5-0.4,1.1-0.7,1.8-0.9c0.7-0.2,1.6-0.3,2.5-0.3c0.5,0,1,0.1,1.4,0.2c0.2,0,0.4,0.1,0.6,0.2
						c1.1-0.8,2.3-1.3,3.7-1.3c0.6,0,1.2,0.2,1.7,0.5c0.5,0.3,0.9,0.8,1.1,1.3c0.3-0.7,0.5-1.3,0.8-1.9c0.3-0.5,0.5-0.9,0.8-1.2
						c-11.1,0-22.2,0-33.2,0c0.3,0.3,0.5,0.8,0.7,1.2c0.2,0.4,0.2,0.9,0.2,1.4c0,0.6-0.2,1.2-0.7,1.8c-0.4,0.6-1,1.1-1.8,1.6
						c0.4,0.3,0.7,0.8,0.9,1.3c0.2,0.6,0.3,1.2,0.3,1.9c0,1.1-0.5,2.1-1.4,2.8c-0.9,0.8-2,1.2-3.3,1.2c-1.7,0-3.2-0.7-4.4-2.2
						c-1.2-1.4-1.8-3.2-1.8-5.2c0-0.5,0.1-1,0.3-1.4c0.2-0.4,0.5-0.8,0.8-1.1c0.3,0.2,0.6,0.5,0.7,0.8c0.2,0.3,0.3,0.5,0.3,0.8
						c-0.2,0.3-0.4,0.7-0.5,1.1c-0.1,0.4-0.1,0.7-0.1,1.1c0,0.8,0.4,1.6,1.3,2.2c0.8,0.6,1.9,0.9,3.1,0.9c0.8,0,1.6-0.3,2.2-0.8
						c0.6-0.5,0.9-1.2,0.9-2c0-0.3-0.1-0.5-0.3-0.8c-0.2-0.2-0.4-0.3-0.7-0.3h-1.9c-0.3,0-0.5-0.2-0.8-0.5c-0.3-0.3-0.5-0.8-0.7-1.3
						c-0.1-0.1,0-0.3,0.1-0.4c0.1-0.1,0.3-0.2,0.5-0.2h2.5c0.7,0,1.3-0.3,1.7-0.8c0.5-0.5,0.7-1.1,0.7-1.9c0-0.3-0.1-0.6-0.3-0.9
						c-0.2-0.2-0.4-0.4-0.7-0.4H46C43.9,88.3,43,86.9,43,85.8z"/>
					<path class="st1" d="M110.6,79.6h-1v5h-1.1v-5h-1v-1h0.9c-0.1-0.3-0.3-0.7-0.5-1c-0.3-0.5-0.7-0.8-1.1-0.8
						c-0.2,0-0.3,0.1-0.4,0.2c-0.1,0.1-0.1,0.2-0.1,0.4c0,0.1,0,0.3,0.1,0.5c0.1,0.2,0.2,0.3,0.4,0.5h-1.2c-0.1-0.2-0.2-0.3-0.3-0.5
						c-0.1-0.2-0.1-0.4-0.1-0.6c0-0.5,0.1-0.8,0.4-1.1c0.3-0.3,0.7-0.4,1.2-0.4c0.7,0,1.4,0.4,1.9,1.3c0.3,0.5,0.6,1,0.7,1.6h1.1
						V79.6z M108.6,79.6h-1v5h-1.2v-1.9l-2.8,1.5l-0.8-0.9l2.1-1c-0.1-0.2-0.1-0.4-0.2-0.5c-0.1-0.2-0.2-0.4-0.3-0.5
						c-0.2-0.1-0.5,0-0.9,0.2c-0.4,0.2-0.6,0.4-0.7,0.5l-0.5-1.2c0.6-0.3,1.1-0.5,1.6-0.5c0.5,0,0.9,0,1.1,0.2
						c0.1,0.1,0.3,0.3,0.4,0.7c0.1,0.3,0.2,0.5,0.3,0.8l0.6-0.3v-2H102v-1h6.6V79.6z M101.5,77.3c0,0.2-0.1,0.4-0.2,0.5
						c-0.1,0.1-0.3,0.2-0.5,0.2c-0.2,0-0.4-0.1-0.5-0.2c-0.1-0.1-0.2-0.3-0.2-0.5c0-0.2,0.1-0.3,0.2-0.5c0.2-0.1,0.3-0.2,0.5-0.2
						c0.2,0,0.4,0.1,0.5,0.2C101.4,77,101.5,77.2,101.5,77.3z M97.6,82.4v-0.5h-0.4c-0.1,0-0.2,0-0.3,0.1c-0.1,0.1-0.1,0.2-0.1,0.3
						c0,0.2,0,0.3,0.1,0.4c0.1,0.1,0.2,0.1,0.3,0.1c0.2,0,0.3,0,0.4-0.1C97.5,82.6,97.6,82.5,97.6,82.4z M100.4,80.9v-1.4h-1.7v1.4
						H100.4z M102.6,79.6h-1v5h-1.2v-2.6h-1.7v0.6c0,0.4-0.1,0.7-0.3,0.9c-0.3,0.3-0.7,0.4-1.2,0.4c-0.4,0-0.8-0.1-1.1-0.3
						c-0.3-0.3-0.5-0.6-0.5-1.1c0-0.4,0.1-0.8,0.4-1c0.2-0.2,0.5-0.3,0.9-0.3h0.7v-1.4h-2.4v-1h7.5V79.6z M95.7,79.6h-1v5h-1.1v-3.1
						h-2.4c-0.2,0-0.4,0-0.4,0.2c-0.1,0.1-0.2,0.3-0.2,0.4c0,0.2,0,0.4,0.1,0.5c0.1,0.1,0.2,0.1,0.4,0.1c0.1,0,0.2,0,0.3-0.1
						c0.1-0.1,0.1-0.2,0.1-0.3c0-0.1,0-0.3-0.2-0.4h1.2c0,0,0.1,0.1,0.1,0.2c0,0.1,0,0.2,0,0.3c0,0.4-0.1,0.7-0.5,1
						c-0.3,0.2-0.7,0.4-1.2,0.4c-0.5,0-0.9-0.1-1.2-0.4c-0.3-0.3-0.4-0.7-0.4-1.1c0-0.6,0.2-1,0.5-1.3c0.3-0.2,0.7-0.3,1.2-0.3h2.5
						v-0.9h-4.7v-1h6.9V79.6z M89.5,79.6h-1v5h-1.1v-5h-1v-1h3.1V79.6z M87.3,79.6h-1v5h-1.2v-1.3c-0.5,0.3-1.1,0.4-1.7,0.5
						c-0.6,0-1-0.1-1.4-0.4c-0.5-0.3-0.7-0.7-0.7-1.1c0-0.3,0.1-0.5,0.3-0.7c0.2-0.2,0.4-0.3,0.6-0.3c-0.3-0.1-0.5-0.2-0.7-0.4
						c-0.2-0.2-0.3-0.5-0.3-0.9c0-0.3,0.1-0.6,0.4-0.9c0.3-0.4,0.8-0.5,1.3-0.5c0.5,0,0.9,0.1,1.1,0.4c0.2,0.2,0.3,0.4,0.3,0.7
						c0,0.1,0,0.2-0.1,0.4c-0.1,0.1-0.2,0.2-0.3,0.3L83,79.9c0.1,0,0.2-0.1,0.3-0.2c0.1-0.1,0.1-0.1,0.1-0.2c0-0.1-0.1-0.1-0.1-0.2
						c-0.1-0.1-0.2-0.1-0.3-0.1c-0.2,0-0.3,0.1-0.4,0.2c-0.1,0.1-0.2,0.3-0.2,0.4c0,0.2,0.2,0.4,0.5,0.5c0.3,0.1,0.7,0.2,1.1,0.1
						v0.9c-0.3,0-0.6,0-1,0.1c-0.3,0.1-0.4,0.3-0.4,0.5c0,0.2,0.1,0.4,0.3,0.5c0.2,0.1,0.4,0.1,0.7,0.1c0.2,0,0.5-0.1,0.8-0.2
						c0.3-0.1,0.6-0.3,0.8-0.5v-2.6h-0.4v-1h2.6V79.6z M79.7,83.2l-3.4,1.7L76,84.3l3.7-1.8V83.2z M79.2,81.8v-2.3h-2v1.9
						c0,0.2,0.1,0.4,0.2,0.6c0.2,0.2,0.4,0.2,0.6,0.2c0.2,0,0.4,0,0.6-0.1C78.8,82.1,79,82,79.2,81.8z M81.4,79.6h-1v5h-1.2V83
						c-0.3,0.2-0.7,0.3-1.2,0.3c-0.7,0-1.1-0.1-1.4-0.5c-0.4-0.3-0.6-0.8-0.6-1.2v-2h-0.7v-1h6V79.6z"/>
					<path class="st7" d="M110.6,105.1h-1v4.9h-1.1v-4.9h-1v-1h3.1V105.1z M108.5,105.1h-1v4.9h-1.1v-3.1h-2.4c-0.2,0-0.4,0-0.4,0.2
						c-0.1,0.1-0.2,0.3-0.2,0.4c0,0.2,0,0.4,0.1,0.4c0.1,0.1,0.2,0.1,0.4,0.1c0.1,0,0.2,0,0.3-0.1c0.1-0.1,0.1-0.2,0.1-0.3
						c0-0.1-0.1-0.3-0.2-0.4h1.2c0,0,0.1,0.1,0.1,0.2c0,0.1,0,0.2,0,0.3c0,0.4-0.1,0.7-0.5,1c-0.3,0.2-0.7,0.4-1.2,0.4
						c-0.5,0-0.9-0.1-1.2-0.4c-0.3-0.3-0.4-0.7-0.4-1.1c0-0.6,0.2-1,0.5-1.3c0.3-0.2,0.7-0.3,1.2-0.3h2.5v-0.9h-4.7v-1h6.9V105.1z
						 M102.1,105.1h-1v4.9h-1.2v-3.2h-1.3c0.1,0.1,0.2,0.3,0.3,0.4c0.1,0.2,0.2,0.4,0.2,0.6c0,0.5-0.2,0.9-0.6,1.2
						c-0.4,0.3-0.8,0.4-1.3,0.4c-0.7,0-1.4-0.4-1.8-1.1c-0.5-0.7-0.7-1.6-0.6-2.6H96c-0.1,0.7-0.1,1.3,0.2,1.8
						c0.2,0.5,0.5,0.8,0.9,0.8c0.3,0,0.5-0.1,0.6-0.2c0.1-0.1,0.2-0.4,0.2-0.7c0-0.2-0.1-0.3-0.2-0.5c-0.1-0.2-0.2-0.3-0.4-0.3h-0.5
						v-1h3.1v-0.8h-5.7v-1h7.9V105.1z M93.9,104.9H93c-0.4-0.7-0.9-1.2-1.4-1.5c-0.4-0.2-0.9-0.4-1.3-0.3l0.3-1.1
						c0.3,0,0.5,0,0.8,0.2c0.3,0.1,0.7,0.4,1,0.7C92.8,103.3,93.3,104,93.9,104.9z M94.8,105.1h-1v4.9h-1.1v-4.9h-1v-1h3.1V105.1z
						 M90.6,107.4v-2.3h-1.5c0.1,0.1,0.2,0.3,0.3,0.4c0.1,0.1,0.1,0.3,0.1,0.4c0,0.4-0.2,0.7-0.6,1c-0.3,0.2-0.6,0.3-1,0.3
						c-0.1,0-0.2,0-0.2,0c0,0.3,0.2,0.5,0.4,0.7c0.3,0.2,0.6,0.3,0.9,0.3c0.4,0,0.7-0.1,0.9-0.2C90.2,107.8,90.5,107.6,90.6,107.4z
						 M92.8,105.1h-1v4.9h-1.1v-1.5c-0.2,0.2-0.4,0.3-0.7,0.3c-0.3,0.1-0.7,0.1-1,0.1c-1,0-1.8-0.3-2.2-1c-0.3-0.4-0.4-0.9-0.4-1.6
						c0-0.1,0-0.2,0-0.3c0.4,0.1,0.7,0.2,0.9,0.2c0.3,0,0.5,0,0.7-0.1c0.2-0.1,0.3-0.3,0.3-0.5c0-0.1,0-0.2-0.1-0.3
						c-0.1-0.1-0.2-0.2-0.3-0.3h-2v-1h6.9V105.1z"/>
				</g>
				<g>
					<g>
						<polygon class="st8" points="75,29.6 75,20.9 57.4,20.9 57.4,29.6 49.3,29.6 49.3,18.2 84.8,18.2 84.8,29.6 						"/>
						<path class="st8" d="M119.8,120.3c0-6.5,0-33.2,0-49.8l0-7.5c0-13.7-9.6-25.6-23-28.7v-20h9c3.4,0,6.2-2.7,6.2-6.1
							c0-3.4-2.8-6.1-6.2-6.1H28.2C24.8,2,22,4.7,22,8.1c0,3.4,2.8,6.1,6.2,6.1h9v20c-13.4,3.1-23,15-23,28.7v57.4h-2V62.9
							c0-2.1,0.2-4.2,0.6-6.2c0.4-2,1-3.9,1.8-5.8c3.6-8.6,10.9-15.2,19.9-18l0.7-0.2V16.2h-6l-1,0c-2.1,0-4.1-0.8-5.6-2.2l-0.2-0.2
							c-1.5-1.5-2.4-3.6-2.4-5.7v0c0-2.2,0.9-4.2,2.4-5.7C24,0.8,26,0,28.2,0h77.7c2.2,0,4.2,0.8,5.8,2.4c1.5,1.5,2.4,3.5,2.4,5.7
							c0,2.1-0.8,4.1-2.2,5.6l-0.2,0.2c-1.5,1.5-3.6,2.4-5.7,2.4l-1,0v0h-6v16.5l0.7,0.2c1.1,0.3,2,0.7,2.8,1
							c1.9,0.8,3.7,1.7,5.3,2.8c8.4,5.5,13.7,14.7,14.2,24.6l0,0.2v58.7H119.8z"/>
					</g>
				</g>
			</g>
			<g>
				<g>
					<g>
						<g>
							<path class="st8" d="M14.5,122.6c-2.9,0-5.3,2.4-5.3,5.3c0,0.4,0.1,0.8,0.2,1.2c0.6-0.7,1.5-1.1,2.5-1.1
								c1.9,0,3.4,1.5,3.4,3.4c0,0.6-0.2,1.2-0.5,1.8c2.8-0.2,5-2.5,5-5.3C19.8,124.9,17.4,122.6,14.5,122.6z"/>
							<ellipse class="st8" cx="11.8" cy="131.4" rx="2.8" ry="2.8"/>
							<path class="st8" d="M27.7,125.2c0,0-7.1,11-14.6,11.2c-6.3-0.1-12.3-11.2-12.3-11.2c-0.4-0.3-0.8,0.3-0.8,0.3l10.5,23.1v5.4
								l2.5-0.1l3,0.1v-5.4l12.6-23.1C28.6,125.4,28.2,124.8,27.7,125.2z"/>
						</g>
						<g>
							<path class="st8" d="M40.8,122.6c-2.9,0-5.3,2.4-5.3,5.3c0,0.4,0.1,0.8,0.2,1.2c0.6-0.7,1.5-1.1,2.5-1.1
								c1.9,0,3.4,1.5,3.4,3.4c0,0.6-0.2,1.2-0.5,1.8c2.8-0.2,5-2.5,5-5.3C46.1,124.9,43.7,122.6,40.8,122.6z"/>
							<ellipse class="st8" cx="38.2" cy="131.4" rx="2.8" ry="2.8"/>
							<path class="st8" d="M54,125.2c0,0-7.1,11-14.6,11.2c-6.3-0.1-12.3-11.2-12.3-11.2c-0.4-0.3-0.8,0.3-0.8,0.3l10.5,23.1v5.4
								l2.5-0.1l3,0.1v-5.4L55,125.4C55,125.4,54.5,124.8,54,125.2z"/>
						</g>
						<g>
							<path class="st8" d="M67.1,122.6c-2.9,0-5.3,2.4-5.3,5.3c0,0.4,0.1,0.8,0.2,1.2c0.6-0.7,1.5-1.1,2.5-1.1
								c1.9,0,3.4,1.5,3.4,3.4c0,0.6-0.2,1.2-0.5,1.8c2.8-0.2,5-2.5,5-5.3C72.5,124.9,70.1,122.6,67.1,122.6z"/>
							<ellipse class="st8" cx="64.5" cy="131.4" rx="2.8" ry="2.8"/>
							<path class="st8" d="M80.4,125.2c0,0-7.1,11-14.6,11.2c-6.3-0.1-12.3-11.2-12.3-11.2c-0.4-0.3-0.8,0.3-0.8,0.3l10.5,23.1v5.4
								l2.5-0.1l3,0.1v-5.4l12.6-23.1C81.3,125.4,80.9,124.8,80.4,125.2z"/>
						</g>
						<g>
							<path class="st8" d="M93.5,122.6c-2.9,0-5.3,2.4-5.3,5.3c0,0.4,0.1,0.8,0.2,1.2c0.6-0.7,1.5-1.1,2.5-1.1
								c1.9,0,3.4,1.5,3.4,3.4c0,0.6-0.2,1.2-0.5,1.8c2.8-0.2,5-2.5,5-5.3C98.8,124.9,96.4,122.6,93.5,122.6z"/>
							<ellipse class="st8" cx="90.8" cy="131.4" rx="2.8" ry="2.8"/>
							<path class="st8" d="M106.7,125.2c0,0-7.1,11-14.6,11.2c-6.3-0.1-12.3-11.2-12.3-11.2c-0.4-0.3-0.8,0.3-0.8,0.3l10.5,23.1
								v5.4l2.5-0.1l3,0.1v-5.4l12.6-23.1C107.6,125.4,107.2,124.8,106.7,125.2z"/>
						</g>
					</g>
					<g>
						<g>
							<path class="st8" d="M119.8,122.6c-2.9,0-5.3,2.4-5.3,5.3c0,0.4,0.1,0.8,0.2,1.2c0.6-0.7,1.5-1.1,2.5-1.1
								c1.9,0,3.4,1.5,3.4,3.4c0,0.6-0.2,1.2-0.5,1.8c2.8-0.2,5-2.5,5-5.3C125.2,124.9,122.8,122.6,119.8,122.6z"/>
							<ellipse class="st8" cx="117.2" cy="131.4" rx="2.8" ry="2.8"/>
							<path class="st8" d="M133.1,125.2c0,0-7.1,11-14.6,11.2c-6.3-0.1-12.3-11.2-12.3-11.2c-0.4-0.3-0.8,0.3-0.8,0.3l10.5,23.1
								v5.4l2.5-0.1l3,0.1v-5.4l12.6-23.1C134,125.4,133.6,124.8,133.1,125.2z"/>
						</g>
					</g>
				</g>
			</g>
		</g>
	</g>
</g>
</svg>
