<svg xmlns="http://www.w3.org/2000/svg" width="1100" height="794" viewBox="0 0 1100 794">
  <g id="Group_50" data-name="Group 50" transform="translate(-374 -284)">
    <path id="Path_82" data-name="Path 82" d="M0,0H1100V794H0Z" transform="translate(374 284)" fill="#00000000"/>
    <path id="Path_83" data-name="Path 83" d="M8609,1019a195.5,195.5,0,0,1-73-14.085V892.649A109.386,109.386,0,0,0,8609,921c62.309,0,113-53.608,113-119.5S8671.309,682,8609,682a109.387,109.387,0,0,0-73,28.352V597.086a196.014,196.014,0,0,1,153.185,3.046,202.8,202.8,0,0,1,34.994,20.1,210.792,210.792,0,0,1,30.487,26.62,217.4,217.4,0,0,1,25.153,32.264,222.373,222.373,0,0,1,18.992,37.029,226.383,226.383,0,0,1,12,40.923,232.666,232.666,0,0,1,0,87.867,226.382,226.382,0,0,1-12,40.923,222.371,222.371,0,0,1-18.992,37.029,217.452,217.452,0,0,1-25.153,32.264,210.834,210.834,0,0,1-30.487,26.62,202.726,202.726,0,0,1-34.994,20.1A195.633,195.633,0,0,1,8609,1019Z" transform="translate(-7392 -42)" fill="#273773"/>
    <rect id="Rectangle_23" data-name="Rectangle 23" width="434" height="103" transform="translate(460 365)" fill="#273773"/>
    <path id="Path_78" data-name="Path 78" d="M0,0H177.539L204,29.538V471H0Z" transform="translate(575 512)" fill="#273773"/>
    <path id="Path_77" data-name="Path 77" d="M11.565-17.9,37.586,11.408l-27.8-4.9Z" transform="translate(741 530)" fill="#fedd04"/>
    <g id="Group_49" data-name="Group 49">
      <rect id="Rectangle_25" data-name="Rectangle 25" width="100" height="5" transform="translate(625 617)" fill="#fedd04"/>
      <rect id="Rectangle_25-2" data-name="Rectangle 25" width="100" height="5" transform="translate(625 646)" fill="#fedd04"/>
      <rect id="Rectangle_25-3" data-name="Rectangle 25" width="100" height="5" transform="translate(625 675)" fill="#fedd04"/>
      <rect id="Rectangle_25-4" data-name="Rectangle 25" width="100" height="5" transform="translate(625 704)" fill="#fedd04"/>
      <rect id="Rectangle_25-5" data-name="Rectangle 25" width="100" height="5" transform="translate(625 733)" fill="#fedd04"/>
      <rect id="Rectangle_25-6" data-name="Rectangle 25" width="100" height="5" transform="translate(625 762)" fill="#fedd04"/>
    </g>
    <path id="Path_80" data-name="Path 80" d="M1,23S26.865,8.624,57.917,3.2,125.206,1.32,125.206,1.32l4.523,4.147,0,51.045-6.176,5.92S83.611,58.757,59.189,69.6c-9.622,4.271-20.264,10.051-25.634,16.586a32.939,32.939,0,0,0-7.691,19.609s-.451,7.016,2.226,11.868,8.482,7.539,8.482,7.539a94.1,94.1,0,0,0,37.885,13.194c22.005,2.545,50.136-3.016,50.136-3.016l5.135,4.147V195.5s-7.884,2.879-40.316,3.838S26.854,195.381,1,185.825c-15.593-5.762-32.507-19.12-41.785-38.861-5.959-12.679-7.425-28.367-7.326-45.869.1-18.472,9.6-39.512,19.749-52.877C-14.64,30.14,1,23,1,23Z" transform="translate(841 778)" fill="#273773"/>
    <path id="Path_79" data-name="Path 79" d="M68-31.806,67.733,47.47s-17.917,1.284-28.551,7.807c-2.417,1.482-6.194,3.965-8.03,7.138a17.054,17.054,0,0,0-2.007,8.253l-6.692,3.011L-48.116,73.6l-5.318-4.976v-3.6s-.29-41.956,30.25-66.113c12.918-10.219,30.218-20.9,47.29-25.728A144.892,144.892,0,0,1,68-31.806Z" transform="translate(864 692)" fill="#273773"/>
    <path id="Path_93" data-name="Path 93" d="M0,0H128V568H0Z" transform="translate(987 409)" fill="#273773"/>
    <path id="Path_88" data-name="Path 88" d="M1.837-15.335a17.86,17.86,0,0,1,1.726-7.988A12.632,12.632,0,0,1,8.531-28.75a14.494,14.494,0,0,1,7.529-1.92,13.713,13.713,0,0,1,9.95,3.729,14.968,14.968,0,0,1,4.3,10.131l.056,2.06q0,6.93-3.869,11.119A13.447,13.447,0,0,1,16.115.557a13.514,13.514,0,0,1-10.4-4.175Q1.837-7.793,1.837-14.974Zm8.043.571A11.257,11.257,0,0,0,11.495-8.2a5.325,5.325,0,0,0,4.62,2.272,5.337,5.337,0,0,0,4.564-2.244q1.642-2.244,1.642-7.178a11.144,11.144,0,0,0-1.642-6.523,5.338,5.338,0,0,0-4.62-2.314,5.251,5.251,0,0,0-4.564,2.3Q9.88-19.587,9.88-14.764Z" transform="translate(1308.311 653.828) rotate(47)" fill="#fedd04"/>
    <path id="Path_84" data-name="Path 84" d="M11.578,0H3.507V-30.114h8.071ZM3.034-37.907a3.961,3.961,0,0,1,1.211-2.978,4.548,4.548,0,0,1,3.3-1.169,4.559,4.559,0,0,1,3.284,1.169,3.938,3.938,0,0,1,1.225,2.978A3.949,3.949,0,0,1,10.813-34.9a4.57,4.57,0,0,1-3.27,1.169A4.57,4.57,0,0,1,4.272-34.9,3.949,3.949,0,0,1,3.034-37.907Z" transform="matrix(0.208, 0.978, -0.978, 0.208, 1356.931, 741.417)" fill="#fedd04"/>
    <path id="Path_85" data-name="Path 85" d="M11.578,0H3.507V-42.75h8.071Z" transform="translate(1357.476 759.951) rotate(85)" fill="#fedd04"/>
    <path id="Path_87" data-name="Path 87" d="M11.578,0H3.507V-42.75h8.071Z" transform="matrix(-0.105, 0.995, -0.995, -0.105, 1358.947, 777.577)" fill="#fedd04"/>
    <path id="Path_89" data-name="Path 89" d="M11.578,0H3.507V-30.114h8.071ZM3.034-37.907a3.961,3.961,0,0,1,1.211-2.978,4.548,4.548,0,0,1,3.3-1.169,4.559,4.559,0,0,1,3.284,1.169,3.938,3.938,0,0,1,1.225,2.978A3.949,3.949,0,0,1,10.813-34.9a4.57,4.57,0,0,1-3.27,1.169A4.57,4.57,0,0,1,4.272-34.9,3.949,3.949,0,0,1,3.034-37.907Z" transform="translate(1354.265 797.811) rotate(101)" fill="#fedd04"/>
    <path id="Path_90" data-name="Path 90" d="M10.493-30.114l.25,3.479A10.514,10.514,0,0,1,19.4-30.671q4.787,0,7.125,2.811t2.394,8.405V0H20.874V-19.26a5.218,5.218,0,0,0-1.113-3.716,4.984,4.984,0,0,0-3.7-1.155,5.533,5.533,0,0,0-5.093,2.895V0H2.922V-30.114Z" transform="matrix(-0.326, 0.946, -0.946, -0.326, 1347.333, 818.693)" fill="#fedd04"/>
    <path id="Path_92" data-name="Path 92" d="M1.92-15.28q0-6.93,3.3-11.161a10.687,10.687,0,0,1,8.892-4.23,9.372,9.372,0,0,1,7.709,3.4l.334-2.839h7.292V-1a12.871,12.871,0,0,1-1.8,6.875A11.529,11.529,0,0,1,22.6,10.326a17.758,17.758,0,0,1-7.626,1.531,16.513,16.513,0,0,1-6.457-1.322A11.46,11.46,0,0,1,3.757,7.125l3.563-4.9a9.422,9.422,0,0,0,7.292,3.368,6.9,6.9,0,0,0,4.982-1.712A6.42,6.42,0,0,0,21.375-.974V-2.588A9.3,9.3,0,0,1,14.055.557,10.659,10.659,0,0,1,5.274-3.688Q1.92-7.932,1.92-14.946Zm8.043.6a10.989,10.989,0,0,0,1.642,6.425,5.224,5.224,0,0,0,4.509,2.327,5.585,5.585,0,0,0,5.26-2.76V-21.371a5.572,5.572,0,0,0-5.2-2.76,5.257,5.257,0,0,0-4.551,2.369Q9.964-19.392,9.964-14.681Z" transform="translate(1332.376 854.417) rotate(115)" fill="#fedd04"/>
    <path id="Path_86" data-name="Path 86" d="M3.618,0V-40.523H17.813q7.375,0,11.188,2.825t3.813,8.28a9.156,9.156,0,0,1-1.531,5.246,8.842,8.842,0,0,1-4.258,3.326A8.555,8.555,0,0,1,31.937-17.7a9.3,9.3,0,0,1,1.8,5.789q0,5.845-3.729,8.851T19.371,0Zm8.35-17.646V-6.708h7.153a6.9,6.9,0,0,0,4.606-1.406A4.82,4.82,0,0,0,25.383-12q0-5.566-5.761-5.65Zm0-5.9h6.179q6.318-.111,6.318-5.038a4.655,4.655,0,0,0-1.6-3.966,8.417,8.417,0,0,0-5.052-1.211H11.968Z" transform="translate(1345.441 701.078) rotate(74)" fill="#fedd04"/>
    <path id="Path_91" data-name="Path 91" d="M35.681-5.121A14.493,14.493,0,0,1,29.307-.932,26.691,26.691,0,0,1,20.178.557a18.084,18.084,0,0,1-9.226-2.3A15.315,15.315,0,0,1,4.829-8.405a23.46,23.46,0,0,1-2.213-10.27v-2.755A24.915,24.915,0,0,1,4.662-31.937a15.133,15.133,0,0,1,5.9-6.791,17,17,0,0,1,9.031-2.352q7.208,0,11.272,3.437t4.815,10.006H27.554a8.08,8.08,0,0,0-2.463-5.093,7.867,7.867,0,0,0-5.246-1.614,7.4,7.4,0,0,0-6.485,3.2q-2.227,3.2-2.254,9.519v2.588q0,6.374,2.421,9.63a8.291,8.291,0,0,0,7.1,3.256q4.7,0,6.708-2v-6.986h-7.6v-6.151H35.681Z" transform="translate(1277.146 621.987) rotate(47)" fill="#fedd04"/>
  </g>
</svg>
