<svg xmlns="http://www.w3.org/2000/svg" xmlns:xlink="http://www.w3.org/1999/xlink" width="90.54" height="37.964" viewBox="0 0 90.54 37.964">
  <defs>
    <linearGradient id="linear-gradient" x1="0.105" y1="-0.035" x2="0.407" y2="1.253" gradientUnits="objectBoundingBox">
      <stop offset="0" stop-color="#f48302"/>
      <stop offset="1" stop-color="#e75627"/>
    </linearGradient>
    <linearGradient id="linear-gradient-2" x1="-0.262" y1="0.144" x2="0.817" y2="0.144" gradientUnits="objectBoundingBox">
      <stop offset="0" stop-color="#18194c"/>
      <stop offset="1" stop-color="#00538c"/>
    </linearGradient>
    <linearGradient id="linear-gradient-3" x1="0.426" y1="-0.12" x2="0.4" y2="0.863" gradientUnits="objectBoundingBox">
      <stop offset="0" stop-color="#3e0f51"/>
      <stop offset="1" stop-color="#703d85"/>
    </linearGradient>
    <linearGradient id="linear-gradient-4" x1="-0.327" y1="0.782" x2="0.549" y2="0.782" gradientUnits="objectBoundingBox">
      <stop offset="0" stop-color="#5ba921"/>
      <stop offset="1" stop-color="#147f00"/>
    </linearGradient>
    <linearGradient id="linear-gradient-5" x1="-0.191" y1="-1.271" x2="-0.264" y2="0.339" gradientUnits="objectBoundingBox">
      <stop offset="0" stop-color="#e7401d"/>
      <stop offset="1" stop-color="#aa0021"/>
    </linearGradient>
  </defs>
  <g id="Layer_2" data-name="Layer 2" transform="translate(-321.563 -229.101)">
    <g id="Group_2" data-name="Group 2" transform="translate(321.563 229.101)">
      <g id="Group_1" data-name="Group 1" transform="translate(34.218 0)">
        <path id="Path_1" data-name="Path 1" d="M772.713,378.138a.017.017,0,0,0,0,.012l-.336.107a.016.016,0,0,1,0-.023A.706.706,0,0,1,772.713,378.138Z" transform="translate(-749.504 -358.916)" fill="#baa3c2"/>
        <path id="Path_2" data-name="Path 2" d="M771.86,378.934l0,.01-.076.025,0-.011a.053.053,0,0,1,.076-.024Z" transform="translate(-748.987 -359.603)" fill="#d7c9dc"/>
        <path id="Path_3" data-name="Path 3" d="M673.622,293.971l-.076.024a3.725,3.725,0,0,1-2.637-.263,5.768,5.768,0,0,1-1.792-1.4,6.673,6.673,0,0,1-.845-1.156.515.515,0,0,0-.03-.046c-.086-.117-.169-.115-.247.008a.211.211,0,0,1-.051.061,3.233,3.233,0,0,1-1.1.561,1.87,1.87,0,0,1-1.158-.014.387.387,0,0,0-.5.185,1.345,1.345,0,0,1-.433.431,3.937,3.937,0,0,1-1.179.566,4.64,4.64,0,0,1-1.164.163,3.765,3.765,0,0,1-1.712-.334,3.363,3.363,0,0,1-1.511-1.388,1.162,1.162,0,0,1-.114-.381,3.744,3.744,0,0,1-.046-1.238,2.93,2.93,0,0,1,1.256-2.03,4.329,4.329,0,0,1,1.1-.539c.538-.193,1.079-.381,1.605-.6a4.892,4.892,0,0,0,2.226-1.706,3.189,3.189,0,0,0,.6-1.9c0-.065-.014-.13-.02-.2a.713.713,0,0,1,.249-.6,1.848,1.848,0,0,1,.553-.334,5.736,5.736,0,0,1,1.042-.362,3.643,3.643,0,0,1,2.524.282,4.694,4.694,0,0,1,1.866,1.743l.076.122a.344.344,0,0,1-.025.381.587.587,0,0,1-.179.173,1.67,1.67,0,0,0-.67.875,2.447,2.447,0,0,0-.105,1.219,3.567,3.567,0,0,0,.275.961.533.533,0,0,0,.657.3.223.223,0,0,0,.169-.221.634.634,0,0,0-.1-.385,1.752,1.752,0,0,1-.325-1.1,1.727,1.727,0,0,1,.718-1.3,2.635,2.635,0,0,1,1.491-.562,2.4,2.4,0,0,1,1.676.6.741.741,0,0,1,.158.266,3.446,3.446,0,0,1,.062,2.931,6.367,6.367,0,0,1-1.363,2,8.34,8.34,0,0,1-.964.859,1.771,1.771,0,0,1-.158.105.866.866,0,0,0-.453.734,1.42,1.42,0,0,0,.392,1.121,1.815,1.815,0,0,0,.686.4,2.831,2.831,0,0,0,.5.13.481.481,0,0,1,.19.069.152.152,0,0,1,.059.2.37.37,0,0,1-.166.172,5.232,5.232,0,0,1-.67.309Z" transform="translate(-650.749 -274.64)" fill="url(#linear-gradient)"/>
        <path id="Path_4" data-name="Path 4" d="M595.307,275.9a5.779,5.779,0,0,1-.254-2.118,3.541,3.541,0,0,1,.548-1.689,2.535,2.535,0,0,1,.194-.251.626.626,0,0,0,.184-.466,5.007,5.007,0,0,1,.97-3.368,5.239,5.239,0,0,1,1.378-1.393,3.253,3.253,0,0,1,2.324-.518,5.4,5.4,0,0,1,1.666.525,8.719,8.719,0,0,1,1.911,1.275c.033.028.063.058.094.088a.449.449,0,0,0,.651.042,4.19,4.19,0,0,1,1.524-.762,2.514,2.514,0,0,1,1.774.091,1.973,1.973,0,0,1,.594.408,1.78,1.78,0,0,1,.311.489,2.577,2.577,0,0,1,.254,1.545,3.167,3.167,0,0,1-.5,1.276,5.144,5.144,0,0,1-1.556,1.55,1.9,1.9,0,0,1-.832.277,4.5,4.5,0,0,0-2.369,1.014,5.017,5.017,0,0,0-1.13,1.286,1.029,1.029,0,0,0-.064.12.286.286,0,0,1-.39.177c-.139-.046-.273-.108-.411-.158a6.04,6.04,0,0,0-2.4-.381,5.113,5.113,0,0,0-3.263,1.407,3.777,3.777,0,0,0-.457.5.537.537,0,0,1-.124.123.145.145,0,0,1-.242-.066,8.952,8.952,0,0,1-.387-1.028Z" transform="translate(-595.039 -261.297)" fill="url(#linear-gradient-2)"/>
        <path id="Path_5" data-name="Path 5" d="M638.327,230.5a6.193,6.193,0,0,1,2.3-.277.257.257,0,0,1,.111.023.625.625,0,0,0,.719-.05,2.6,2.6,0,0,1,.447-.25,9.994,9.994,0,0,1,1.35-.525,6.436,6.436,0,0,1,2.578-.293,4.519,4.519,0,0,1,1.6.469A4.158,4.158,0,0,1,649.038,231a2.613,2.613,0,0,1,.33.838,1.748,1.748,0,0,1,.038.665,1.365,1.365,0,0,1-.757,1.042,1.982,1.982,0,0,1-.4.131,1.422,1.422,0,0,0-1.083,1.277c0,.056.006.112,0,.168a.2.2,0,0,1-.194.213,3.279,3.279,0,0,0-1.011.313c-.173.076-.337.174-.505.26a.5.5,0,0,1-.487.023.452.452,0,0,1-.147-.137,4.218,4.218,0,0,0-1.039-1.019,2.819,2.819,0,0,0-2.151-.443,3.71,3.71,0,0,0-1.582.7.406.406,0,0,1-.435.043.754.754,0,0,1-.215-.14,6.222,6.222,0,0,0-2.55-1.409,6.6,6.6,0,0,0-1.274-.25.709.709,0,0,1-.191-.043.208.208,0,0,1-.118-.33c.053-.089.11-.176.168-.262a5.417,5.417,0,0,1,2.88-2.148Z" transform="translate(-630.054 -229.101)" fill="url(#linear-gradient-3)"/>
        <path id="Path_6" data-name="Path 6" d="M742.2,249.39a8.138,8.138,0,0,1,.36,2.327.7.7,0,0,1-.019.194.163.163,0,0,1-.233.124.3.3,0,0,1-.076-.034,1.808,1.808,0,0,0-.99-.27,4.924,4.924,0,0,0-1.528.216.223.223,0,0,1-.318-.168,1.482,1.482,0,0,0-.162-.4,4.692,4.692,0,0,0-1.353-1.607,3.694,3.694,0,0,0-1.592-.7.513.513,0,0,0-.148,0,.662.662,0,0,1-.135,0,.318.318,0,0,1-.3-.363.743.743,0,0,1,.286-.54,1.768,1.768,0,0,1,.515-.3.245.245,0,0,0,.055-.026,2.473,2.473,0,0,0,.9-1.182,2.15,2.15,0,0,0,.018-1.4.54.54,0,0,1-.024-.12c-.012-.126.046-.185.175-.178a1.327,1.327,0,0,1,.312.085,6.051,6.051,0,0,1,3.779,3.131A7.912,7.912,0,0,1,742.2,249.39Z" transform="translate(-717.556 -242.925)" fill="url(#linear-gradient-4)"/>
        <path id="Path_7" data-name="Path 7" d="M607.586,340.105a4.652,4.652,0,0,1,2.092-.165,5.837,5.837,0,0,1,1.71.52c.259.124.311.289.283.447a1.988,1.988,0,0,0-.033.43,6.951,6.951,0,0,0,.152,1.092,3.141,3.141,0,0,1,.087.354.266.266,0,0,1-.117.27,5.426,5.426,0,0,1-1.54.686,4.625,4.625,0,0,1-2.971-.2,5.486,5.486,0,0,1-1.676-1.054,1.04,1.04,0,0,1-.171-.162.469.469,0,0,1-.053-.421,1.108,1.108,0,0,1,.235-.416,4.737,4.737,0,0,1,1.454-1.15A4.85,4.85,0,0,1,607.586,340.105Z" transform="translate(-603.998 -325.602)" fill="url(#linear-gradient-5)"/>
      </g>
      <path id="Path_1115" data-name="Path 1115" d="M8.391-25.139a5.353,5.353,0,0,0,5.14-3.482h-.67a4.755,4.755,0,0,1-4.467,2.848,4.923,4.923,0,0,1-3.563-1.473,4.923,4.923,0,0,1-1.409-3.589,4.9,4.9,0,0,1,1.4-3.594A4.9,4.9,0,0,1,8.391-35.9a4.7,4.7,0,0,1,4.441,2.819h.66a5.265,5.265,0,0,0-5.1-3.452,5.529,5.529,0,0,0-4.036,1.641,5.529,5.529,0,0,0-1.594,4.054,5.557,5.557,0,0,0,1.6,4.046,5.557,5.557,0,0,0,4.029,1.648Zm17.844-5.772a5.365,5.365,0,0,0-1.487-3.969,5.365,5.365,0,0,0-3.9-1.651,5.485,5.485,0,0,0-3.957,1.671,5.485,5.485,0,0,0-1.54,4.01,5.49,5.49,0,0,0,1.529,4.03,5.49,5.49,0,0,0,3.968,1.684,5.4,5.4,0,0,0,5.046-3.34H25.2a4.758,4.758,0,0,1-4.355,2.7A4.82,4.82,0,0,1,17.4-27.192a4.82,4.82,0,0,1-1.41-3.445H26.225c.005-.086.01-.19.01-.274Zm-5.39-5A4.706,4.706,0,0,1,25.6-31.252H16a4.8,4.8,0,0,1,4.845-4.655Zm12.848-.442A4.076,4.076,0,0,0,29.8-33.834l-.106-2.484h-.513v10.965h.65v-6.171c0-2.426,1.533-4.2,3.823-4.2h.982v-.625Zm8.828-.183a5.459,5.459,0,0,0-4.975,3.006v-6.666H36.9v14.838h.543l.094-2.819a5.461,5.461,0,0,0,4.987,3.033,5.466,5.466,0,0,0,4.019-1.642A5.466,5.466,0,0,0,48.1-30.834a5.463,5.463,0,0,0-1.554-4.055,5.463,5.463,0,0,0-4.02-1.641Zm-.04,10.757a4.917,4.917,0,0,1-3.563-1.472,4.917,4.917,0,0,1-1.406-3.589,4.9,4.9,0,0,1,1.4-3.594A4.9,4.9,0,0,1,42.481-35.9a4.85,4.85,0,0,1,3.573,1.457,4.85,4.85,0,0,1,1.379,3.6,4.85,4.85,0,0,1-1.378,3.6,4.85,4.85,0,0,1-3.573,1.457Zm13.376.635a5.561,5.561,0,0,0,4.075-1.623,5.561,5.561,0,0,0,1.631-4.072,5.561,5.561,0,0,0-1.631-4.072,5.561,5.561,0,0,0-4.075-1.623,5.556,5.556,0,0,0-4.077,1.622,5.556,5.556,0,0,0-1.629,4.074,5.568,5.568,0,0,0,1.634,4.071,5.568,5.568,0,0,0,4.076,1.624Zm0-.635a4.931,4.931,0,0,1-3.609-1.448,4.931,4.931,0,0,1-1.437-3.613,4.913,4.913,0,0,1,1.431-3.618A4.913,4.913,0,0,1,55.857-35.9a4.922,4.922,0,0,1,3.611,1.445A4.922,4.922,0,0,1,60.9-30.835a4.922,4.922,0,0,1-1.433,3.614,4.922,4.922,0,0,1-3.609,1.447Zm11.879.635c2.482,0,4.138-1.249,4.138-3.137,0-2.432-2.173-2.819-4.092-3.143-1.787-.3-3.37-.564-3.37-2.209,0-1.38,1.289-2.3,3.244-2.3,1.985,0,3.2.919,3.3,2.467h.625c-.107-1.893-1.589-3.066-3.919-3.066-2.314,0-3.885,1.178-3.885,2.919,0,2.152,1.959,2.493,3.858,2.819,1.807.3,3.594.64,3.594,2.538,0,1.518-1.386,2.5-3.477,2.5-2.071,0-3.381-.944-3.553-2.584h-.64c.174,1.991,1.71,3.2,4.177,3.2ZM83.087-36.318l-4.478,9.627-4.74-9.627h-.721l5.12,10.355-.666,1.4c-.949,2.02-1.7,2.482-3.2,2.482h-.82v.6h.858c1.746,0,2.7-.635,3.757-2.909l5.589-11.93Zm6.071,11.178c2.482,0,4.138-1.249,4.138-3.137,0-2.432-2.173-2.819-4.092-3.143-1.787-.3-3.37-.564-3.37-2.209,0-1.38,1.289-2.3,3.244-2.3,1.985,0,3.2.919,3.3,2.467h.625c-.107-1.893-1.589-3.066-3.919-3.066-2.314,0-3.885,1.178-3.885,2.919,0,2.152,1.959,2.493,3.858,2.819,1.807.3,3.594.64,3.594,2.538,0,1.518-1.386,2.5-3.477,2.5-2.071,0-3.381-.944-3.553-2.584h-.64c.172,1.991,1.71,3.2,4.177,3.2Z" transform="translate(-2.756 59.443)" fill="#fff"/>
    </g>
  </g>
</svg>
