<svg xmlns="http://www.w3.org/2000/svg" xmlns:xlink="http://www.w3.org/1999/xlink" width="118.841" height="49.837" viewBox="0 0 118.841 49.837">
  <defs>
    <linearGradient id="linear-gradient" x1="0.105" y1="-0.035" x2="0.407" y2="1.253" gradientUnits="objectBoundingBox">
      <stop offset="0" stop-color="#f48302"/>
      <stop offset="1" stop-color="#e75627"/>
    </linearGradient>
    <linearGradient id="linear-gradient-2" x1="-0.262" y1="0.144" x2="0.817" y2="0.144" gradientUnits="objectBoundingBox">
      <stop offset="0" stop-color="#18194c"/>
      <stop offset="1" stop-color="#00538c"/>
    </linearGradient>
    <linearGradient id="linear-gradient-3" x1="0.426" y1="-0.12" x2="0.4" y2="0.863" gradientUnits="objectBoundingBox">
      <stop offset="0" stop-color="#3e0f51"/>
      <stop offset="1" stop-color="#703d85"/>
    </linearGradient>
    <linearGradient id="linear-gradient-4" x1="-0.327" y1="0.782" x2="0.549" y2="0.782" gradientUnits="objectBoundingBox">
      <stop offset="0" stop-color="#5ba921"/>
      <stop offset="1" stop-color="#147f00"/>
    </linearGradient>
    <linearGradient id="linear-gradient-5" x1="-0.191" y1="-1.271" x2="-0.264" y2="0.339" gradientUnits="objectBoundingBox">
      <stop offset="0" stop-color="#e7401d"/>
      <stop offset="1" stop-color="#aa0021"/>
    </linearGradient>
    <linearGradient id="linear-gradient-6" x1="0" y1="0.5" x2="1" y2="0.5" xlink:href="#linear-gradient-2"/>
  </defs>
  <g id="Layer_2" data-name="Layer 2" transform="translate(-321.571 -229.096)">
    <g id="Group_2" data-name="Group 2" transform="translate(321.571 229.096)">
      <g id="Group_1" data-name="Group 1" transform="translate(44.902)">
        <path id="Path_1" data-name="Path 1" d="M772.82,378.138a.022.022,0,0,0,0,.016l-.441.141a.021.021,0,0,1,0-.03A.926.926,0,0,1,772.82,378.138Z" transform="translate(-742.35 -352.902)" fill="#baa3c2"/>
        <path id="Path_2" data-name="Path 2" d="M771.884,378.936l.005.013-.1.033-.005-.014A.069.069,0,0,1,771.884,378.936Z" transform="translate(-741.856 -353.557)" fill="#d7c9dc"/>
        <path id="Path_3" data-name="Path 3" d="M678.194,297.909l-.1.032a4.889,4.889,0,0,1-3.461-.345,7.572,7.572,0,0,1-2.352-1.837,8.763,8.763,0,0,1-1.109-1.517.673.673,0,0,0-.039-.06c-.113-.154-.222-.151-.324.011a.279.279,0,0,1-.067.08,4.244,4.244,0,0,1-1.44.736,2.454,2.454,0,0,1-1.52-.019.508.508,0,0,0-.657.243,1.766,1.766,0,0,1-.569.566,5.168,5.168,0,0,1-1.548.743,6.085,6.085,0,0,1-1.528.214,4.94,4.94,0,0,1-2.247-.439,4.414,4.414,0,0,1-1.984-1.822,1.524,1.524,0,0,1-.15-.5,4.915,4.915,0,0,1-.06-1.625,3.846,3.846,0,0,1,1.649-2.665,5.683,5.683,0,0,1,1.448-.707c.706-.253,1.416-.5,2.107-.786a6.421,6.421,0,0,0,2.922-2.239,4.185,4.185,0,0,0,.785-2.494c0-.085-.018-.17-.026-.256a.936.936,0,0,1,.327-.791,2.427,2.427,0,0,1,.726-.438,7.526,7.526,0,0,1,1.367-.475,4.782,4.782,0,0,1,3.313.37,6.162,6.162,0,0,1,2.45,2.288c.033.052.066.105.1.16a.452.452,0,0,1-.033.5.769.769,0,0,1-.235.227,2.191,2.191,0,0,0-.88,1.149,3.212,3.212,0,0,0-.138,1.6,4.688,4.688,0,0,0,.361,1.261.7.7,0,0,0,.863.4.292.292,0,0,0,.222-.29.832.832,0,0,0-.135-.506,2.3,2.3,0,0,1-.426-1.448,2.268,2.268,0,0,1,.942-1.712,3.458,3.458,0,0,1,1.957-.738,3.149,3.149,0,0,1,2.2.787.973.973,0,0,1,.207.349,4.523,4.523,0,0,1,.081,3.847,8.357,8.357,0,0,1-1.789,2.62,10.934,10.934,0,0,1-1.265,1.128,2.324,2.324,0,0,1-.207.138,1.137,1.137,0,0,0-.594.964,1.864,1.864,0,0,0,.514,1.472,2.381,2.381,0,0,0,.9.524,3.719,3.719,0,0,0,.662.17.63.63,0,0,1,.249.09.2.2,0,0,1,.078.269.486.486,0,0,1-.218.226,6.872,6.872,0,0,1-.879.406Z" transform="translate(-648.166 -272.529)" fill="url(#linear-gradient)"/>
        <path id="Path_4" data-name="Path 4" d="M595.39,278.975a7.586,7.586,0,0,1-.334-2.78,4.647,4.647,0,0,1,.72-2.217,3.316,3.316,0,0,1,.255-.33.821.821,0,0,0,.242-.612,6.572,6.572,0,0,1,1.273-4.421,6.879,6.879,0,0,1,1.809-1.828,4.27,4.27,0,0,1,3.05-.68,7.093,7.093,0,0,1,2.187.689,11.447,11.447,0,0,1,2.508,1.673c.043.037.083.076.123.115a.589.589,0,0,0,.855.055,5.5,5.5,0,0,1,2-1,3.3,3.3,0,0,1,2.329.119,2.59,2.59,0,0,1,.78.536,2.339,2.339,0,0,1,.408.642,3.383,3.383,0,0,1,.333,2.028,4.157,4.157,0,0,1-.659,1.675,6.754,6.754,0,0,1-2.042,2.035,2.5,2.5,0,0,1-1.092.364,5.9,5.9,0,0,0-3.11,1.331,6.585,6.585,0,0,0-1.483,1.688,1.353,1.353,0,0,0-.084.157.376.376,0,0,1-.512.233c-.183-.06-.358-.142-.539-.207a7.927,7.927,0,0,0-3.146-.5,6.712,6.712,0,0,0-4.283,1.847,4.959,4.959,0,0,0-.6.662.707.707,0,0,1-.163.162.19.19,0,0,1-.317-.086A11.769,11.769,0,0,1,595.39,278.975Z" transform="translate(-595.035 -259.804)" fill="url(#linear-gradient-2)"/>
        <path id="Path_5" data-name="Path 5" d="M639.295,230.936a8.129,8.129,0,0,1,3.016-.363.337.337,0,0,1,.146.03.821.821,0,0,0,.944-.066,3.417,3.417,0,0,1,.587-.328,13.134,13.134,0,0,1,1.772-.689,8.449,8.449,0,0,1,3.384-.385,5.932,5.932,0,0,1,2.1.616,5.458,5.458,0,0,1,2.111,1.847,3.43,3.43,0,0,1,.433,1.1,2.294,2.294,0,0,1,.05.873,1.791,1.791,0,0,1-.994,1.368,2.6,2.6,0,0,1-.521.172,1.866,1.866,0,0,0-1.421,1.676c-.006.073.008.147.006.221a.266.266,0,0,1-.254.28,4.305,4.305,0,0,0-1.327.411c-.227.1-.442.228-.663.341a.655.655,0,0,1-.639.03.592.592,0,0,1-.193-.18,5.536,5.536,0,0,0-1.364-1.337,3.7,3.7,0,0,0-2.824-.582,4.87,4.87,0,0,0-2.077.92.533.533,0,0,1-.571.057.99.99,0,0,1-.282-.184,8.168,8.168,0,0,0-3.347-1.849,8.655,8.655,0,0,0-1.672-.328.93.93,0,0,1-.251-.057.273.273,0,0,1-.155-.433c.069-.117.145-.231.221-.344a7.111,7.111,0,0,1,3.78-2.82Z" transform="translate(-628.431 -229.096)" fill="url(#linear-gradient-3)"/>
        <path id="Path_6" data-name="Path 6" d="M744.232,250.773a10.681,10.681,0,0,1,.472,3.055.916.916,0,0,1-.025.255.214.214,0,0,1-.306.163.4.4,0,0,1-.1-.044,2.373,2.373,0,0,0-1.3-.355,6.465,6.465,0,0,0-2.006.284.293.293,0,0,1-.417-.221,1.946,1.946,0,0,0-.213-.523,6.158,6.158,0,0,0-1.776-2.109,4.849,4.849,0,0,0-2.09-.916.673.673,0,0,0-.194,0,.873.873,0,0,1-.177,0,.418.418,0,0,1-.4-.477.975.975,0,0,1,.376-.709,2.323,2.323,0,0,1,.676-.4.319.319,0,0,0,.072-.034,3.246,3.246,0,0,0,1.185-1.552,2.822,2.822,0,0,0,.023-1.832A.714.714,0,0,1,738,245.2c-.016-.166.061-.243.23-.234a1.74,1.74,0,0,1,.41.112,7.942,7.942,0,0,1,4.961,4.11A10.382,10.382,0,0,1,744.232,250.773Z" transform="translate(-711.881 -242.282)" fill="url(#linear-gradient-4)"/>
        <path id="Path_7" data-name="Path 7" d="M608.294,340.173a6.106,6.106,0,0,1,2.746-.217,7.662,7.662,0,0,1,2.244.683c.34.163.408.38.371.587a2.615,2.615,0,0,0-.043.565,9.127,9.127,0,0,0,.2,1.433c.031.157.1.3.114.465a.349.349,0,0,1-.153.355,7.121,7.121,0,0,1-2.021.9,6.071,6.071,0,0,1-3.9-.269,7.2,7.2,0,0,1-2.2-1.383,1.366,1.366,0,0,1-.224-.213.616.616,0,0,1-.069-.552,1.455,1.455,0,0,1,.308-.546,6.217,6.217,0,0,1,1.909-1.51A6.378,6.378,0,0,1,608.294,340.173Z" transform="translate(-603.579 -321.13)" fill="url(#linear-gradient-5)"/>
      </g>
      <path id="Path_1115" data-name="Path 1115" d="M10.153-20.434A7.026,7.026,0,0,0,16.9-25.005h-.88a6.241,6.241,0,0,1-5.864,3.738A6.462,6.462,0,0,1,3.63-27.911a6.434,6.434,0,0,1,6.523-6.643,6.167,6.167,0,0,1,5.83,3.7h.866a6.911,6.911,0,0,0-6.7-4.531,7.258,7.258,0,0,0-7.39,7.476A7.294,7.294,0,0,0,10.153-20.434Zm23.422-7.576A7.042,7.042,0,0,0,26.5-35.387a7.2,7.2,0,0,0-7.216,7.456,7.206,7.206,0,0,0,7.216,7.5,7.081,7.081,0,0,0,6.623-4.384h-.906A6.245,6.245,0,0,1,26.5-21.274a6.327,6.327,0,0,1-6.372-6.377H33.562C33.569-27.764,33.575-27.9,33.575-28.011ZM26.5-34.567a6.177,6.177,0,0,1,6.236,6.11H20.14a6.3,6.3,0,0,1,6.359-6.11Zm16.865-.58a5.35,5.35,0,0,0-5.112,3.3l-.139-3.261H37.44v14.393h.853v-8.1c0-3.185,2.012-5.511,5.018-5.511H44.6v-.82Zm11.588-.24a7.165,7.165,0,0,0-6.53,3.946v-8.75h-.853v19.477h.713l.124-3.7a7.168,7.168,0,0,0,6.546,3.981,7.175,7.175,0,0,0,7.316-7.476,7.171,7.171,0,0,0-7.316-7.476ZM54.9-21.267a6.454,6.454,0,0,1-6.523-6.643A6.438,6.438,0,0,1,54.9-34.554a6.366,6.366,0,0,1,6.5,6.643A6.366,6.366,0,0,1,54.9-21.267Zm17.558.833a7.3,7.3,0,0,0,7.49-7.476,7.3,7.3,0,0,0-7.49-7.476,7.293,7.293,0,0,0-7.49,7.476A7.309,7.309,0,0,0,72.463-20.434Zm0-.833a6.472,6.472,0,0,1-6.623-6.643,6.449,6.449,0,0,1,6.623-6.643,6.461,6.461,0,0,1,6.623,6.643A6.461,6.461,0,0,1,72.463-21.267Zm15.592.833c3.258,0,5.431-1.639,5.431-4.118,0-3.192-2.852-3.7-5.371-4.125-2.346-.393-4.424-.74-4.424-2.9,0-1.812,1.692-3.025,4.258-3.025,2.605,0,4.2,1.206,4.338,3.238h.82c-.14-2.485-2.086-4.025-5.144-4.025-3.038,0-5.1,1.546-5.1,3.831,0,2.825,2.572,3.272,5.064,3.7,2.372.4,4.718.84,4.718,3.332,0,1.992-1.819,3.285-4.564,3.285-2.719,0-4.438-1.239-4.664-3.392h-.84C82.8-22.02,84.816-20.434,88.055-20.434ZM108.2-35.107,102.322-22.47,96.1-35.107h-.946l6.72,13.592L101-19.681c-1.246,2.652-2.226,3.258-4.2,3.258H95.724v.793H96.85c2.292,0,3.538-.833,4.931-3.818l7.336-15.659Zm7.969,14.673c3.258,0,5.431-1.639,5.431-4.118,0-3.192-2.852-3.7-5.371-4.125-2.346-.393-4.424-.74-4.424-2.9,0-1.812,1.692-3.025,4.258-3.025,2.605,0,4.2,1.206,4.338,3.238h.82c-.14-2.485-2.086-4.025-5.144-4.025-3.038,0-5.1,1.546-5.1,3.831,0,2.825,2.572,3.272,5.064,3.7,2.372.4,4.718.84,4.718,3.332,0,1.992-1.819,3.285-4.564,3.285-2.719,0-4.438-1.239-4.664-3.392h-.84C110.917-22.02,112.936-20.434,116.174-20.434Z" transform="translate(-2.764 65.467)" fill="#01518a"/>
      <circle id="Ellipse_1" data-name="Ellipse 1" cx="2.895" cy="2.895" r="2.895" transform="translate(49.65 38.116)" fill="url(#linear-gradient-6)"/>
      <circle id="Ellipse_2" data-name="Ellipse 2" cx="2.895" cy="2.895" r="2.895" transform="translate(67.629 38.116)" fill="url(#linear-gradient-6)"/>
    </g>
  </g>
</svg>
