<svg xmlns="http://www.w3.org/2000/svg" xmlns:xlink="http://www.w3.org/1999/xlink" width="319.92" height="51.712" viewBox="0 0 319.92 51.712">
  <defs>
    <linearGradient id="linear-gradient" x1="0.105" y1="-0.035" x2="0.407" y2="1.253" gradientUnits="objectBoundingBox">
      <stop offset="0" stop-color="#f48302"/>
      <stop offset="1" stop-color="#e75627"/>
    </linearGradient>
    <linearGradient id="linear-gradient-2" x1="-0.262" y1="0.144" x2="0.817" y2="0.144" gradientUnits="objectBoundingBox">
      <stop offset="0" stop-color="#18194c"/>
      <stop offset="1" stop-color="#00538c"/>
    </linearGradient>
    <linearGradient id="linear-gradient-3" x1="0.426" y1="-0.12" x2="0.4" y2="0.863" gradientUnits="objectBoundingBox">
      <stop offset="0" stop-color="#3e0f51"/>
      <stop offset="1" stop-color="#703d85"/>
    </linearGradient>
    <linearGradient id="linear-gradient-4" x1="-0.327" y1="0.782" x2="0.549" y2="0.782" gradientUnits="objectBoundingBox">
      <stop offset="0" stop-color="#5ba921"/>
      <stop offset="1" stop-color="#147f00"/>
    </linearGradient>
    <linearGradient id="linear-gradient-5" x1="-0.191" y1="-1.271" x2="-0.264" y2="0.339" gradientUnits="objectBoundingBox">
      <stop offset="0" stop-color="#e7401d"/>
      <stop offset="1" stop-color="#aa0021"/>
    </linearGradient>
    <linearGradient id="linear-gradient-6" x1="0" y1="0.5" x2="1" y2="0.5" xlink:href="#linear-gradient-2"/>
  </defs>
  <g id="footerImage" transform="translate(-590 -1894.581)">
    <g id="Group_50" data-name="Group 50" transform="translate(216 1629.848)">
      <path id="Path_82" data-name="Path 82" d="M0,0H44.949V32.445H0Z" transform="translate(374 284)" fill="rgba(255,255,255,0)"/>
      <path id="Path_83" data-name="Path 83" d="M8538.983,600.8a7.991,7.991,0,0,1-2.983-.576v-4.588a4.468,4.468,0,0,0,2.983,1.158,4.891,4.891,0,0,0,0-9.766,4.469,4.469,0,0,0-2.983,1.159V583.56a8.01,8.01,0,0,1,6.26.124,8.281,8.281,0,0,1,1.43.821,8.582,8.582,0,0,1,1.245,1.088,8.691,8.691,0,0,1,1.028,1.318,9.158,9.158,0,0,1,.777,1.513,9.3,9.3,0,0,1,.488,1.672,9.449,9.449,0,0,1,0,3.591,9.3,9.3,0,0,1-.488,1.672,9.15,9.15,0,0,1-.777,1.513,8.685,8.685,0,0,1-1.028,1.318,8.582,8.582,0,0,1-1.245,1.088,8.281,8.281,0,0,1-1.43.821A8,8,0,0,1,8538.983,600.8Z" transform="translate(-8130.535 -288.482)" fill="#273773"/>
      <rect id="Rectangle_23" data-name="Rectangle 23" width="17.75" height="4.329" transform="translate(377.464 287.247)" fill="#273773"/>
      <path id="Path_78" data-name="Path 78" d="M0,0H7.255L8.336,1.207v18.04H0Z" transform="translate(382.213 293.317)" fill="#273773"/>
      <path id="Path_77" data-name="Path 77" d="M9.859-17.9l1.063,1.2-1.136-.2Z" transform="translate(379.611 311.221)" fill="#fedd04"/>
      <g id="Group_49" data-name="Group 49" transform="translate(384.174 297.637)">
        <rect id="Rectangle_25" data-name="Rectangle 25" width="4.113" height="0.216" transform="translate(0 0)" fill="#fedd04"/>
        <rect id="Rectangle_25-2" data-name="Rectangle 25" width="4.113" height="0.216" transform="translate(0 1.082)" fill="#fedd04"/>
        <rect id="Rectangle_25-3" data-name="Rectangle 25" width="4.113" height="0.216" transform="translate(0 2.381)" fill="#fedd04"/>
        <rect id="Rectangle_25-4" data-name="Rectangle 25" width="4.113" height="0.216" transform="translate(0 3.463)" fill="#fedd04"/>
        <rect id="Rectangle_25-5" data-name="Rectangle 25" width="4.113" height="0.216" transform="translate(0 4.762)" fill="#fedd04"/>
        <rect id="Rectangle_25-6" data-name="Rectangle 25" width="4.113" height="0.216" transform="translate(0 5.845)" fill="#fedd04"/>
      </g>
      <path id="Path_80" data-name="Path 80" d="M-46.109,1.115A8.331,8.331,0,0,1-43.783.306a11.959,11.959,0,0,1,2.75-.077l.185.169V2.484l-.252.242a6.534,6.534,0,0,0-2.63.293,3.038,3.038,0,0,0-1.047.678,1.346,1.346,0,0,0-.314.8A1.038,1.038,0,0,0-45,4.983a.854.854,0,0,0,.347.308,3.845,3.845,0,0,0,1.548.539,7.991,7.991,0,0,0,2.049-.123l.21.169V8.164a6.787,6.787,0,0,1-1.647.157,9.639,9.639,0,0,1-3.613-.552,3.151,3.151,0,0,1-1.707-1.588,4.394,4.394,0,0,1-.3-1.874,3.959,3.959,0,0,1,.807-2.161A3.537,3.537,0,0,1-46.109,1.115Z" transform="translate(439.233 304.011)" fill="#273773"/>
      <path id="Path_79" data-name="Path 79" d="M-48.472-31.916l-.011,3.239a3.139,3.139,0,0,0-1.167.319.963.963,0,0,0-.328.292.7.7,0,0,0-.082.337l-.273.123-2.884,0-.217-.2v-.147a3.717,3.717,0,0,1,1.236-2.7,5.924,5.924,0,0,1,1.932-1.051A5.921,5.921,0,0,1-48.472-31.916Z" transform="translate(445.274 331.289)" fill="#273773"/>
      <path id="Path_93" data-name="Path 93" d="M0,0H5.23V23.21H0Z" transform="translate(399.049 289.108)" fill="#273773"/>
      <path id="Path_88" data-name="Path 88" d="M0,.627A.73.73,0,0,1,.071.3a.516.516,0,0,1,.2-.222A.592.592,0,0,1,.581,0,.56.56,0,0,1,.988.153a.612.612,0,0,1,.176.414l0,.084a.643.643,0,0,1-.158.454.549.549,0,0,1-.424.171.552.552,0,0,1-.425-.171A.655.655,0,0,1,0,.642ZM.329.65A.46.46,0,0,0,.395.919a.218.218,0,0,0,.189.093A.218.218,0,0,0,.77.92.5.5,0,0,0,.837.626.455.455,0,0,0,.77.36.218.218,0,0,0,.581.265.215.215,0,0,0,.395.359.512.512,0,0,0,.329.65Z" transform="translate(413.147 298.312) rotate(47)" fill="#fedd04"/>
      <path id="Path_84" data-name="Path 84" d="M.349,1.719H.019V.488h.33ZM0,.17A.162.162,0,0,1,.05.048.186.186,0,0,1,.184,0,.186.186,0,0,1,.319.048.161.161,0,0,1,.369.17.161.161,0,0,1,.318.293.187.187,0,0,1,.184.34.187.187,0,0,1,.051.293.161.161,0,0,1,0,.17Z" transform="translate(415.872 302.455) rotate(77.993)" fill="#fedd04"/>
      <path id="Path_85" data-name="Path 85" d="M.33,1.747H0V0H.33Z" transform="translate(415.941 303.439) rotate(85)" fill="#fedd04"/>
      <path id="Path_87" data-name="Path 87" d="M.33,1.747H0V0H.33Z" transform="translate(415.971 304.495) rotate(96.024)" fill="#fedd04"/>
      <path id="Path_89" data-name="Path 89" d="M.349,1.719H.019V.488h.33ZM0,.17A.162.162,0,0,1,.05.048.186.186,0,0,1,.184,0,.186.186,0,0,1,.319.048.161.161,0,0,1,.369.17.161.161,0,0,1,.318.293.187.187,0,0,1,.184.34.187.187,0,0,1,.051.293.161.161,0,0,1,0,.17Z" transform="translate(415.72 305.445) rotate(101)" fill="#fedd04"/>
      <path id="Path_90" data-name="Path 90" d="M.309.023.32.165A.43.43,0,0,1,.673,0,.357.357,0,0,1,.964.115a.536.536,0,0,1,.1.343v.795H.734V.467A.213.213,0,0,0,.688.315.2.2,0,0,0,.537.268.226.226,0,0,0,.329.386v.868H0V.023Z" transform="matrix(-0.326, 0.946, -0.946, -0.326, 414.92, 306.371)" fill="#fedd04"/>
      <path id="Path_92" data-name="Path 92" d="M0,.629A.721.721,0,0,1,.135.173.437.437,0,0,1,.5,0,.383.383,0,0,1,.813.139L.827.023h.3v1.19a.526.526,0,0,1-.074.281.471.471,0,0,1-.206.182.726.726,0,0,1-.312.063A.675.675,0,0,1,.27,1.684a.468.468,0,0,1-.195-.139l.146-.2a.385.385,0,0,0,.3.138.282.282,0,0,0,.2-.07.262.262,0,0,0,.073-.2V1.148a.38.38,0,0,1-.3.129A.436.436,0,0,1,.137,1.1.721.721,0,0,1,0,.643ZM.329.654A.449.449,0,0,0,.4.916a.213.213,0,0,0,.184.1A.228.228,0,0,0,.795.9V.381A.228.228,0,0,0,.582.268.215.215,0,0,0,.4.365.506.506,0,0,0,.329.654Z" transform="translate(414.265 307.91) rotate(115)" fill="#fedd04"/>
      <path id="Path_86" data-name="Path 86" d="M0,1.656V0H.58a.762.762,0,0,1,.457.115.4.4,0,0,1,.156.338A.374.374,0,0,1,1.13.668.361.361,0,0,1,.956.8a.35.35,0,0,1,.2.129.38.38,0,0,1,.074.237.437.437,0,0,1-.152.362.686.686,0,0,1-.435.125ZM.341.935v.447H.634a.282.282,0,0,0,.188-.057.2.2,0,0,0,.068-.159A.208.208,0,0,0,.654.935Zm0-.241H.594Q.852.689.852.488A.19.19,0,0,0,.786.326.344.344,0,0,0,.58.276H.341Z" transform="matrix(0.276, 0.961, -0.961, 0.276, 415.329, 300.729)" fill="#fedd04"/>
      <path id="Path_91" data-name="Path 91" d="M1.351,1.47a.592.592,0,0,1-.26.171A1.091,1.091,0,0,1,.718,1.7a.739.739,0,0,1-.377-.094.626.626,0,0,1-.25-.272A.959.959,0,0,1,0,.916V.8A1.018,1.018,0,0,1,.084.374.618.618,0,0,1,.325.1.7.7,0,0,1,.694,0a.692.692,0,0,1,.461.14.6.6,0,0,1,.2.409H1.019a.33.33,0,0,0-.1-.208A.321.321,0,0,0,.7.275.3.3,0,0,0,.439.406.687.687,0,0,0,.347.8V.9a.655.655,0,0,0,.1.394.339.339,0,0,0,.29.133.379.379,0,0,0,.274-.082V1.06H.7V.809h.652Z" transform="translate(412.206 296.744) rotate(47)" fill="#fedd04"/>
    </g>
    <text id="Invoice_powered_by" data-name="Invoice powered by" transform="translate(641 1939)" font-size="16" font-family="Roboto-Regular, Roboto" letter-spacing="0.026em"><tspan x="0" y="0">Invoice powered by</tspan></text>
    <g id="Layer_2" data-name="Layer 2" transform="translate(469.508 1665.485)">
      <g id="Group_2" data-name="Group 2" transform="translate(321.571 229.096)">
        <g id="Group_1" data-name="Group 1" transform="translate(44.902)">
          <path id="Path_1" data-name="Path 1" d="M772.82,378.138a.022.022,0,0,0,0,.016l-.441.141a.021.021,0,0,1,0-.03A.926.926,0,0,1,772.82,378.138Z" transform="translate(-742.35 -352.902)" fill="#baa3c2"/>
          <path id="Path_2" data-name="Path 2" d="M771.884,378.936l.005.013-.1.033-.005-.014A.069.069,0,0,1,771.884,378.936Z" transform="translate(-741.856 -353.557)" fill="#d7c9dc"/>
          <path id="Path_3" data-name="Path 3" d="M678.194,297.909l-.1.032a4.889,4.889,0,0,1-3.461-.345,7.572,7.572,0,0,1-2.352-1.837,8.763,8.763,0,0,1-1.109-1.517.673.673,0,0,0-.039-.06c-.113-.154-.222-.151-.324.011a.279.279,0,0,1-.067.08,4.244,4.244,0,0,1-1.44.736,2.454,2.454,0,0,1-1.52-.019.508.508,0,0,0-.657.243,1.766,1.766,0,0,1-.569.566,5.168,5.168,0,0,1-1.548.743,6.085,6.085,0,0,1-1.528.214,4.94,4.94,0,0,1-2.247-.439,4.414,4.414,0,0,1-1.984-1.822,1.524,1.524,0,0,1-.15-.5,4.915,4.915,0,0,1-.06-1.625,3.846,3.846,0,0,1,1.649-2.665,5.683,5.683,0,0,1,1.448-.707c.706-.253,1.416-.5,2.107-.786a6.421,6.421,0,0,0,2.922-2.239,4.185,4.185,0,0,0,.785-2.494c0-.085-.018-.17-.026-.256a.936.936,0,0,1,.327-.791,2.427,2.427,0,0,1,.726-.438,7.526,7.526,0,0,1,1.367-.475,4.782,4.782,0,0,1,3.313.37,6.162,6.162,0,0,1,2.45,2.288c.033.052.066.105.1.16a.452.452,0,0,1-.033.5.769.769,0,0,1-.235.227,2.191,2.191,0,0,0-.88,1.149,3.212,3.212,0,0,0-.138,1.6,4.688,4.688,0,0,0,.361,1.261.7.7,0,0,0,.863.4.292.292,0,0,0,.222-.29.832.832,0,0,0-.135-.506,2.3,2.3,0,0,1-.426-1.448,2.268,2.268,0,0,1,.942-1.712,3.458,3.458,0,0,1,1.957-.738,3.149,3.149,0,0,1,2.2.787.973.973,0,0,1,.207.349,4.523,4.523,0,0,1,.081,3.847,8.357,8.357,0,0,1-1.789,2.62,10.934,10.934,0,0,1-1.265,1.128,2.324,2.324,0,0,1-.207.138,1.137,1.137,0,0,0-.594.964,1.864,1.864,0,0,0,.514,1.472,2.381,2.381,0,0,0,.9.524,3.719,3.719,0,0,0,.662.17.63.63,0,0,1,.249.09.2.2,0,0,1,.078.269.486.486,0,0,1-.218.226,6.872,6.872,0,0,1-.879.406Z" transform="translate(-648.166 -272.529)" fill="url(#linear-gradient)"/>
          <path id="Path_4" data-name="Path 4" d="M595.39,278.975a7.586,7.586,0,0,1-.334-2.78,4.647,4.647,0,0,1,.72-2.217,3.316,3.316,0,0,1,.255-.33.821.821,0,0,0,.242-.612,6.572,6.572,0,0,1,1.273-4.421,6.879,6.879,0,0,1,1.809-1.828,4.27,4.27,0,0,1,3.05-.68,7.093,7.093,0,0,1,2.187.689,11.447,11.447,0,0,1,2.508,1.673c.043.037.083.076.123.115a.589.589,0,0,0,.855.055,5.5,5.5,0,0,1,2-1,3.3,3.3,0,0,1,2.329.119,2.59,2.59,0,0,1,.78.536,2.339,2.339,0,0,1,.408.642,3.383,3.383,0,0,1,.333,2.028,4.157,4.157,0,0,1-.659,1.675,6.754,6.754,0,0,1-2.042,2.035,2.5,2.5,0,0,1-1.092.364,5.9,5.9,0,0,0-3.11,1.331,6.585,6.585,0,0,0-1.483,1.688,1.353,1.353,0,0,0-.084.157.376.376,0,0,1-.512.233c-.183-.06-.358-.142-.539-.207a7.927,7.927,0,0,0-3.146-.5,6.712,6.712,0,0,0-4.283,1.847,4.959,4.959,0,0,0-.6.662.707.707,0,0,1-.163.162.19.19,0,0,1-.317-.086A11.769,11.769,0,0,1,595.39,278.975Z" transform="translate(-595.035 -259.804)" fill="url(#linear-gradient-2)"/>
          <path id="Path_5" data-name="Path 5" d="M639.295,230.936a8.129,8.129,0,0,1,3.016-.363.337.337,0,0,1,.146.03.821.821,0,0,0,.944-.066,3.417,3.417,0,0,1,.587-.328,13.134,13.134,0,0,1,1.772-.689,8.449,8.449,0,0,1,3.384-.385,5.932,5.932,0,0,1,2.1.616,5.458,5.458,0,0,1,2.111,1.847,3.43,3.43,0,0,1,.433,1.1,2.294,2.294,0,0,1,.05.873,1.791,1.791,0,0,1-.994,1.368,2.6,2.6,0,0,1-.521.172,1.866,1.866,0,0,0-1.421,1.676c-.006.073.008.147.006.221a.266.266,0,0,1-.254.28,4.305,4.305,0,0,0-1.327.411c-.227.1-.442.228-.663.341a.655.655,0,0,1-.639.03.592.592,0,0,1-.193-.18,5.536,5.536,0,0,0-1.364-1.337,3.7,3.7,0,0,0-2.824-.582,4.87,4.87,0,0,0-2.077.92.533.533,0,0,1-.571.057.99.99,0,0,1-.282-.184,8.168,8.168,0,0,0-3.347-1.849,8.655,8.655,0,0,0-1.672-.328.93.93,0,0,1-.251-.057.273.273,0,0,1-.155-.433c.069-.117.145-.231.221-.344a7.111,7.111,0,0,1,3.78-2.82Z" transform="translate(-628.431 -229.096)" fill="url(#linear-gradient-3)"/>
          <path id="Path_6" data-name="Path 6" d="M744.232,250.773a10.681,10.681,0,0,1,.472,3.055.916.916,0,0,1-.025.255.214.214,0,0,1-.306.163.4.4,0,0,1-.1-.044,2.373,2.373,0,0,0-1.3-.355,6.465,6.465,0,0,0-2.006.284.293.293,0,0,1-.417-.221,1.946,1.946,0,0,0-.213-.523,6.158,6.158,0,0,0-1.776-2.109,4.849,4.849,0,0,0-2.09-.916.673.673,0,0,0-.194,0,.873.873,0,0,1-.177,0,.418.418,0,0,1-.4-.477.975.975,0,0,1,.376-.709,2.323,2.323,0,0,1,.676-.4.319.319,0,0,0,.072-.034,3.246,3.246,0,0,0,1.185-1.552,2.822,2.822,0,0,0,.023-1.832A.714.714,0,0,1,738,245.2c-.016-.166.061-.243.23-.234a1.74,1.74,0,0,1,.41.112,7.942,7.942,0,0,1,4.961,4.11A10.382,10.382,0,0,1,744.232,250.773Z" transform="translate(-711.881 -242.282)" fill="url(#linear-gradient-4)"/>
          <path id="Path_7" data-name="Path 7" d="M608.294,340.173a6.106,6.106,0,0,1,2.746-.217,7.662,7.662,0,0,1,2.244.683c.34.163.408.38.371.587a2.615,2.615,0,0,0-.043.565,9.127,9.127,0,0,0,.2,1.433c.031.157.1.3.114.465a.349.349,0,0,1-.153.355,7.121,7.121,0,0,1-2.021.9,6.071,6.071,0,0,1-3.9-.269,7.2,7.2,0,0,1-2.2-1.383,1.366,1.366,0,0,1-.224-.213.616.616,0,0,1-.069-.552,1.455,1.455,0,0,1,.308-.546,6.217,6.217,0,0,1,1.909-1.51A6.378,6.378,0,0,1,608.294,340.173Z" transform="translate(-603.579 -321.13)" fill="url(#linear-gradient-5)"/>
        </g>
        <path id="Path_1115" data-name="Path 1115" d="M10.153-20.434A7.026,7.026,0,0,0,16.9-25.005h-.88a6.241,6.241,0,0,1-5.864,3.738A6.462,6.462,0,0,1,3.63-27.911a6.434,6.434,0,0,1,6.523-6.643,6.167,6.167,0,0,1,5.83,3.7h.866a6.911,6.911,0,0,0-6.7-4.531,7.258,7.258,0,0,0-7.39,7.476A7.294,7.294,0,0,0,10.153-20.434Zm23.422-7.576A7.042,7.042,0,0,0,26.5-35.387a7.2,7.2,0,0,0-7.216,7.456,7.206,7.206,0,0,0,7.216,7.5,7.081,7.081,0,0,0,6.623-4.384h-.906A6.245,6.245,0,0,1,26.5-21.274a6.327,6.327,0,0,1-6.372-6.377H33.562C33.569-27.764,33.575-27.9,33.575-28.011ZM26.5-34.567a6.177,6.177,0,0,1,6.236,6.11H20.14a6.3,6.3,0,0,1,6.359-6.11Zm16.865-.58a5.35,5.35,0,0,0-5.112,3.3l-.139-3.261H37.44v14.393h.853v-8.1c0-3.185,2.012-5.511,5.018-5.511H44.6v-.82Zm11.588-.24a7.165,7.165,0,0,0-6.53,3.946v-8.75h-.853v19.477h.713l.124-3.7a7.168,7.168,0,0,0,6.546,3.981,7.175,7.175,0,0,0,7.316-7.476,7.171,7.171,0,0,0-7.316-7.476ZM54.9-21.267a6.454,6.454,0,0,1-6.523-6.643A6.438,6.438,0,0,1,54.9-34.554a6.366,6.366,0,0,1,6.5,6.643A6.366,6.366,0,0,1,54.9-21.267Zm17.558.833a7.3,7.3,0,0,0,7.49-7.476,7.3,7.3,0,0,0-7.49-7.476,7.293,7.293,0,0,0-7.49,7.476A7.309,7.309,0,0,0,72.463-20.434Zm0-.833a6.472,6.472,0,0,1-6.623-6.643,6.449,6.449,0,0,1,6.623-6.643,6.461,6.461,0,0,1,6.623,6.643A6.461,6.461,0,0,1,72.463-21.267Zm15.592.833c3.258,0,5.431-1.639,5.431-4.118,0-3.192-2.852-3.7-5.371-4.125-2.346-.393-4.424-.74-4.424-2.9,0-1.812,1.692-3.025,4.258-3.025,2.605,0,4.2,1.206,4.338,3.238h.82c-.14-2.485-2.086-4.025-5.144-4.025-3.038,0-5.1,1.546-5.1,3.831,0,2.825,2.572,3.272,5.064,3.7,2.372.4,4.718.84,4.718,3.332,0,1.992-1.819,3.285-4.564,3.285-2.719,0-4.438-1.239-4.664-3.392h-.84C82.8-22.02,84.816-20.434,88.055-20.434ZM108.2-35.107,102.322-22.47,96.1-35.107h-.946l6.72,13.592L101-19.681c-1.246,2.652-2.226,3.258-4.2,3.258H95.724v.793H96.85c2.292,0,3.538-.833,4.931-3.818l7.336-15.659Zm7.969,14.673c3.258,0,5.431-1.639,5.431-4.118,0-3.192-2.852-3.7-5.371-4.125-2.346-.393-4.424-.74-4.424-2.9,0-1.812,1.692-3.025,4.258-3.025,2.605,0,4.2,1.206,4.338,3.238h.82c-.14-2.485-2.086-4.025-5.144-4.025-3.038,0-5.1,1.546-5.1,3.831,0,2.825,2.572,3.272,5.064,3.7,2.372.4,4.718.84,4.718,3.332,0,1.992-1.819,3.285-4.564,3.285-2.719,0-4.438-1.239-4.664-3.392h-.84C110.917-22.02,112.936-20.434,116.174-20.434Z" transform="translate(-2.764 65.467)" fill="#01518a"/>
        <circle id="Ellipse_1" data-name="Ellipse 1" cx="2.895" cy="2.895" r="2.895" transform="translate(49.65 38.116)" fill="url(#linear-gradient-6)"/>
        <circle id="Ellipse_2" data-name="Ellipse 2" cx="2.895" cy="2.895" r="2.895" transform="translate(67.629 38.116)" fill="url(#linear-gradient-6)"/>
      </g>
    </g>
  </g>
</svg>
