<svg xmlns="http://www.w3.org/2000/svg" width="41.823" height="38.973" viewBox="0 0 41.823 38.973">
  <g id="eb9a89e8-ef53-4cff-beeb-c04dc3f0ebcb" transform="translate(-12.8)">
    <path id="Path_1163" data-name="Path 1163" d="M31.81,0H17.55A4.75,4.75,0,0,0,12.8,4.75v28.5A4.75,4.75,0,0,0,17.55,38h20.9a4.75,4.75,0,0,0,4.75-4.75V11.4Z" transform="translate(0)" fill="#dde5e8"/>
    <path id="Path_1164" data-name="Path 1164" d="M268.8,0V6.65a4.75,4.75,0,0,0,4.75,4.75h6.65Z" transform="translate(-237)" fill="#9bbdc6"/>
    <path id="Path_1165" data-name="Path 1165" d="M122.8,244.15a.95.95,0,0,1-.95.95h-5.7a.95.95,0,0,1-.95-.95h0a.95.95,0,0,1,.95-.95h5.7A.95.95,0,0,1,122.8,244.15Z" transform="translate(-94.8 -225.15)" fill="#afc3c9"/>
    <path id="Path_1166" data-name="Path 1166" d="M128.5,295.35a.95.95,0,0,1-.95.95h-11.4a.95.95,0,0,1-.95-.95h0a.95.95,0,0,1,.95-.95h11.4a.95.95,0,0,1,.95.95Z" transform="translate(-94.8 -272.55)" fill="#afc3c9"/>
    <path id="Path_1167" data-name="Path 1167" d="M128.47,346.55a.95.95,0,0,1-.95.95H116.15a.95.95,0,0,1-.95-.95h0a.95.95,0,0,1,.95-.95h11.372A.95.95,0,0,1,128.47,346.55Z" transform="translate(-94.8 -319.95)" fill="#afc3c9"/>
    <circle id="Ellipse_41" data-name="Ellipse 41" cx="11.422" cy="11.422" r="11.422" transform="translate(31.778 16.128)" fill="#48b753"/>
    <path id="Path_1168" data-name="Path 1168" d="M375.447,393.761a1.631,1.631,0,0,1-1.044-.382l-2.611-2.176a1.632,1.632,0,1,1,2.09-2.507l1.147.956,2.932-4.894a1.632,1.632,0,0,1,2.8,1.68l-3.916,6.527a1.631,1.631,0,0,1-1.127.765A1.575,1.575,0,0,1,375.447,393.761Z" transform="translate(-332.9 -361.316)" fill="#fff"/>
  </g>
</svg>
