<svg xmlns="http://www.w3.org/2000/svg" width="314.574" height="643.78" viewBox="0 0 314.574 643.78">
  <g id="Group_36" data-name="Group 36" transform="translate(-574.383 -156.305)">
    <path id="Path_1133" data-name="Path 1133" d="M46.554,0H268.02a46.554,46.554,0,0,1,46.554,46.554V597.225A46.554,46.554,0,0,1,268.02,643.78H46.554A46.554,46.554,0,0,1,0,597.225V46.554A46.554,46.554,0,0,1,46.554,0Z" transform="translate(574.383 156.305)" fill="#042f67"/>
    <path id="NoPath_-_Copy_6_" data-name="NoPath - Copy (6)" d="M42.564,0H254.719a42.564,42.564,0,0,1,42.564,42.564V585.919a42.564,42.564,0,0,1-42.564,42.564H42.564A42.564,42.564,0,0,1,0,585.919V42.564A42.564,42.564,0,0,1,42.564,0Z" transform="translate(580.368 162.291)" fill="#fff"/>
    <path id="Subtraction_5" data-name="Subtraction 5" d="M259.707,632.474H42.9a42.7,42.7,0,0,1-23.984-7.326A43.024,43.024,0,0,1,3.371,606.274,42.628,42.628,0,0,1,0,589.577V42.9A42.693,42.693,0,0,1,7.326,18.913,43.022,43.022,0,0,1,26.2,3.371,42.631,42.631,0,0,1,42.9,0h216.81a42.7,42.7,0,0,1,23.984,7.326A43.024,43.024,0,0,1,299.232,26.2,42.629,42.629,0,0,1,302.6,42.9V589.577a42.7,42.7,0,0,1-7.326,23.984A43.02,43.02,0,0,1,276.4,629.1,42.628,42.628,0,0,1,259.707,632.474ZM39.923,8.911h0a17.737,17.737,0,0,0-2.786.21A20.906,20.906,0,0,0,34.49,9.5c-.257.072-.545.144-.85.221a23.355,23.355,0,0,0-2.812.843l-.361.14a33.275,33.275,0,0,0-9.585,5.156,28,28,0,0,0-5.1,5.426,38.582,38.582,0,0,0-4.527,8.475c-1.807,4.6-2.116,10.024-2.416,15.271q-.029.51-.059,1.016c.032,7.039.026,13.152.015,17.04-.095,1.022-.143,2.062-.143,3.091V590.907a32.958,32.958,0,0,0,32.92,32.921H261.7a32.958,32.958,0,0,0,32.921-32.921V66.322h.057l-.787-28.051c-.006-.054-.58-5.5-1.956-8.592a47.533,47.533,0,0,0-2.614-5.145,30.673,30.673,0,0,0-3.919-5.247,33.539,33.539,0,0,0-8.821-6.492,38.433,38.433,0,0,0-7.72-3.143,5.727,5.727,0,0,0-1.373-.284h-.011c-.145-.01-.343-.024-.673-.062-1.134-.126-2.494-.164-2.507-.164l-39.964-.1c-.014,0-.063,0-.137,0a2.206,2.206,0,0,0-2.436,2.01,13.749,13.749,0,0,0,.148,2.407,9.53,9.53,0,0,1,.11,2.172,17.054,17.054,0,0,1-2.779,7.667,14.394,14.394,0,0,1-2.557,3.277,11.167,11.167,0,0,1-2.478,1.78,7.735,7.735,0,0,1-2.614.88l-.011,0,0,0-.029.012.025-.009a9.282,9.282,0,0,1-2.331.676,15.923,15.923,0,0,1-2.5.189h-.008L99.894,30.25h0c-.07,0-2.488,0-4.09-.126a12.888,12.888,0,0,1-2.444-.368A17.484,17.484,0,0,1,89.7,28.223a16.681,16.681,0,0,1-3.143-2.228,13.033,13.033,0,0,1-2.752-3.48A25.084,25.084,0,0,1,81.5,14.006c-.047-.411-.085-.784-.122-1.145v-.011a7.138,7.138,0,0,0-.67-3.062c-.421-.61-1.146-.848-2.586-.848h-.461c-2.089,0-8.716-.006-14.924-.012C54.087,8.92,44.279,8.911,39.923,8.911Z" transform="translate(580.036 161.958)"/>
    <path id="Path_1132" data-name="Path 1132" d="M3.325,0h26.6a3.325,3.325,0,1,1,0,6.651H3.325A3.325,3.325,0,0,1,3.325,0Z" transform="translate(715.376 174.262)" fill="#fff" opacity="0.22"/>
    <path id="Path_1131" data-name="Path 1131" d="M5.986,0A5.986,5.986,0,1,1,0,5.986,5.986,5.986,0,0,1,5.986,0Z" transform="translate(754.615 171.602)" fill="#fff" opacity="0.22"/>
  </g>
</svg>
