<svg xmlns="http://www.w3.org/2000/svg" width="1501" height="770" viewBox="0 0 1501 770">
  <path id="brainClip" d="M8091,6262H6592V5494H8091v768Zm-570.216-164.287h0a84.914,84.914,0,0,0,60.043,6.017l1.73-.554.021-.006.021-.006,8.063-2.494a121.35,121.35,0,0,0,15.366-7.107l.048-.029.053-.026a4.889,4.889,0,0,0,2.118-2.138,7.473,7.473,0,0,0-2.816-.982l-.044-.006-.047-.006a71.722,71.722,0,0,1-12.687-3.253,47.638,47.638,0,0,1-17.814-10.39l-.081-.076-.077-.079a37.9,37.9,0,0,1-10.472-29.815A24.806,24.806,0,0,1,7577.032,6026a38,38,0,0,0,3.336-2.228,195.52,195.52,0,0,0,22.54-20.1l.034-.036.037-.035a148.035,148.035,0,0,0,31.689-46.411l.008-.019.008-.02a78.251,78.251,0,0,0-1.4-66.584l-.12-.244-.087-.258a13.579,13.579,0,0,0-2.782-4.77,53.259,53.259,0,0,0-35.119-13.21c-.622,0-1.267.012-1.917.035a58.925,58.925,0,0,0-33.306,12.569l-.073.057-.073.053a37.252,37.252,0,0,0-15.477,28.111,37.844,37.844,0,0,0,7.012,23.8l.046.065.043.067a19.3,19.3,0,0,1,3.115,11.487,9.257,9.257,0,0,1-6.936,9.034,16.719,16.719,0,0,1-20.481-9.545,89.2,89.2,0,0,1-6.845-23.911,62.617,62.617,0,0,1,2.674-31,44.054,44.054,0,0,1,17.6-22.961l.044-.029.045-.028a9.937,9.937,0,0,0,3.056-2.95l.071-.108.077-.1a4.217,4.217,0,0,0,.333-4.625c-.649-1.053-1.222-1.969-1.75-2.8l-.024-.039-.024-.041a108.07,108.07,0,0,0-42.965-40.132,83.019,83.019,0,0,0-57.485-6.415l-.014,0-.012,0a133.18,133.18,0,0,0-24.147,8.386l-.114.055-.118.045a39.99,39.99,0,0,0-12.012,7.247l-.021.018-.023.021a13.056,13.056,0,0,0-4.555,10.987c.047.489.116,1,.183,1.5l0,.037a25.379,25.379,0,0,1,.3,3.454,79.6,79.6,0,0,1-15.03,47.729l0,.006,0,.006a120.494,120.494,0,0,1-54.925,42.108c-10.822,4.479-22.021,8.477-32.851,12.343l-.179.064c-2.343.836-3.966,1.417-5.428,1.941l-.061.02-.061.021a99.237,99.237,0,0,0-25.326,12.364,65.98,65.98,0,0,0-28.282,45.7,85.228,85.228,0,0,0,1.044,28.235l.034.163.021.166a23.588,23.588,0,0,0,2.289,7.688,76.287,76.287,0,0,0,34.227,31.4,85.878,85.878,0,0,0,35.545,7.7c1.141,0,2.321-.024,3.507-.071l.057,0h.059a106.808,106.808,0,0,0,26.767-3.744,89.839,89.839,0,0,0,26.938-12.936l.1-.07.1-.063a28.3,28.3,0,0,0,8.965-8.861,13.232,13.232,0,0,1,16.86-6.2,40.68,40.68,0,0,0,25.045.268l.041-.012.042-.012a73.2,73.2,0,0,0,24.791-12.66,1.043,1.043,0,0,0,.231-.279l.055-.1.061-.1c2.145-3.408,4.622-4.124,6.321-4.124,2.307,0,4.387,1.241,6.183,3.689l0,0a16.68,16.68,0,0,1,.944,1.454,155.779,155.779,0,0,0,19.672,26.905l.039.042.038.044a133.762,133.762,0,0,0,41.544,32.451Zm-364.019-107.189a106.975,106.975,0,0,0-32.248,4.971,112.514,112.514,0,0,0-12.533,5.2,109.146,109.146,0,0,0-33.47,26.484l-.035.039-.034.039a22.6,22.6,0,0,0-4.756,8.433l-.028.091-.033.087a7.258,7.258,0,0,0,.7,6.3,20.855,20.855,0,0,0,3.275,3.083l.152.116.142.129a127.015,127.015,0,0,0,38.8,24.391l.03.012.033.014a106.448,106.448,0,0,0,68.375,4.717,125.44,125.44,0,0,0,35.62-15.861,2.346,2.346,0,0,0,1.027-2.389l-.034-.188-.017-.191a20.7,20.7,0,0,0-1-4.23l-.018-.058a38.122,38.122,0,0,1-.989-3.686,170.731,170.731,0,0,1-3.712-26.66l0-.051,0-.053a51.626,51.626,0,0,1,.845-11.127,4.383,4.383,0,0,0-.377-3.008,8.988,8.988,0,0,0-4.165-3.348l0,0a135.253,135.253,0,0,0-39.657-12.069l-.012,0-.014,0A107.447,107.447,0,0,0,7156.766,5990.524Zm2.788-227.538a73.672,73.672,0,0,0-41.221,12.612,120.942,120.942,0,0,0-31.843,32.183l-.053.075-.055.075A115.576,115.576,0,0,0,7064,5885.671l.006.083,0,.083a19,19,0,0,1-5.479,14.01,56.474,56.474,0,0,0-4.217,5.465,80.565,80.565,0,0,0-12.447,38.38l0,.01v.012a134.006,134.006,0,0,0,5.9,49.109l.847,2.692a211.007,211.007,0,0,0,8.163,21.278,8.8,8.8,0,0,0,1.906-1.929l.027-.036.024-.033a94.524,94.524,0,0,1,11.374-12.555,126.18,126.18,0,0,1,80.447-34.678l.017,0h.014c2.222-.1,4.449-.148,6.62-.148a147.71,147.71,0,0,1,52.173,9.487c1.446.519,2.852,1.088,4.212,1.639l.164.066.084.034.005,0c1.792.727,3.484,1.413,5.208,1.976l.193.063.187.083a2.807,2.807,0,0,0,1.151.244,2.835,2.835,0,0,0,2.712-2l.075-.244.1-.231a28.808,28.808,0,0,1,1.769-3.308,123.448,123.448,0,0,1,27.847-31.7,111.039,111.039,0,0,1,58.663-25.1l.049,0,.047-.006a41.463,41.463,0,0,0,18.1-6.022,118.86,118.86,0,0,0,35.915-35.8l.022-.035.024-.034a71.673,71.673,0,0,0,11.352-28.838,57.557,57.557,0,0,0-5.667-34.479l-.061-.122-.055-.128a38.457,38.457,0,0,0-6.652-10.5,42.987,42.987,0,0,0-12.894-8.839,56.047,56.047,0,0,0-39.539-2.017l-.1.033-.1.026a96.092,96.092,0,0,0-34.812,17.372,14.675,14.675,0,0,1-9.9,3.83c-.312,0-.631-.01-.946-.03a14.806,14.806,0,0,1-10.24-5.119c-.529-.521-1.225-1.194-1.911-1.786l-.016-.013-.015-.013a204.34,204.34,0,0,0-44.753-29.853l-.021-.01-.021-.01A124.669,124.669,0,0,0,7171,5763.881l-.024,0-.024,0A73.821,73.821,0,0,0,7159.554,5762.986Zm444.5,88.655a47.153,47.153,0,0,1,24.836,7.066,3.255,3.255,0,0,0,.812.357l.343.1.183.089.006-.051.048-.2a12.733,12.733,0,0,0,.348-3.527l0-.067v-.067a190.153,190.153,0,0,0-8.411-54.436l0-.009a185.488,185.488,0,0,0-11.235-28.222,140.47,140.47,0,0,0-87.757-72.7l-.222-.063-.211-.087a27.728,27.728,0,0,0-6.128-1.72,8.992,8.992,0,0,0,.388,1.876,55.636,55.636,0,0,1-.455,35.911l0,.006,0,.006a62.731,62.731,0,0,1-23.019,30.15l-.077.057-.081.051a9.81,9.81,0,0,1-2.106,1.007,38.075,38.075,0,0,0-11.056,6.559l-.071.057-.071.057a13.737,13.737,0,0,0-5.3,9.99l-.01.156-.022.154a3.6,3.6,0,0,0,3.448,4.114l.138,0,.14.016a11.925,11.925,0,0,0,1.2.061c.376,0,.756-.019,1.129-.055a16.372,16.372,0,0,1,4.585.014l.063.008.061.012a92.594,92.594,0,0,1,39.735,17.413,116.744,116.744,0,0,1,33.407,39.63,39.356,39.356,0,0,1,4.25,10.488l.044.183.028.187a1.334,1.334,0,0,0,1.318,1.135,1.307,1.307,0,0,0,.579-.134l.272-.13.29-.089a121.473,121.473,0,0,1,35.7-5.358c.733,0,1.375.005,1.959.016C7603.483,5851.644,7603.787,5851.641,7604.057,5851.641Zm-236.164-74.021a104.441,104.441,0,0,1,25.8,25.288l.03.042.029.042a6.838,6.838,0,0,0,2.1,2,7.939,7.939,0,0,0,3.407.778h.014a7.9,7.9,0,0,0,4.185-1.2l.144-.089.15-.077c1.275-.651,2.579-1.354,3.839-2.033l.094-.051.147-.079c2.6-1.4,5.291-2.856,8.108-4.1a82.106,82.106,0,0,1,25.29-7.815l.186-.026.189-.008a.84.84,0,0,0,.8-.892l-.008-.156.006-.156c.01-.417-.024-.9-.061-1.417v-.006a18.494,18.494,0,0,1-.04-2.8,37.847,37.847,0,0,1,28.9-34.073l.048-.01.049-.012a43.39,43.39,0,0,0,8.628-2.841,28.589,28.589,0,0,0,15.816-21.8,37.575,37.575,0,0,0-.822-14.359l-.022-.091-.018-.091a58.221,58.221,0,0,0-7.331-18.655,95.284,95.284,0,0,0-36.806-32.177l-.022-.01-.02-.01a103.916,103.916,0,0,0-36.768-10.789c-4.444-.4-8.948-.6-13.387-.6a149.459,149.459,0,0,0-46.557,7.424l-.033.01-.034.01a235.458,235.458,0,0,0-31.7,12.325l-.059.026-.059.026a58.371,58.371,0,0,0-9.877,5.5,18.933,18.933,0,0,1-21.376,1.578,2.112,2.112,0,0,0-.729-.128h-.044l-.177,0-.179-.012c-3.266-.222-6.562-.335-9.8-.335a143.784,143.784,0,0,0-43.584,6.76l-1.681.536-.089-.053a125.332,125.332,0,0,0-64.984,49.187c-1.439,2.14-2.726,4.073-3.893,6.057l-.128.215-.154.2a.964.964,0,0,0,.55,1.533l.266.063.256.1a12.933,12.933,0,0,0,3.489.792l.02,0,.021,0a161.829,161.829,0,0,1,31.146,6.106,153.287,153.287,0,0,1,62.483,34.53l.01.012.012.008a13.933,13.933,0,0,0,3.99,2.607l.114.049.11.055a5.677,5.677,0,0,0,2.563.615h.012a5.725,5.725,0,0,0,3.531-1.225l.024-.018.024-.02A93.064,93.064,0,0,1,7313.5,5766.4a71.319,71.319,0,0,1,54.4,11.223Z" transform="translate(-6591 -5493)" stroke="#fff" stroke-width="1"/>
</svg>
