<svg xmlns="http://www.w3.org/2000/svg" width="50" height="50" viewBox="0 0 50 50">
  <g id="cartIcon" transform="translate(-368 -199)">
    <rect id="Rectangle_7935" data-name="Rectangle 7935" width="50" height="50" transform="translate(368 199)" fill="#b85858" opacity="0"/>
    <path id="ic_shopping_cart_24px" d="M13.533,35.421A4.178,4.178,0,1,0,17.711,39.6,4.172,4.172,0,0,0,13.533,35.421ZM1,2V6.178H5.178L12.7,22.032l-2.82,5.118a4.039,4.039,0,0,0-.522,2.005,4.19,4.19,0,0,0,4.178,4.178H38.6V29.155H14.41a.517.517,0,0,1-.522-.522l.063-.251,1.88-3.4H31.392a4.158,4.158,0,0,0,3.655-2.151L42.526,9.269a2.041,2.041,0,0,0,.251-1,2.1,2.1,0,0,0-2.089-2.089H9.794L7.83,2H1ZM34.421,35.421A4.178,4.178,0,1,0,38.6,39.6,4.172,4.172,0,0,0,34.421,35.421Z" transform="translate(370.784 201.112)" fill="#fff"/>
  </g>
</svg>
