<svg xmlns="http://www.w3.org/2000/svg" width="50" height="50" viewBox="0 0 50 50">
  <g id="rupeeIcon" transform="translate(-372 -199)">
    <rect id="Rectangle_7934" data-name="Rectangle 7934" width="50" height="50" transform="translate(372 199)" fill="#b85858" opacity="0"/>
    <path id="path4158" d="M18.238,848.319,1.6,827.5l.1-4.125c7.808.538,13.879-.289,15.291-7.674l-16.637-.1L3.044,811.1l13.271.191c-2.022-4.2-7.583-4.721-16.253-4.412l2.981-4.414,28.178-.042-2.789,4.359h-7.79c1.424,1.5,2.466,3.232,2.5,4.7l8.078-.1L28.433,815.7l-5.386.1c-.841,6.44-6.757,10.252-14.233,11.128l16.749,21.388-7.324,0h0Z" transform="translate(381.698 -601.319)" fill="#fff"/>
  </g>
</svg>
