<svg xmlns="http://www.w3.org/2000/svg" xmlns:xlink="http://www.w3.org/1999/xlink" width="46.935" height="46.935" viewBox="0 0 46.935 46.935">
  <defs>
    <filter id="ic_call_24px" x="0" y="0" width="46.935" height="46.935" filterUnits="userSpaceOnUse">
      <feOffset dy="3" input="SourceAlpha"/>
      <feGaussianBlur stdDeviation="3" result="blur"/>
      <feFlood flood-opacity="0.529"/>
      <feComposite operator="in" in2="blur"/>
      <feComposite in="SourceGraphic"/>
    </filter>
    <filter id="ic_call_24px-2" x="0" y="0" width="46.935" height="46.935" filterUnits="userSpaceOnUse">
      <feOffset dy="3" input="SourceAlpha"/>
      <feGaussianBlur stdDeviation="3" result="blur-2"/>
      <feFlood flood-color="#fff" result="color"/>
      <feComposite operator="out" in="SourceGraphic" in2="blur-2"/>
      <feComposite operator="in" in="color"/>
      <feComposite operator="in" in2="SourceGraphic"/>
    </filter>
  </defs>
  <g data-type="innerShadowGroup">
    <g transform="matrix(1, 0, 0, 1, 0, 0)" filter="url(#ic_call_24px)">
      <path id="ic_call_24px-3" data-name="ic_call_24px" d="M8.819,15.522A24.351,24.351,0,0,0,19.412,26.116l3.536-3.536a1.6,1.6,0,0,1,1.64-.386,18.337,18.337,0,0,0,5.739.916,1.612,1.612,0,0,1,1.607,1.607v5.61a1.612,1.612,0,0,1-1.607,1.607A27.325,27.325,0,0,1,3,4.607,1.612,1.612,0,0,1,4.607,3h5.626a1.612,1.612,0,0,1,1.607,1.607,18.261,18.261,0,0,0,.916,5.739,1.613,1.613,0,0,1-.4,1.64Z" transform="translate(6 3)" fill="#fff"/>
    </g>
    <g transform="matrix(1, 0, 0, 1, 0, 0)" filter="url(#ic_call_24px-2)">
      <path id="ic_call_24px-4" data-name="ic_call_24px" d="M8.819,15.522A24.351,24.351,0,0,0,19.412,26.116l3.536-3.536a1.6,1.6,0,0,1,1.64-.386,18.337,18.337,0,0,0,5.739.916,1.612,1.612,0,0,1,1.607,1.607v5.61a1.612,1.612,0,0,1-1.607,1.607A27.325,27.325,0,0,1,3,4.607,1.612,1.612,0,0,1,4.607,3h5.626a1.612,1.612,0,0,1,1.607,1.607,18.261,18.261,0,0,0,.916,5.739,1.613,1.613,0,0,1-.4,1.64Z" transform="translate(6 3)" fill="#fff"/>
    </g>
  </g>
</svg>
