<svg xmlns="http://www.w3.org/2000/svg" width="18" height="18" viewBox="0 0 18 18">
  <path id="Exclusion_2" data-name="Exclusion 2" d="M-8663.534-2284h0l-5.144-5.136v-.813l-.279-.287a6.68,6.68,0,0,1-4.353,1.616,6.7,6.7,0,0,1-6.689-6.69,6.7,6.7,0,0,1,6.689-6.69,6.7,6.7,0,0,1,6.689,6.69,6.685,6.685,0,0,1-1.616,4.352l.29.279h.813l5.135,5.146-1.533,1.533Zm-9.907-15.811a4.505,4.505,0,0,0-4.5,4.5,4.5,4.5,0,0,0,4.5,4.5,4.5,4.5,0,0,0,4.5-4.5A4.506,4.506,0,0,0-8673.441-2299.81Z" transform="translate(8680 2301.999)" opacity="0.5"/>
</svg>
