<svg xmlns="http://www.w3.org/2000/svg" width="23.021" height="23.125" viewBox="0 0 23.021 23.125">
  <g id="WhatsApp" transform="translate(-393.615 -394.176)">
    <g id="logo" transform="translate(393.615 394.176)">
      <g id="Group_5" data-name="Group 5" transform="translate(0 0)">
        <g id="Group_4" data-name="Group 4">
          <path id="Path_1" data-name="Path 1" d="M446.2,426.448a11.463,11.463,0,0,0-18.041,13.826l-1.626,5.938,6.076-1.593a11.455,11.455,0,0,0,5.478,1.395h0a11.463,11.463,0,0,0,8.108-19.565Zm-8.108,17.63h0a9.516,9.516,0,0,1-4.849-1.328l-.348-.206-3.606.946.963-3.515-.227-.36a9.528,9.528,0,1,1,8.071,4.463Zm5.226-7.133c-.287-.143-1.695-.836-1.957-.931s-.453-.143-.645.143-.74.931-.907,1.123-.334.215-.62.072a7.821,7.821,0,0,1-2.3-1.421,8.625,8.625,0,0,1-1.593-1.983c-.167-.287-.018-.442.126-.584s.286-.334.43-.5a1.959,1.959,0,0,0,.286-.478.527.527,0,0,0-.024-.5c-.072-.143-.644-1.553-.883-2.126s-.469-.483-.644-.492-.358-.01-.549-.01a1.052,1.052,0,0,0-.764.358,3.21,3.21,0,0,0-1,2.389,5.568,5.568,0,0,0,1.169,2.962,12.766,12.766,0,0,0,4.893,4.323,16.424,16.424,0,0,0,1.633.6,3.927,3.927,0,0,0,1.8.113,2.95,2.95,0,0,0,1.933-1.361,2.394,2.394,0,0,0,.167-1.362C443.795,437.16,443.6,437.088,443.318,436.945Z" transform="translate(-426.533 -423.087)" fill="#fff"/>
        </g>
      </g>
    </g>
    <g id="logo-2" data-name="logo" transform="translate(393.615 394.176)">
      <g id="Group_10" data-name="Group 10" transform="translate(0 0)">
        <g id="Group_9" data-name="Group 9">
          <path id="Path_2" data-name="Path 2" d="M446.2,426.448a11.463,11.463,0,0,0-18.041,13.826l-1.626,5.938,6.076-1.593a11.455,11.455,0,0,0,5.478,1.395h0a11.463,11.463,0,0,0,8.108-19.565Zm-8.108,17.63h0a9.516,9.516,0,0,1-4.849-1.328l-.348-.206-3.606.946.963-3.515-.227-.36a9.528,9.528,0,1,1,8.071,4.463Zm5.226-7.133c-.287-.143-1.695-.836-1.957-.931s-.453-.143-.645.143-.74.931-.907,1.123-.334.215-.62.072a7.821,7.821,0,0,1-2.3-1.421,8.625,8.625,0,0,1-1.593-1.983c-.167-.287-.018-.442.126-.584s.286-.334.43-.5a1.959,1.959,0,0,0,.286-.478.527.527,0,0,0-.024-.5c-.072-.143-.644-1.553-.883-2.126s-.469-.483-.644-.492-.358-.01-.549-.01a1.052,1.052,0,0,0-.764.358,3.21,3.21,0,0,0-1,2.389,5.568,5.568,0,0,0,1.169,2.962,12.766,12.766,0,0,0,4.893,4.323,16.424,16.424,0,0,0,1.633.6,3.927,3.927,0,0,0,1.8.113,2.95,2.95,0,0,0,1.933-1.361,2.394,2.394,0,0,0,.167-1.362C443.795,437.16,443.6,437.088,443.318,436.945Z" transform="translate(-426.533 -423.087)" fill="#fff"/>
        </g>
      </g>
    </g>
  </g>
</svg>
