<svg xmlns="http://www.w3.org/2000/svg" xmlns:xlink="http://www.w3.org/1999/xlink" width="77.998" height="73" viewBox="0 0 77.998 73">
  <defs>
    <radialGradient id="radial-gradient" cx="0.5" cy="0.5" r="0.5" gradientUnits="objectBoundingBox">
      <stop offset="0" stop-color="#8bffae"/>
      <stop offset="1" stop-color="#13b142"/>
    </radialGradient>
    <filter id="Rectangle_7868" x="0" y="0" width="77.998" height="73" filterUnits="userSpaceOnUse">
      <feOffset dy="3" input="SourceAlpha"/>
      <feGaussianBlur stdDeviation="3" result="blur"/>
      <feFlood flood-opacity="0.749"/>
      <feComposite operator="in" in2="blur"/>
      <feComposite in="SourceGraphic"/>
    </filter>
  </defs>
  <g id="Total_Enquiry" data-name="Total Enquiry" transform="translate(-299.502 -414)">
    <g transform="matrix(1, 0, 0, 1, 299.5, 414)" filter="url(#Rectangle_7868)">
      <rect id="Rectangle_7868-2" data-name="Rectangle 7868" width="59.998" height="55" rx="10" transform="translate(9 6)" fill="url(#radial-gradient)"/>
    </g>
    <path id="ic_markunread_24px" d="M23.753,4H4.417a2.414,2.414,0,0,0-2.4,2.417L2,20.919a2.424,2.424,0,0,0,2.417,2.417H23.753a2.424,2.424,0,0,0,2.417-2.417V6.417A2.424,2.424,0,0,0,23.753,4Zm0,4.834-9.668,6.042L4.417,8.834V6.417l9.668,6.042,9.668-6.042Z" transform="translate(324.416 435)" fill="#fff"/>
  </g>
</svg>
