<svg xmlns="http://www.w3.org/2000/svg" width="128.766" height="106.725" viewBox="0 0 128.766 106.725">
  <path id="Intersection_1" data-name="Intersection 1" d="M9790.924,1118.215a3.054,3.054,0,0,1,6.055,0,2.711,2.711,0,0,1-3.016,2.606C9792.088,1120.822,9790.924,1119.674,9790.924,1118.215Zm25.405-6.121a8.643,8.643,0,1,1,8.667,8.7A8.5,8.5,0,0,1,9816.329,1112.094Zm5.366,0c0,2.248,1.139,3.754,3.3,3.754,2.112,0,3.275-1.506,3.275-3.754,0-2.3-1.163-3.778-3.275-3.778C9822.834,1108.316,9821.7,1109.8,9821.7,1112.094Zm-23.245.048c0-5.045,3.159-8.608,8.312-8.608a7.779,7.779,0,0,1,8.143,6.672h-5.556a2.859,2.859,0,0,0-2.683-1.77c-1.781,0-2.873,1.459-2.873,3.706s1.092,3.706,2.873,3.706a2.859,2.859,0,0,0,2.683-1.769h5.556a7.779,7.779,0,0,1-8.143,6.671C9801.609,1120.75,9798.45,1117.187,9798.45,1112.142Zm52.022,8.488v-8.44l-2.588,8.44h-4.512l-2.589-8.44v8.44h-5.271V1103.7h6.458l3.7,10.162,3.609-10.162h6.434v16.929Zm-68.357,0V1118h-7.432v-4.424l7.076-10.162h5.674v9.995h1.709V1118h-1.709v2.63Zm-2.137-7.221h2.564v-3.945Zm-25.316,7.221-2.05-2.758-1.53,2.758h-5.264l4.076-6.451-4.291-5.8h5.348l2.05,2.78,1.553-2.78h5.263l-4.205,6.3,4.4,5.951Zm-15.9,0-3.446-6.63h-.027v6.63h-5.754v-18.48h8.554c4.612,0,6.972,2.662,6.972,6.055a5.435,5.435,0,0,1-3.965,5.351l3.99,7.073Zm-3.474-10.493h2.281c1.088,0,1.658-.469,1.658-1.566a1.479,1.479,0,0,0-1.658-1.566h-2.281Zm25.388,10.254V1116.4c3.349-2.534,6.886-5.475,6.886-7.986,0-.766-.355-1.2-.9-1.2-.569,0-1.044.574-.949,1.985H9760.6c.166-4.638,3.158-6.432,6.41-6.432,4.322,0,5.865,2.463,5.865,5.236,0,3.467-2.611,6.361-5.365,8.106h5.438v4.28Zm16.683-40.406h0v-.263h0a14.27,14.27,0,0,1,28.54,0v.266a14.27,14.27,0,0,1-28.54,0Zm57.662,13.6a25.3,25.3,0,0,1-5.33-.518,36.792,36.792,0,0,1-6.359-3.015c-2.7-1.417-3.807-3.32-14.215-4.235a.117.117,0,0,1-.09-.059.119.119,0,0,1,0-.106c.574-.88,4.134-5.3,17.059-3.948a36.035,36.035,0,0,1,7.967,1.664,25.185,25.185,0,0,0,6.939,1.537,5.692,5.692,0,0,0,1.333-.136,2.523,2.523,0,0,1,.812-.126c.629.221.345,1.3-.342,1.805-.619.454-2.686.638-4.251.669-1.267.023-2.823-.187-4.633-.246a.187.187,0,0,0-.071.011c-.229.1-1.254.577.354,1.166l.018,0c.168.038,6.674,1.425,16.408-2.272l4.022-1.529s1.549.053.628,1.255a.244.244,0,0,1-.051.052c-.385.283-9.521,6.832-19.039,7.964a9.277,9.277,0,0,1-1.076.063Zm-87.3-.35a9.1,9.1,0,0,1-1.145-.19c-9.341-2.165-17.717-9.674-18.067-10a.222.222,0,0,1-.046-.058c-.785-1.294.761-1.179.761-1.179s2.13,1.09,3.834,1.961c9.277,4.74,15.894,4.073,16.066,4.053l.017,0c1.66-.41.7-1,.477-1.12a.168.168,0,0,0-.068-.019c-1.807-.139-3.376-.1-4.632-.263-1.554-.2-3.588-.611-4.154-1.129-.628-.576-.794-1.681-.146-1.832.238-.056,1,.4,2.1.495a25.076,25.076,0,0,0,7.064-.769,35.983,35.983,0,0,1,8.1-.781c12.993.073,16.055,4.851,16.53,5.789a.114.114,0,0,1-.012.106.113.113,0,0,1-.095.049c-10.444-.229-11.746,1.543-14.588,2.654a36.646,36.646,0,0,1-6.646,2.3,11.985,11.985,0,0,1-1.891.124C9749.9,1093.425,9748.543,1093.311,9747.719,1093.235Zm91.131-13.345a36.011,36.011,0,0,1-7.932-1.831,25.092,25.092,0,0,0-6.906-1.685,5.709,5.709,0,0,0-1.359.112,2.4,2.4,0,0,1-.788.1c-.625-.235-.317-1.308.38-1.8.627-.44,2.7-.58,4.264-.577,1.267,0,2.816.246,4.627.343a.171.171,0,0,0,.069-.011c.233-.092,1.266-.55-.329-1.171l-.016-.006c-.169-.041-6.643-1.565-16.452,1.924l-4.056,1.443s-1.547-.086-.6-1.268a.229.229,0,0,1,.054-.051c.389-.275,9.66-6.629,19.2-7.558a9.276,9.276,0,0,1,1.16-.038,25.232,25.232,0,0,1,5.317.631,36.7,36.7,0,0,1,6.295,3.149c2.675,1.473,3.735,3.4,14.122,4.536a.109.109,0,0,1,.088.06.116.116,0,0,1,0,.107c-.5.732-3.187,3.942-11.782,3.943A42.877,42.877,0,0,1,9838.85,1079.89Zm-110.109-6.125a.113.113,0,0,1,.1-.157c10.447.005,11.711-1.792,14.528-2.965a36.78,36.78,0,0,1,6.6-2.442,25.342,25.342,0,0,1,5.355-.046,9.464,9.464,0,0,1,1.148.165c9.384,1.967,17.914,9.3,18.271,9.613a.234.234,0,0,1,.047.057c.813,1.279-.734,1.195-.734,1.195l-3.875-1.878c-9.375-4.542-15.975-3.734-16.146-3.711l-.018,0c-1.652.444-.674,1.011-.454,1.129a.178.178,0,0,0,.07.018c1.81.1,3.376.028,4.636.164,1.557.169,3.6.535,4.177,1.041.641.563.829,1.664.184,1.829-.236.061-1.013-.383-2.114-.45a25.1,25.1,0,0,0-7.045.919,35.988,35.988,0,0,1-8.082.953c-.273,0-.541.006-.807.006C9732.266,1079.207,9729.225,1074.671,9728.74,1073.764Zm46.422-1.616c-7.631-7.187-9.773-6.743-12.627-7.822a36.762,36.762,0,0,1-6.477-2.75,25.546,25.546,0,0,1-3.943-3.648,9.291,9.291,0,0,1-.728-.91c-5.524-7.888-6.79-19.11-6.835-19.586a.191.191,0,0,1,0-.074c.273-1.492,1.349-.367,1.349-.367s.864,2.243,1.558,4.036c3.771,9.764,9.143,13.711,9.283,13.813l.016.008c1.508.811,1.178-.275,1.1-.513a.173.173,0,0,0-.037-.061c-1.254-1.317-2.449-2.341-3.277-3.307-1.023-1.193-2.269-2.865-2.348-3.632-.086-.851.521-1.785,1.105-1.463.215.119.48.977,1.24,1.783a25.268,25.268,0,0,0,5.771,4.172,36.157,36.157,0,0,1,6.552,4.86c9.633,8.784,8.747,14.4,8.481,15.418a.114.114,0,0,1-.078.071l-.027,0A.106.106,0,0,1,9775.162,1072.148Zm32.509-.289a.111.111,0,0,1-.076-.076c-.208-1.032-.772-6.69,9.343-14.9a36.245,36.245,0,0,1,6.818-4.474,25.21,25.21,0,0,0,6-3.832c.8-.76,1.119-1.6,1.338-1.707.6-.289,1.155.679,1.022,1.524-.123.76-1.461,2.358-2.551,3.49-.881.916-2.133,1.87-3.459,3.112a.153.153,0,0,0-.041.059c-.1.233-.486,1.3,1.065.576l.015-.008c.146-.093,5.732-3.725,10.053-13.255.795-1.75,1.786-3.939,1.786-3.939s1.136-1.061,1.324.445a.272.272,0,0,1,0,.074c-.074.473-1.976,11.6-7.938,19.16a9.68,9.68,0,0,1-.778.866,25.42,25.42,0,0,1-4.145,3.415,36.788,36.788,0,0,1-6.622,2.372c-2.91.913-5.024.346-13.051,7.081a.109.109,0,0,1-.071.026A.11.11,0,0,1,9807.671,1071.859Zm-26.628-6.705s-.912-2.224-1.643-4c-3.975-9.682-9.428-13.515-9.57-13.613l-.016-.009c-1.525-.779-1.172.3-1.086.537a.2.2,0,0,0,.04.06c1.28,1.291,2.5,2.29,3.345,3.237,1.049,1.171,2.329,2.816,2.423,3.581.1.85-.483,1.8-1.073,1.485-.218-.113-.5-.965-1.278-1.754a25.23,25.23,0,0,0-5.856-4.049,36.093,36.093,0,0,1-6.652-4.719c-9.814-8.577-9.047-14.211-8.8-15.234a.111.111,0,0,1,.182-.047c7.778,7.022,9.912,6.532,12.787,7.551a36.884,36.884,0,0,1,6.532,2.612,25.407,25.407,0,0,1,4.019,3.563,9.268,9.268,0,0,1,.746.894c5.689,7.769,7.189,18.961,7.246,19.437a.262.262,0,0,1,0,.073c-.1.607-.336.787-.584.787A1.35,1.35,0,0,1,9781.043,1065.154Zm19.941-1.11a.273.273,0,0,1,0-.074c.083-.472,2.218-11.558,8.337-18.987a9.439,9.439,0,0,1,.8-.851,25.426,25.426,0,0,1,4.215-3.325,36.676,36.676,0,0,1,6.67-2.231c2.93-.852,5.031-.24,13.2-6.8a.11.11,0,0,1,.176.058c.187,1.036.633,6.7-9.652,14.7a36.229,36.229,0,0,1-6.909,4.329,25.219,25.219,0,0,0-6.079,3.7c-.82.743-1.151,1.578-1.375,1.679-.606.276-1.139-.7-.988-1.546.139-.757,1.51-2.326,2.622-3.436.9-.9,2.172-1.824,3.524-3.038a.177.177,0,0,0,.043-.058c.1-.231.513-1.288-1.053-.6l-.016.007c-.148.091-5.811,3.6-10.329,13.04l-1.868,3.9a1.4,1.4,0,0,1-.745.347C9801.294,1064.863,9801.051,1064.679,9800.984,1064.044Zm-4.636-1.235c-.843-.622-5.049-4.416-3.081-17.35a36.8,36.8,0,0,1,2.039-7.934,25.589,25.589,0,0,0,1.862-6.9c.085-1.108-.246-1.942-.154-2.17.251-.622,1.308-.283,1.774.432.42.644.5,2.734.455,4.309-.037,1.276-.323,2.831-.47,4.649a.165.165,0,0,0,.008.072c.085.236.511,1.288,1.173-.3l.006-.016c.046-.169,1.738-6.645-1.452-16.615l-1.321-4.122s.129-1.555,1.275-.57a.241.241,0,0,1,.05.054c.263.4,6.312,9.909,6.969,19.539a9.139,9.139,0,0,1,0,1.168,25.8,25.8,0,0,1-.773,5.336,37.219,37.219,0,0,1-3.3,6.248c-1.537,2.651-3.479,3.668-4.895,14.091a.109.109,0,0,1-.062.086.116.116,0,0,1-.05.012A.114.114,0,0,1,9796.349,1062.808Zm-10.063-1.227a.243.243,0,0,1-.048-.056c-.254-.406-6.1-10.041-6.558-19.683a9.691,9.691,0,0,1,.018-1.167,25.837,25.837,0,0,1,.887-5.319,37.109,37.109,0,0,1,3.432-6.177c1.592-2.618,3.554-3.594,5.188-13.984a.109.109,0,0,1,.063-.086.115.115,0,0,1,.106.007c.83.638,4.955,4.521,2.716,17.412a36.572,36.572,0,0,1-2.2,7.888,25.592,25.592,0,0,0-2.008,6.864c-.107,1.105.207,1.947.109,2.172-.263.616-1.312.255-1.764-.47-.406-.653-.445-2.743-.365-4.318.064-1.273.382-2.821.566-4.635a.154.154,0,0,0-.006-.073c-.08-.237-.483-1.3-1.18.273l-.006.017c-.049.168-1.877,6.606,1.105,16.643l1.233,4.149s-.093.883-.622.883A1.074,1.074,0,0,1,9786.285,1061.582Z" transform="translate(-9727.738 -1014.596)" fill="#fff" stroke="rgba(0,0,0,0)" stroke-miterlimit="10" stroke-width="1"/>
</svg>
