<svg xmlns="http://www.w3.org/2000/svg" xmlns:xlink="http://www.w3.org/1999/xlink" width="500" height="389" viewBox="0 0 500 389">
  <defs>
    <clipPath id="clip-No_data">
      <rect width="500" height="389"/>
    </clipPath>
  </defs>
  <g id="No_data" data-name="No data" clip-path="url(#clip-No_data)">
    <g id="Group_1657" data-name="Group 1657" transform="translate(0 -54.953)">
      <g id="Background_Complete" data-name="Background Complete">
        <g id="Group_1" data-name="Group 1">
          <rect id="Rectangle_1" data-name="Rectangle 1" width="500" height="0.25" transform="translate(0 382.398)" fill="#ebebeb"/>
          <rect id="Rectangle_2" data-name="Rectangle 2" width="33.122" height="0.25" transform="translate(416.779 398.494)" fill="#ebebeb"/>
          <rect id="Rectangle_3" data-name="Rectangle 3" width="8.693" height="0.25" transform="translate(322.527 401.208)" fill="#ebebeb"/>
          <rect id="Rectangle_4" data-name="Rectangle 4" width="19.192" height="0.25" transform="translate(396.586 389.208)" fill="#ebebeb"/>
          <rect id="Rectangle_5" data-name="Rectangle 5" width="43.193" height="0.25" transform="translate(52.459 390.888)" fill="#ebebeb"/>
          <rect id="Rectangle_6" data-name="Rectangle 6" width="6.333" height="0.25" transform="translate(104.556 390.888)" fill="#ebebeb"/>
          <rect id="Rectangle_7" data-name="Rectangle 7" width="93.676" height="0.25" transform="translate(131.471 395.111)" fill="#ebebeb"/>
          <path id="Path_1" data-name="Path 1" d="M237.014,337.8H43.915a5.715,5.715,0,0,1-5.708-5.708V60.66a5.714,5.714,0,0,1,5.708-5.707h193.1a5.714,5.714,0,0,1,5.707,5.707V332.092A5.715,5.715,0,0,1,237.014,337.8ZM43.915,55.2a5.463,5.463,0,0,0-5.458,5.457V332.092a5.464,5.464,0,0,0,5.458,5.458h193.1a5.463,5.463,0,0,0,5.457-5.458V60.66a5.463,5.463,0,0,0-5.457-5.457Z" fill="#ebebeb"/>
          <path id="Path_2" data-name="Path 2" d="M453.31,337.8h-193.1a5.714,5.714,0,0,1-5.707-5.708V60.66a5.713,5.713,0,0,1,5.707-5.707h193.1a5.714,5.714,0,0,1,5.709,5.707V332.092A5.715,5.715,0,0,1,453.31,337.8ZM260.212,55.2a5.463,5.463,0,0,0-5.457,5.457V332.092a5.463,5.463,0,0,0,5.457,5.458h193.1a5.464,5.464,0,0,0,5.459-5.458V60.66A5.464,5.464,0,0,0,453.31,55.2Z" fill="#ebebeb"/>
        </g>
        <g id="Group_2" data-name="Group 2">
          <rect id="Rectangle_8" data-name="Rectangle 8" width="137.781" height="90.227" transform="translate(427.472 174.059) rotate(180)" fill="#e6e6e6"/>
          <rect id="Rectangle_9" data-name="Rectangle 9" width="140.02" height="90.227" transform="translate(425.507 174.059) rotate(180)" fill="#f0f0f0"/>
          <rect id="Rectangle_10" data-name="Rectangle 10" width="137.781" height="17.708" transform="translate(427.472 191.766) rotate(180)" fill="#e6e6e6"/>
          <rect id="Rectangle_11" data-name="Rectangle 11" width="140.02" height="17.708" transform="translate(418.504 191.766) rotate(180)" fill="#f0f0f0"/>
          <rect id="Rectangle_12" data-name="Rectangle 12" width="78.456" height="128.249" transform="translate(419.622 89.717) rotate(90)" fill="#fafafa"/>
          <path id="Path_3" data-name="Path 3" d="M390.7,168.174,374.322,89.718H348.761l16.381,78.456Z" fill="#fff"/>
          <path id="Path_4" data-name="Path 4" d="M416.9,162.315a.42.42,0,0,0,.42-.42V93.546a.42.42,0,0,0-.841,0V161.9A.421.421,0,0,0,416.9,162.315Z" fill="#f0f0f0"/>
          <path id="Path_5" data-name="Path 5" d="M359.65,168.174,343.27,89.718H333.3l16.381,78.456Z" fill="#fff"/>
          <rect id="Rectangle_13" data-name="Rectangle 13" width="78.456" height="0.747" transform="translate(292.12 89.717) rotate(90)" fill="#e6e6e6"/>
          <path id="Path_6" data-name="Path 6" d="M284.095,98.591H421.876L422.417,92H284.636Z" fill="#ebebeb" opacity="0.6"/>
          <path id="Path_7" data-name="Path 7" d="M284.095,109.393H421.876l.542-6.586H284.636Z" fill="#ebebeb" opacity="0.6"/>
          <path id="Path_8" data-name="Path 8" d="M284.095,120.2H421.876l.542-6.586H284.636Z" fill="#ebebeb" opacity="0.6"/>
          <path id="Path_9" data-name="Path 9" d="M284.095,131H421.876l.542-6.586H284.636Z" fill="#ebebeb" opacity="0.6"/>
          <path id="Path_10" data-name="Path 10" d="M284.095,141.8H421.876l.542-6.586H284.636Z" fill="#ebebeb" opacity="0.6"/>
          <path id="Path_11" data-name="Path 11" d="M284.095,152.6H421.876l.542-6.586H284.636Z" fill="#ebebeb" opacity="0.6"/>
        </g>
        <g id="Group_5" data-name="Group 5">
          <g id="Group_4" data-name="Group 4">
            <g id="Group_3" data-name="Group 3">
              <rect id="Rectangle_14" data-name="Rectangle 14" width="28.889" height="5.696" transform="translate(378.799 316.781)" fill="#e6e6e6"/>
              <rect id="Rectangle_15" data-name="Rectangle 15" width="5.333" height="131.065" transform="translate(329.641 382.398) rotate(180)" fill="#e6e6e6"/>
              <rect id="Rectangle_16" data-name="Rectangle 16" width="72.963" height="5.696" transform="translate(378.799 322.477) rotate(180)" fill="#f5f5f5"/>
              <rect id="Rectangle_17" data-name="Rectangle 17" width="28.889" height="5.696" transform="translate(378.799 347.948)" fill="#e6e6e6"/>
              <rect id="Rectangle_18" data-name="Rectangle 18" width="72.963" height="5.696" transform="translate(378.799 353.644) rotate(180)" fill="#f5f5f5"/>
              <rect id="Rectangle_19" data-name="Rectangle 19" width="28.889" height="5.696" transform="translate(378.799 254.448)" fill="#e6e6e6"/>
              <rect id="Rectangle_20" data-name="Rectangle 20" width="72.963" height="5.696" transform="translate(378.799 260.144) rotate(180)" fill="#f5f5f5"/>
              <rect id="Rectangle_21" data-name="Rectangle 21" width="28.889" height="5.696" transform="translate(378.799 285.615)" fill="#e6e6e6"/>
              <rect id="Rectangle_22" data-name="Rectangle 22" width="72.963" height="5.696" transform="translate(378.799 291.31) rotate(180)" fill="#f5f5f5"/>
            </g>
          </g>
          <rect id="Rectangle_23" data-name="Rectangle 23" width="5.333" height="131.065" transform="translate(402.604 382.398) rotate(180)" fill="#e6e6e6"/>
          <rect id="Rectangle_24" data-name="Rectangle 24" width="5.333" height="131.065" transform="translate(378.799 382.398) rotate(180)" fill="#f5f5f5"/>
          <rect id="Rectangle_25" data-name="Rectangle 25" width="5.333" height="131.065" transform="translate(311.169 382.398) rotate(180)" fill="#f5f5f5"/>
        </g>
        <g id="Group_7" data-name="Group 7">
          <g id="Group_6" data-name="Group 6">
            <rect id="Rectangle_26" data-name="Rectangle 26" width="54.578" height="105.892" transform="translate(119.952 382.399) rotate(180)" fill="#e6e6e6"/>
            <path id="Path_12" data-name="Path 12" d="M79.948,382.4H65.374V367.781H95.228Z" fill="#fafafa"/>
            <rect id="Rectangle_27" data-name="Rectangle 27" width="54.578" height="105.892" transform="translate(268.761 382.399) rotate(180)" fill="#e6e6e6"/>
            <rect id="Rectangle_28" data-name="Rectangle 28" width="161.529" height="100.861" transform="translate(226.903 377.368) rotate(180)" fill="#fafafa"/>
            <path id="Path_13" data-name="Path 13" d="M212.329,382.4H226.9V367.781H197.048Z" fill="#fafafa"/>
            <rect id="Rectangle_29" data-name="Rectangle 29" width="138.917" height="25.241" transform="translate(215.597 339.332) rotate(180)" fill="#f0f0f0"/>
            <rect id="Rectangle_30" data-name="Rectangle 30" width="138.917" height="25.241" transform="translate(215.597 369.967) rotate(180)" fill="#f0f0f0"/>
            <path id="Rectangle_31" data-name="Rectangle 31" d="M4.576,0H90.685a4.576,4.576,0,0,1,4.576,4.576v.308a0,0,0,0,1,0,0H0a0,0,0,0,1,0,0V4.576A4.576,4.576,0,0,1,4.576,0Z" transform="translate(193.769 316.79) rotate(180)" fill="#fafafa"/>
            <rect id="Rectangle_32" data-name="Rectangle 32" width="138.917" height="25.241" transform="translate(215.597 308.696) rotate(180)" fill="#f0f0f0"/>
            <path id="Rectangle_33" data-name="Rectangle 33" d="M4.576,0H90.685a4.576,4.576,0,0,1,4.576,4.576v.308a0,0,0,0,1,0,0H0a0,0,0,0,1,0,0V4.576A4.576,4.576,0,0,1,4.576,0Z" transform="translate(193.769 286.154) rotate(180)" fill="#fafafa"/>
            <path id="Rectangle_34" data-name="Rectangle 34" d="M4.576,0H90.685a4.576,4.576,0,0,1,4.576,4.576v.308a0,0,0,0,1,0,0H0a0,0,0,0,1,0,0V4.576A4.576,4.576,0,0,1,4.576,0Z" transform="translate(193.769 347.425) rotate(180)" fill="#fafafa"/>
          </g>
        </g>
        <g id="Group_8" data-name="Group 8">
          <rect id="Rectangle_35" data-name="Rectangle 35" width="137.781" height="90.227" transform="translate(211.849 174.059) rotate(180)" fill="#e6e6e6"/>
          <rect id="Rectangle_36" data-name="Rectangle 36" width="140.02" height="90.227" transform="translate(209.885 174.059) rotate(180)" fill="#f0f0f0"/>
          <rect id="Rectangle_37" data-name="Rectangle 37" width="137.781" height="17.708" transform="translate(211.849 191.766) rotate(180)" fill="#e6e6e6"/>
          <rect id="Rectangle_38" data-name="Rectangle 38" width="140.02" height="17.708" transform="translate(202.881 191.766) rotate(180)" fill="#f0f0f0"/>
          <rect id="Rectangle_39" data-name="Rectangle 39" width="78.456" height="128.249" transform="translate(203.999 89.717) rotate(90)" fill="#fafafa"/>
          <path id="Path_14" data-name="Path 14" d="M175.08,168.174,158.7,89.718H133.138l16.381,78.456Z" fill="#fff"/>
          <path id="Path_15" data-name="Path 15" d="M201.274,162.315a.42.42,0,0,0,.421-.42V93.546a.421.421,0,0,0-.841,0V161.9A.42.42,0,0,0,201.274,162.315Z" fill="#f0f0f0"/>
          <path id="Path_16" data-name="Path 16" d="M144.028,168.174,127.647,89.718h-9.965l16.381,78.456Z" fill="#fff"/>
          <rect id="Rectangle_40" data-name="Rectangle 40" width="78.456" height="0.747" transform="translate(76.497 89.717) rotate(90)" fill="#e6e6e6"/>
          <path id="Path_17" data-name="Path 17" d="M68.472,98.591H206.253L206.795,92H69.014Z" fill="#ebebeb" opacity="0.6"/>
          <path id="Path_18" data-name="Path 18" d="M68.472,102.307H206.253l.542-6.586H69.014Z" fill="#ebebeb" opacity="0.6"/>
          <path id="Path_19" data-name="Path 19" d="M68.472,106.022H206.253l.542-6.586H69.014Z" fill="#ebebeb" opacity="0.6"/>
          <path id="Path_20" data-name="Path 20" d="M68.472,109.738H206.253l.542-6.586H69.014Z" fill="#ebebeb" opacity="0.6"/>
          <path id="Path_21" data-name="Path 21" d="M68.472,113.453H206.253l.542-6.586H69.014Z" fill="#ebebeb" opacity="0.6"/>
          <path id="Path_22" data-name="Path 22" d="M68.472,117.168H206.253l.542-6.586H69.014Z" fill="#ebebeb" opacity="0.6"/>
        </g>
        <g id="Group_9" data-name="Group 9">
          <rect id="Rectangle_41" data-name="Rectangle 41" width="4.763" height="53.092" transform="translate(100.777 273.271) rotate(180)" fill="#f5f5f5"/>
          <rect id="Rectangle_42" data-name="Rectangle 42" width="1.345" height="53.092" transform="translate(97.972 273.234) rotate(180)" fill="#fafafa"/>
          <rect id="Rectangle_43" data-name="Rectangle 43" width="0.527" height="53.092" transform="translate(99.063 273.234) rotate(180)" fill="#fafafa"/>
          <path id="Rectangle_44" data-name="Rectangle 44" d="M0,0H35.264a0,0,0,0,1,0,0V0a4.443,4.443,0,0,1-4.443,4.443H4.443A4.443,4.443,0,0,1,0,0V0A0,0,0,0,1,0,0Z" transform="translate(116.027 276.507) rotate(180)" fill="#f0f0f0"/>
          <path id="Path_23" data-name="Path 23" d="M89.835,253.138h0a1.373,1.373,0,0,0,1.37-1.37v-34.81a1.374,1.374,0,0,0-1.37-1.37h0a1.375,1.375,0,0,0-1.37,1.37v34.81A1.374,1.374,0,0,0,89.835,253.138Z" fill="#f0f0f0"/>
          <path id="Path_24" data-name="Path 24" d="M77.074,232.8h42.643L114.811,203H81.979Z" fill="#e0e0e0"/>
        </g>
      </g>
      <g id="Shadow">
        <ellipse id="_Path_" data-name="&lt;Path&gt;" cx="193.889" cy="11.323" rx="193.889" ry="11.323" transform="translate(56.111 404.915)" fill="#f5f5f5"/>
      </g>
      <g id="Window_No_Data" data-name="Window No Data">
        <g id="Group_21" data-name="Group 21">
          <g id="Group_13" data-name="Group 13">
            <rect id="Rectangle_45" data-name="Rectangle 45" width="1" height="18.489" transform="matrix(0.997, -0.072, 0.072, 0.997, 103.12, 202.431)" fill="#fe404f"/>
            <rect id="Rectangle_46" data-name="Rectangle 46" width="1" height="6.955" transform="translate(105.133 230.396) rotate(-4.121)" fill="#fe404f"/>
            <path id="Path_27" data-name="Path 27" d="M337.711,315.161H123.553a9.648,9.648,0,0,1-9.441-8.807L103.59,160.225a8.107,8.107,0,0,1,8.172-8.807H325.92a9.647,9.647,0,0,1,9.441,8.807l10.523,146.129A8.108,8.108,0,0,1,337.711,315.161Z" fill="#fe404f"/>
            <g id="Group_12" data-name="Group 12">
              <g id="Group_11" data-name="Group 11">
                <path id="Path_28" data-name="Path 28" d="M338.532,315.161H124.374a9.648,9.648,0,0,1-9.441-8.807L104.411,160.225a8.107,8.107,0,0,1,8.172-8.807H326.741a9.648,9.648,0,0,1,9.441,8.807L346.7,306.354A8.108,8.108,0,0,1,338.532,315.161Z" fill="#f05259"/>
                <path id="Path_29" data-name="Path 29" d="M338.532,315.161H124.374a9.648,9.648,0,0,1-9.441-8.807L104.411,160.225a8.107,8.107,0,0,1,8.172-8.807H326.741a9.648,9.648,0,0,1,9.441,8.807L346.7,306.354A8.108,8.108,0,0,1,338.532,315.161Z" fill="#fff" opacity="0.5"/>
              </g>
              <path id="Path_30" data-name="Path 30" d="M327.058,155.821H112.9q-.363,0-.717.029c-5.475.451-4.356,8.778,1.169,8.778H327.875c5.525,0,5.444-8.327-.1-8.778Q327.421,155.821,327.058,155.821Z" fill="#fe3b4f"/>
              <path id="Path_31" data-name="Path 31" d="M118.478,160.224a1.854,1.854,0,0,1-1.874,2.02,2.2,2.2,0,0,1-2.164-2.02,1.853,1.853,0,0,1,1.874-2.018A2.2,2.2,0,0,1,118.478,160.224Z" fill="#fafafa"/>
              <path id="Path_32" data-name="Path 32" d="M125.346,160.224a1.854,1.854,0,0,1-1.874,2.02,2.2,2.2,0,0,1-2.164-2.02,1.852,1.852,0,0,1,1.873-2.018A2.2,2.2,0,0,1,125.346,160.224Z" fill="#fafafa"/>
              <path id="Path_33" data-name="Path 33" d="M132.214,160.224a1.854,1.854,0,0,1-1.874,2.02,2.2,2.2,0,0,1-2.164-2.02,1.852,1.852,0,0,1,1.873-2.018A2.205,2.205,0,0,1,132.214,160.224Z" fill="#fafafa"/>
            </g>
            <path id="Path_34" data-name="Path 34" d="M332.854,300.577h-204.9a3.487,3.487,0,0,1-3.422-3.193l-8.654-120.173a2.932,2.932,0,0,1,2.963-3.193h204.9a3.488,3.488,0,0,1,3.423,3.193l8.653,120.173A2.931,2.931,0,0,1,332.854,300.577Z" fill="#fff"/>
          </g>
          <g id="Group_20" data-name="Group 20">
            <g id="Group_18" data-name="Group 18">
              <g id="Group_16" data-name="Group 16">
                <g id="Group_14" data-name="Group 14">
                  <path id="Path_35" data-name="Path 35" d="M246.53,254.8l-3.335-46.319L233.087,202.4h-27.8l3.773,52.4Z" fill="#fff"/>
                  <path id="Path_36" data-name="Path 36" d="M246.53,255.283H209.057a.486.486,0,0,1-.484-.45l-3.773-52.4a.485.485,0,0,1,.483-.519h27.8a.485.485,0,0,1,.25.069l10.107,6.084a.486.486,0,0,1,.234.38l3.335,46.319a.485.485,0,0,1-.483.52Zm-37.022-.969h36.5l-3.28-45.549-9.776-5.885H205.8Z" fill="#f7a9ac"/>
                </g>
                <g id="Group_15" data-name="Group 15">
                  <path id="Path_37" data-name="Path 37" d="M243.195,208.479,233.087,202.4l3.711,8.059Z" fill="#ebebeb"/>
                  <path id="Path_38" data-name="Path 38" d="M236.8,210.939a.484.484,0,0,1-.44-.282l-3.711-8.059a.485.485,0,0,1,.69-.618l10.107,6.084a.484.484,0,0,1-.107.878l-6.4,1.976A.5.5,0,0,1,236.8,210.939Zm-2.613-7.317,2.876,6.245,4.956-1.531Z" fill="#f7a9ac"/>
                </g>
              </g>
              <g id="Group_17" data-name="Group 17">
                <path id="Path_39" data-name="Path 39" d="M220.969,226.005a1.943,1.943,0,0,1-1.964,2.117,2.311,2.311,0,0,1-2.27-2.117,1.943,1.943,0,0,1,1.965-2.116A2.311,2.311,0,0,1,220.969,226.005Z" fill="#f7a9ac"/>
                <path id="Path_40" data-name="Path 40" d="M234.705,226.005a1.944,1.944,0,0,1-1.965,2.117,2.311,2.311,0,0,1-2.269-2.117,1.943,1.943,0,0,1,1.964-2.116A2.311,2.311,0,0,1,234.705,226.005Z" fill="#f7a9ac"/>
                <path id="Path_41" data-name="Path 41" d="M238.58,239.735a.485.485,0,0,1-.483-.45c-.245-3.4-5.584-6.172-11.9-6.172-4.185,0-7.943,1.244-9.806,3.247a3.737,3.737,0,0,0-1.14,2.856.485.485,0,0,1-.967.069,4.73,4.73,0,0,1,1.4-3.585c2.041-2.194,6.071-3.557,10.516-3.557,6.929,0,12.581,3.107,12.867,7.073a.485.485,0,0,1-.449.518Z" fill="#f7a9ac"/>
              </g>
              <path id="Path_42" data-name="Path 42" d="M213.167,221.717a.486.486,0,0,1-.355-.815l2.123-2.288a.485.485,0,0,1,.711.659l-2.123,2.288A.483.483,0,0,1,213.167,221.717Z" fill="#f7a9ac"/>
              <path id="Path_43" data-name="Path 43" d="M237.584,221.717a.483.483,0,0,1-.33-.131L234.8,219.3a.484.484,0,1,1,.661-.708l2.453,2.288a.484.484,0,0,1-.331.839Z" fill="#f7a9ac"/>
            </g>
            <g id="Group_19" data-name="Group 19">
              <path id="Path_44" data-name="Path 44" d="M202.257,265.153h2.26l3.262,4.333-.313-4.333h2.282l.564,7.832H208.03l-3.242-4.3.309,4.3h-2.276Z" fill="#fe3b4f"/>
              <path id="Path_45" data-name="Path 45" d="M211.334,269.074a3.423,3.423,0,0,1,3.753-4.055,4.369,4.369,0,0,1,3.089,1.05,4.254,4.254,0,0,1,1.269,2.941,4.648,4.648,0,0,1-.3,2.252,2.968,2.968,0,0,1-1.237,1.368,4.208,4.208,0,0,1-2.142.489,5.221,5.221,0,0,1-2.224-.422,3.668,3.668,0,0,1-1.5-1.336A4.689,4.689,0,0,1,211.334,269.074Zm2.421.011a2.781,2.781,0,0,0,.564,1.7,1.6,1.6,0,0,0,1.236.519,1.384,1.384,0,0,0,1.171-.508,2.772,2.772,0,0,0,.3-1.822,2.578,2.578,0,0,0-.563-1.616,1.641,1.641,0,0,0-1.247-.51,1.362,1.362,0,0,0-1.138.518A2.513,2.513,0,0,0,213.755,269.085Z" fill="#fe3b4f"/>
              <path id="Path_46" data-name="Path 46" d="M224.152,265.153h3.6a4.473,4.473,0,0,1,1.739.288,3.107,3.107,0,0,1,1.141.828,3.739,3.739,0,0,1,.71,1.256,5.987,5.987,0,0,1,.3,1.517,5.131,5.131,0,0,1-.146,1.948,2.916,2.916,0,0,1-.71,1.159,2.36,2.36,0,0,1-1.045.623,5.457,5.457,0,0,1-1.427.213h-3.6Zm2.548,1.773.309,4.28h.593a2.411,2.411,0,0,0,1.067-.168,1.032,1.032,0,0,0,.46-.588,3.591,3.591,0,0,0,.083-1.36,2.792,2.792,0,0,0-.528-1.7,1.835,1.835,0,0,0-1.38-.46Z" fill="#fe3b4f"/>
              <path id="Path_47" data-name="Path 47" d="M237.448,271.692H234.7l-.289,1.293H231.94l2.38-7.832h2.64l3.507,7.832h-2.534ZM236.824,270l-1.068-2.816L235.1,270Z" fill="#fe3b4f"/>
              <path id="Path_48" data-name="Path 48" d="M239.369,265.153h7.357l.139,1.934H244.4l.425,5.9H242.4l-.424-5.9h-2.469Z" fill="#fe3b4f"/>
              <path id="Path_49" data-name="Path 49" d="M252.365,271.692h-2.747l-.289,1.293h-2.472l2.38-7.832h2.64l3.508,7.832H252.85ZM251.741,270l-1.067-2.816L250.021,270Z" fill="#fe3b4f"/>
            </g>
          </g>
        </g>
      </g>
      <g id="Character">
        <g id="Group_30" data-name="Group 30">
          <path id="Path_50" data-name="Path 50" d="M353.688,173.08c.894-.448,1.959-1.027,2.944-1.568,1-.551,2-1.126,2.984-1.724,1.959-1.206,3.933-2.4,5.808-3.722a77.046,77.046,0,0,0,10.512-8.653c.418-.382.773-.806,1.16-1.209l.57-.613.286-.305.143-.154c.037-.04.029-.031.01-.008l-.031.049c-.143.266-.024.186.031-.072a5.46,5.46,0,0,0,.141-1.091,30.015,30.015,0,0,0-.729-6.318c-.89-4.486-2.238-9.1-3.571-13.618l3.886-1.7a81.974,81.974,0,0,1,6.112,13.6,31.872,31.872,0,0,1,1.719,7.893,12.218,12.218,0,0,1-.083,2.511,7.607,7.607,0,0,1-1.223,3.283l-.166.231-.129.168-.154.188-.308.374-.618.75c-.417.493-.812,1.015-1.255,1.477a71.148,71.148,0,0,1-11.38,10.152c-2.037,1.489-4.12,2.9-6.283,4.19q-1.615.978-3.277,1.885c-1.123.625-2.191,1.168-3.467,1.766Z" fill="#ffb573"/>
          <path id="Path_51" data-name="Path 51" d="M344.794,408.179a10.1,10.1,0,0,0,2.211-.3.2.2,0,0,0,.064-.358c-.287-.189-2.831-1.831-3.8-1.39a.675.675,0,0,0-.4.558,1.128,1.128,0,0,0,.329,1.054A2.4,2.4,0,0,0,344.794,408.179Zm1.65-.584c-1.458.291-2.555.241-2.979-.146a.745.745,0,0,1-.2-.706.281.281,0,0,1,.165-.251C343.94,406.26,345.407,406.968,346.444,407.6Z" fill="#fd4a4e"/>
          <path id="Path_52" data-name="Path 52" d="M346.96,407.884a.2.2,0,0,0,.2-.2c0-.1-.011-2.514-.922-3.32a1.033,1.033,0,0,0-.84-.265.691.691,0,0,0-.667.553c-.189.944,1.334,2.752,2.133,3.2A.2.2,0,0,0,346.96,407.884Zm-1.425-3.4a.643.643,0,0,1,.438.174,4.532,4.532,0,0,1,.776,2.638c-.8-.636-1.746-1.994-1.631-2.569.019-.094.073-.206.326-.237A.707.707,0,0,1,345.535,404.488Z" fill="#fd4a4e"/>
          <path id="Path_53" data-name="Path 53" d="M346.223,148.067c-.974,4.97-3.028,15.037.45,18.354,0,0-1.359,5.042-10.594,5.042-10.156,0-4.854-5.042-4.854-5.042,5.543-1.323,5.4-5.436,4.434-9.3Z" fill="#ffb573"/>
          <path id="Path_54" data-name="Path 54" d="M329.284,168.424c-1.594.216-.238-3.913.41-4.341,1.5-.989,20.851-2.39,20.725-.041-.08,1.011-.555,2.984-1.4,3.654S343.2,166.342,329.284,168.424Z" fill="#263238"/>
          <path id="Path_55" data-name="Path 55" d="M332.437,167.034c-1.266.428-1.146-3.733-.714-4.234,1-1.158,16.663-5.183,17.129-2.906.179.984.265,2.948-.272,3.71S343.439,163.1,332.437,167.034Z" fill="#263238"/>
          <path id="Path_56" data-name="Path 56" d="M326.61,139.108a.4.4,0,0,1-.331-.145,3.158,3.158,0,0,0-2.589-1.228.4.4,0,1,1-.086-.789,3.937,3.937,0,0,1,3.29,1.514.4.4,0,0,1-.284.648Z" fill="#263238"/>
          <path id="Path_57" data-name="Path 57" d="M324.672,144a18.054,18.054,0,0,1-1.974,4.527,2.906,2.906,0,0,0,2.441.214Z" fill="#ffb573"/>
          <path id="Path_58" data-name="Path 58" d="M325.16,142.787c.066.672-.236,1.252-.676,1.295s-.849-.467-.915-1.139.236-1.253.676-1.3S325.094,142.114,325.16,142.787Z" fill="#263238"/>
          <path id="Path_59" data-name="Path 59" d="M324.443,141.665l-1.661-.306S323.735,142.539,324.443,141.665Z" fill="#263238"/>
          <path id="Path_60" data-name="Path 60" d="M356.7,407.685h-8.376l.657-19.4h8.376Z" fill="#ffb573"/>
          <path id="Path_61" data-name="Path 61" d="M347.661,406.715h9.41a.664.664,0,0,1,.669.573l1.072,7.445a1.347,1.347,0,0,1-1.343,1.49c-3.281-.057-4.862-.249-9-.249-2.546,0-6.266.264-9.782.264-3.439,0-3.7-3.477-2.239-3.791,6.564-1.412,7.6-3.359,9.813-5.217A2.19,2.19,0,0,1,347.661,406.715Z" fill="#263238"/>
          <g id="Group_22" data-name="Group 22" opacity="0.2">
            <path id="Path_62" data-name="Path 62" d="M357.359,388.293h-8.38l-.335,10h8.38Z"/>
          </g>
          <path id="Path_63" data-name="Path 63" d="M323.373,178.044a164.358,164.358,0,0,1-15.049-6.754,90.787,90.787,0,0,1-14.4-8.774,33.1,33.1,0,0,1-3.421-3.07c-.279-.3-.558-.578-.832-.922a13.233,13.233,0,0,1-.879-1.131,7.967,7.967,0,0,1-1.338-3.609,8.125,8.125,0,0,1,.491-3.62,10.95,10.95,0,0,1,1.407-2.608,18.656,18.656,0,0,1,3.389-3.52,41.894,41.894,0,0,1,7.3-4.666c1.24-.659,2.5-1.252,3.784-1.8s2.541-1.071,3.906-1.54l1.775,3.853c-4.361,2.749-8.88,5.77-12.2,9.159a13.708,13.708,0,0,0-1.958,2.49c-.475.787-.469,1.377-.388,1.331.041,0,.024-.018.14.1l.4.428c.149.178.361.362.549.545a25.634,25.634,0,0,0,2.7,2.169,64.3,64.3,0,0,0,6.433,3.97c2.255,1.252,4.573,2.45,6.935,3.586,4.713,2.257,9.6,4.429,14.392,6.413Z" fill="#ffb573"/>
          <path id="Path_64" data-name="Path 64" d="M311.969,137.154l1.385-3-6.3-2.187s-1.961,5.9.377,8.627h0A6.042,6.042,0,0,0,311.969,137.154Z" fill="#ffb573"/>
          <path id="Path_65" data-name="Path 65" d="M313.354,127.656l-5.033-1.451-1.263,5.758,6.3,2.186Z" fill="#ffb573"/>
          <path id="Path_66" data-name="Path 66" d="M378.35,134.441l.733-7.02-6.488,1.525s-.1,6.58,3.337,7.629Z" fill="#ffb573"/>
          <path id="Path_67" data-name="Path 67" d="M375.958,122.507l-4.227,1.974.865,4.465,6.488-1.525Z" fill="#ffb573"/>
          <path id="Path_68" data-name="Path 68" d="M347.541,138.255c.305,8.307.611,11.817-3.143,16.466-5.646,6.992-15.917,5.55-18.7-2.5-2.5-7.245-2.582-19.613,5.178-23.694A11.339,11.339,0,0,1,347.541,138.255Z" fill="#ffb573"/>
          <g id="Group_23" data-name="Group 23">
            <path id="Path_69" data-name="Path 69" d="M343.921,154.705c8.156-3.524,13.52-10.955,11.255-22.574-2.166-11.116-9.671-12.214-12.771-9.908s-10.827-1.131-15.464,2.771c-8.034,6.761-.438,14.05,3.518,18.369C332.823,148.221,335.919,158.163,343.921,154.705Z" fill="#263238"/>
            <path id="Path_70" data-name="Path 70" d="M340.535,130.136a8.287,8.287,0,1,0,1.824-11.916A8.531,8.531,0,0,0,340.535,130.136Z" fill="#f26656"/>
            <path id="Path_71" data-name="Path 71" d="M342.652,123c-1.177-6.7,5.161-11.863,13.636-9.367s3.992,10.009,2.254,16.009,2.823,11.714,4.73,7.145-1.3-5.98-1.3-5.98,9,2.333.639,12.478-15.928-1.058-13.882-7.668C350.385,130.276,343.765,129.333,342.652,123Z" fill="#263238"/>
            <path id="Path_72" data-name="Path 72" d="M334.182,125.533c-3.869-2.019-10.421-3.651-14.15,2.623-1.763,2.967-1.08,6.989-1.08,6.989l11.389.758Z" fill="#263238"/>
            <path id="Path_73" data-name="Path 73" d="M317.612,133.177H317.6a.25.25,0,0,1-.234-.265c.011-.17.286-4.193,2.714-6.717,5.869-6.1,12.75-1.04,14.719.656a.25.25,0,0,1-.326.379c-1.885-1.623-8.467-6.47-14.032-.688-2.3,2.389-2.573,6.361-2.576,6.4A.25.25,0,0,1,317.612,133.177Z" fill="#263238"/>
          </g>
          <path id="Path_74" data-name="Path 74" d="M331.852,143.033a6.914,6.914,0,0,1-1.655,4.277c-1.382,1.616-2.966.821-3.329-.971-.327-1.613,0-4.4,1.744-5.374C330.333,140,331.867,141.183,331.852,143.033Z" fill="#ffb573"/>
          <g id="Group_24" data-name="Group 24">
            <path id="Path_75" data-name="Path 75" d="M330.053,219.122s.534,58.144,5.578,90.545c4.074,26.17,11.613,86.688,11.613,86.688h11.423s1.116-58.424-.952-84.308c-5.233-65.5,8.271-77.742-2.626-92.925Z" fill="#263238"/>
            <path id="Path_76" data-name="Path 76" d="M330.053,219.122s.534,58.144,5.578,90.545c4.074,26.17,11.613,86.688,11.613,86.688h11.423s1.116-58.424-.952-84.308c-5.233-65.5,8.271-77.742-2.626-92.925Z" fill="#fff" opacity="0.1"/>
          </g>
          <path id="Path_77" data-name="Path 77" d="M336.057,245.5c4.01,17.55.81,45.19-1.38,57.36-2.32-18.48-3.49-42.43-4.07-59.98C332.677,239.52,334.637,239.3,336.057,245.5Z" opacity="0.3"/>
          <path id="Path_78" data-name="Path 78" d="M345.681,396.582H360.23l.764-5.1-15.4-.521Z" fill="#f26656"/>
          <g id="Group_25" data-name="Group 25">
            <path id="Path_79" data-name="Path 79" d="M349.833,170.042c1.369-2.721,8.725-4.434,12.746-4.427l3.01,13.365s-8.011,11.89-11.343,10.629C350.31,188.122,346.9,175.872,349.833,170.042Z" fill="#407bff"/>
            <path id="Path_80" data-name="Path 80" d="M349.833,170.042c1.369-2.721,8.725-4.434,12.746-4.427l3.01,13.365s-8.011,11.89-11.343,10.629C350.31,188.122,346.9,175.872,349.833,170.042Z" fill="#fd4a4e"/>
          </g>
          <path id="Path_81" data-name="Path 81" d="M341.353,393.313a.2.2,0,0,0-.2-.3c-.42.063-4.122.651-4.622,1.708a.639.639,0,0,0,.038.625,1.1,1.1,0,0,0,.858.57c1.213.125,2.965-1.558,3.9-2.572A.23.23,0,0,0,341.353,393.313Zm-4.441,1.537c.343-.561,2.256-1.078,3.718-1.347-1.32,1.342-2.481,2.088-3.161,2.018a.713.713,0,0,1-.559-.379.25.25,0,0,1-.02-.252C336.9,394.877,336.9,394.863,336.912,394.85Z" fill="#fd4a4e"/>
          <path id="Path_82" data-name="Path 82" d="M341.353,393.313a.205.205,0,0,0,.018-.04.2.2,0,0,0-.037-.193c-.063-.073-1.546-1.782-2.913-1.871a1.436,1.436,0,0,0-1.09.369c-.411.368-.376.688-.273.892.433.858,3.093,1.156,4.166.934A.2.2,0,0,0,341.353,393.313Zm-3.915-1.259a.809.809,0,0,1,.158-.18,1.034,1.034,0,0,1,.8-.269,4.587,4.587,0,0,1,2.383,1.461c-1.185.1-3.106-.26-3.366-.775A.22.22,0,0,1,337.438,392.054Z" fill="#fd4a4e"/>
          <path id="Path_83" data-name="Path 83" d="M350.083,389.765l-7.661,3.4-3.414-7.1-4.461-9.3-.523-1.082,7.652-3.408.592,1.218,4.325,9.01Z" fill="#ffb573"/>
          <path id="Path_84" data-name="Path 84" d="M346.593,382.5l-7.585,3.567-4.461-9.3,7.721-3.272Z" opacity="0.2"/>
          <g id="Group_26" data-name="Group 26">
            <path id="Path_85" data-name="Path 85" d="M321.069,219.122S296.6,279.956,303.229,308.6c5.995,25.89,32.5,74.921,32.5,74.921l10.25-5.145s-16.388-59.188-18.166-72.047c-3.459-25.018,18.776-60.333,18.776-87.211Z" fill="#263238"/>
            <path id="Path_86" data-name="Path 86" d="M321.069,219.122S296.6,279.956,303.229,308.6c5.995,25.89,32.5,74.921,32.5,74.921l10.25-5.145s-16.388-59.188-18.166-72.047c-3.459-25.018,18.776-60.333,18.776-87.211Z" fill="#fff" opacity="0.1"/>
          </g>
          <path id="Path_87" data-name="Path 87" d="M341.055,392.1l7.609-5.538a.663.663,0,0,1,.877.07l5.248,5.388a1.347,1.347,0,0,1-.209,1.995c-2.686,1.885-4.078,2.66-7.424,5.1-2.058,1.5-6.16,4.811-9,6.88-2.78,2.023-5.04-.632-4.041-1.748,4.476-5,5.419-8.1,6.114-10.9A2.187,2.187,0,0,1,341.055,392.1Z" fill="#263238"/>
          <path id="Path_88" data-name="Path 88" d="M335.073,385.694l13.23-6.051-1.7-5.392-14.168,6.462Z" fill="#f26656"/>
          <g id="Group_27" data-name="Group 27">
            <path id="Path_89" data-name="Path 89" d="M327.564,169.36c-1.1-2.841-10.657-5.957-15.453-7.045L310,178.083s7.831,11.256,11.269,10.324C325.335,187.308,329.916,175.447,327.564,169.36Z" fill="#407bff"/>
            <path id="Path_90" data-name="Path 90" d="M327.564,169.36c-1.1-2.841-10.657-5.957-15.453-7.045L310,178.083s7.831,11.256,11.269,10.324C325.335,187.308,329.916,175.447,327.564,169.36Z" fill="#fd4a4e"/>
          </g>
          <g id="Group_28" data-name="Group 28">
            <path id="Path_91" data-name="Path 91" d="M317.066,168.567s-3.99,1.4,4,50.555h34.02c-.571-13.846-.587-22.384,6.03-50.8a100.309,100.309,0,0,0-14.446-1.9,108.243,108.243,0,0,0-15.448,0C324.591,167.027,317.066,168.567,317.066,168.567Z" fill="#407bff"/>
            <path id="Path_92" data-name="Path 92" d="M317.066,168.567s-3.99,1.4,4,50.555h34.02c-.571-13.846-.587-22.384,6.03-50.8a100.309,100.309,0,0,0-14.446-1.9,108.243,108.243,0,0,0-15.448,0C324.591,167.027,317.066,168.567,317.066,168.567Z" fill="#fe3e4f"/>
          </g>
          <g id="Group_29" data-name="Group 29">
            <path id="Path_93" data-name="Path 93" d="M355.6,217.125l1.534,3.046c.119.236-.161.477-.554.477H320.9c-.306,0-.56-.151-.58-.343l-.307-3.045c-.021-.212.245-.39.58-.39h34.45A.618.618,0,0,1,355.6,217.125Z" fill="#f26c55"/>
            <path id="Path_94" data-name="Path 94" d="M355.6,217.125l1.534,3.046c.119.236-.161.477-.554.477H320.9c-.306,0-.56-.151-.58-.343l-.307-3.045c-.021-.212.245-.39.58-.39h34.45A.618.618,0,0,1,355.6,217.125Z" fill="#fff" opacity="0.3"/>
          </g>
          <path id="Path_95" data-name="Path 95" d="M350.971,220.977h.923c.184,0,.324-.094.311-.21l-.433-3.956c-.012-.116-.173-.211-.357-.211h-.922c-.184,0-.324.1-.312.211l.433,3.956C350.627,220.883,350.788,220.977,350.971,220.977Z" fill="#263238"/>
          <path id="Path_96" data-name="Path 96" d="M328.608,220.977h.922c.184,0,.324-.094.311-.21l-.433-3.956c-.012-.116-.173-.211-.357-.211h-.922c-.184,0-.324.1-.311.211l.432,3.956C328.263,220.883,328.424,220.977,328.608,220.977Z" fill="#263238"/>
        </g>
      </g>
    </g>
  </g>
</svg>
