<svg xmlns="http://www.w3.org/2000/svg" width="250.082" height="48.582" viewBox="0 0 250.082 48.582">
  <g id="Group_1581" data-name="Group 1581" transform="translate(-1027.291 -307.677)">
    <g id="Layer_4" data-name="Layer 4" transform="translate(800.761 140.369)">
      <g id="Group_1" data-name="Group 1" transform="translate(226.531 167.308)">
        <path id="Path_1" data-name="Path 1" d="M264.685,275.822H238.942a10.485,10.485,0,0,0,7.827,6.673l14.322,2.59-.79,4.952-1.822-.331a3.943,3.943,0,0,0,.117-1.534,3.465,3.465,0,0,0-6.92.3l-5.46-.988a3.507,3.507,0,0,0-3.3-2.545,3.4,3.4,0,0,0-2.757,1.448l-2.4-.435L231.907,270.8h29.349l1.681-5.521H230.61l-1.873-5.023h40.685Z" transform="translate(-228.316 -242.506)" fill="#d32237"/>
        <ellipse id="Ellipse_1" data-name="Ellipse 1" cx="2.658" cy="2.832" rx="2.658" ry="2.832" transform="translate(11.989 42.918)" fill="#d32237"/>
        <ellipse id="Ellipse_2" data-name="Ellipse 2" cx="2.658" cy="2.832" rx="2.658" ry="2.832" transform="translate(24.258 42.918)" fill="#d32237"/>
        <path id="Path_2" data-name="Path 2" d="M314.848,223.613l-1.3,2.708h-4.458c.793-3.173,2.255-7.622,4.085-7.015C315.987,220.231,314.848,223.613,314.848,223.613Z" transform="translate(-293.328 -209.332)" fill="#f5811f"/>
        <path id="Path_3" data-name="Path 3" d="M332.935,200.408v-3.681a3.648,3.648,0,0,1,.769,1.84l1.036-1.84s1.137-.712.869.641l-.8,1.71s1.137-.781,1.772-.6l-2.407,2.243S333.1,201.417,332.935,200.408Z" transform="translate(-312.617 -190.958)" fill="#038c3e"/>
        <path id="Path_4" data-name="Path 4" d="M273.359,187.074s-.468,2.9,1.337,4.014A3.552,3.552,0,0,0,273.359,187.074Z" transform="translate(-264.373 -183.3)" fill="#038c3e"/>
        <path id="Path_5" data-name="Path 5" d="M232.775,223.423h-5.884l-.067-.214a3.225,3.225,0,0,1,.267-1.808c.436-.812-.3-2.892-.534-3.57s1.069-3.42,2.706-1.482a6.7,6.7,0,0,0,3.539,2.185c.153.033.24.046.24.046C232.744,218.794,232.775,223.423,232.775,223.423Z" transform="translate(-226.531 -206.433)" fill="#038c3e"/>
        <path id="Path_6" data-name="Path 6" d="M265.844,222.091a5.557,5.557,0,0,1-.471,2.252h-8.979a5.607,5.607,0,0,1,.188-4.889,4.917,4.917,0,0,1,4.3-2.649A5.134,5.134,0,0,1,265.844,222.091Z" transform="translate(-250.31 -207.353)" fill="#ed1c24"/>
        <path id="Path_7" data-name="Path 7" d="M349.163,179.455V184.3h-6.952v-4.843a3.676,3.676,0,0,1,2.541-3.566v-8.581h1.874v8.581A3.678,3.678,0,0,1,349.163,179.455Z" transform="translate(-320.121 -167.308)" fill="#b51f24"/>
        <path id="Path_8" data-name="Path 8" d="M451.476,229.474c.869,1.14-.8,1.532-.8,1.532s-3.142,1.191-3.142,1.468c0,0,4.078-1.825,4.981-1.005a2.212,2.212,0,0,1,.555,1.674.4.4,0,0,1-.707.283c-.263-.3-.545-.562-.684-.5-.187.089-.31.838-.375,1.393a.407.407,0,0,1-.568.343c-.814-.371-5.682-.176-8.113-.169C442.107,234.5,450.683,228.433,451.476,229.474Z" transform="translate(-401.339 -217.506)" fill="#038c3e"/>
        <path id="Path_9" data-name="Path 9" d="M380.668,221.738c-1.5,1.817-5.951,4.487-5.951,4.487h-12.9a21.022,21.022,0,0,1,3.119-2.767c.031.033.059.067.09.1a8.8,8.8,0,0,1,1.473,1.955,8.048,8.048,0,0,0-.487-2.809c.456-.306.947-.607,1.469-.9.719.649,1.712,1.645,1.76,2.277a7.843,7.843,0,0,0-.566-2.9c.511-.251,1.049-.49,1.61-.707a4.7,4.7,0,0,1,1.167,2.763c.4-.657.177-2.064-.228-3.106.518-.176,1.049-.331,1.6-.465a11.835,11.835,0,0,1,1.465,3.018c.452-.8,0-2.2-.452-3.236.381-.071.77-.134,1.167-.184.75,1.134,1.489,2.6,1.489,2.6.6-.331.114-1.72-.318-2.7a17.981,17.981,0,0,1,2.227.012,4.442,4.442,0,0,1,1.666.419C380.813,219.963,381.571,220.645,380.668,221.738Z" transform="translate(-335.981 -209.235)" fill="#bb845e"/>
        <path id="Path_10" data-name="Path 10" d="M382.3,188.175s6.017-3.277,9.059-3.206a4.481,4.481,0,0,0-1.07-3.527s.1-1.995.769-2.422-.635-.784-.635-.784-2.006-.962-1.972-.428.067,1.033-.167,1.282-.936,1.247-.936,1.247a2.691,2.691,0,0,0-2.775,1.674C383.706,183.971,382.3,188.175,382.3,188.175Z" transform="translate(-352.557 -175.673)" fill="#6ea4d8"/>
      </g>
      <path id="Path_11" data-name="Path 11" d="M465.6,281.838H452.338a.477.477,0,0,1,0-.955H465.6a.477.477,0,0,1,0,.955Z" transform="translate(-182.303 -91.887)" fill="#038c3e"/>
      <path id="Path_12" data-name="Path 12" d="M454.98,309.561h-8.642a.477.477,0,1,1,0-.955h8.642a.477.477,0,0,1,0,.955Z" transform="translate(-177.448 -114.317)" fill="#038c3e"/>
      <path id="Path_13" data-name="Path 13" d="M454.133,335.264H440.871a.477.477,0,0,1,0-.955h13.261a.477.477,0,1,1,0,.955Z" transform="translate(-173.025 -135.112)" fill="#038c3e"/>
      <path id="Path_14" data-name="Path 14" d="M441.941,360.966h-6.7a.477.477,0,1,1,0-.955h6.7a.477.477,0,0,1,0,.955Z" transform="translate(-168.472 -155.906)" fill="#038c3e"/>
      <path id="Path_15" data-name="Path 15" d="M440.312,391.859H427.083a.477.477,0,0,1,0-.955h13.229a.477.477,0,1,1,0,.955Z" transform="translate(-161.87 -180.899)" fill="#038c3e"/>
    </g>
    <g id="Layer_4-2" data-name="Layer 4" transform="translate(863.426 -130.805)">
      <g id="Group_2" data-name="Group 2" transform="translate(313.049 452)">
        <path id="Path_16" data-name="Path 16" d="M393.117,455.408H363.7V452h29.419Zm-5.884,12.5q0-6.815-6.212-6.815-4.6,0-7.69,5a17.642,17.642,0,0,0-2.737,9.429v8.265l-4.488-2.442V459.981h4.707v3.379l2.436-1.9a10.887,10.887,0,0,1,6.815-2.527,9.995,9.995,0,0,1,8.073,3.919,13.533,13.533,0,0,1,3.01,8.832q0,6.448-5.254,12.383l-5.282-3.436q2.463-2.528,4.187-4.658A12.446,12.446,0,0,0,387.233,467.9Z" transform="translate(-363.698 -452)" fill="#038c3e"/>
        <path id="Path_17" data-name="Path 17" d="M438.76,455.408H432.6v7.819a13.48,13.48,0,0,0,2.19,2.53,9.5,9.5,0,0,1,1.67,6.027,10.329,10.329,0,0,1-5.556,9.638,11.469,11.469,0,0,1-5.719,1.478q-4.489,0-9.25-4.118-4.981-4.317-4.98-9.372a8.916,8.916,0,0,1,1.614-4.828,13.668,13.668,0,0,1,3.5-3.721,9.941,9.941,0,0,1,5.938-1.76,23.148,23.148,0,0,1,5.664,1.05q.165,0,.164-.229v-4.515H409.068V452H438.76ZM432.438,468q0-4.011-3.393-5.376a5.927,5.927,0,0,0-2.162-.512q-3.395,0-7.307,3.158a11.591,11.591,0,0,0-4.57,9.416q0,2.675,2.956,4.381a5.4,5.4,0,0,0,2.709.768q3.393,0,7.444-3.413Q432.439,472.779,432.438,468Z" transform="translate(-380.579 -452)" fill="#038c3e"/>
        <path id="Path_18" data-name="Path 18" d="M498.554,452l-.055,3.408h-2.517v17.485q0,3.838-3.612,6.965a10.824,10.824,0,0,1-7.2,2.985q-3.668,0-7.8-3.322a11.976,11.976,0,0,1-8.511,3.322,9.232,9.232,0,0,1-5.036-1.647,13.545,13.545,0,0,1-3.913-3.777,9.492,9.492,0,0,1-1.724-5.453,15.269,15.269,0,0,1,2.025-7.526,16.529,16.529,0,0,1,5.173-5.737q1.806,2.074,4.132,4.544-2.217,1.988-4.461,4.2a9.56,9.56,0,0,0-3.092,6.958q0,5.993,4.132,5.993a8.692,8.692,0,0,0,5.829-2.13,10.929,10.929,0,0,0,3.393-5.425,24.578,24.578,0,0,0,.876-3.778l5.254,2.783a11.063,11.063,0,0,1-1.424,4.458,7.606,7.606,0,0,1-.821,1.307q.793,1.278,3.612,1.278a8.411,8.411,0,0,0,7.335-3.469,5.736,5.736,0,0,0,1.121-3.356V455.408H454.959V452Z" transform="translate(-397.655 -452)" fill="#038c3e"/>
      </g>
      <g id="Group_3" data-name="Group 3" transform="translate(227.574 452)">
        <path id="Path_19" data-name="Path 19" d="M227.574,452.05H245.4l1.975,3.155v.239h-6.616a20.7,20.7,0,0,1,.488,2.462,17.911,17.911,0,0,1,.155,2.343,14.61,14.61,0,0,1-1.106,5.7,14.194,14.194,0,0,1-3.605,4.935q1.19,1.339,2.356,2.581t2.367,2.463q1.2,1.219,2.439,2.461t2.57,2.558l-1.285,1.339q-.333-.335-.963-.98l-1.428-1.459q-.8-.812-1.714-1.757L239.2,476.2q-.916-.944-1.761-1.828t-1.511-1.6a37.171,37.171,0,0,1-3.629-4.481,5.961,5.961,0,0,1-1.178-3.071,1.808,1.808,0,0,1,.714-1.554,3.749,3.749,0,0,1,2.213-.526,8.445,8.445,0,0,1,1.369.119,16.355,16.355,0,0,1,1.677.382,5.82,5.82,0,0,0,1.035-2.067,9.144,9.144,0,0,0,.321-2.45,12.357,12.357,0,0,0-.143-1.865,9.012,9.012,0,0,0-.476-1.817h-8.281l-1.975-3.155Z" transform="translate(-227.574 -452.019)" fill="#d32237"/>
        <path id="Path_20" data-name="Path 20" d="M254.557,452.05h12.588l1.975,3.155v.239h-5.235v27.2H263l-2.856-3.322V455.444h-3.617l-1.975-3.155Z" transform="translate(-237.614 -452.019)" fill="#d32237"/>
        <path id="Path_21" data-name="Path 21" d="M298.379,455.444h-8.924q.452.43,1,1.04a8.249,8.249,0,0,1,1.012,1.422,9.035,9.035,0,0,1,.774,1.817,7.535,7.535,0,0,1,.309,2.223,9.82,9.82,0,0,1-.607,3.37,13.136,13.136,0,0,1-1.63,3.12,13.421,13.421,0,0,1-2.392,2.582,11.216,11.216,0,0,1-2.867,1.756l6.687,8.462-1.809,1.243-6.9-9.083q-.333.048-.666.083a6.241,6.241,0,0,1-.666.036,5.492,5.492,0,0,1-2.023-.347,4.57,4.57,0,0,1-1.487-.921,3.878,3.878,0,0,1-.916-1.29,3.587,3.587,0,0,1-.31-1.434,2.429,2.429,0,0,1,.512-1.614,1.647,1.647,0,0,1,1.321-.609,3.533,3.533,0,0,1,1.952.74,16.39,16.39,0,0,1,2.38,2.1,8.62,8.62,0,0,0,2.808-1.613,9.058,9.058,0,0,0,2.308-2.952,17.265,17.265,0,0,1-3.772-.92,12.146,12.146,0,0,1-3.094-1.65,7.9,7.9,0,0,1-2.082-2.271,5.348,5.348,0,0,1-.761-2.785,5.187,5.187,0,0,1,.166-1.326,4.959,4.959,0,0,1,.476-1.184h-4l-1.975-3.155v-.239h32.125L307.3,455.2v.239h-5.235v27.2h-.928l-2.76-3.2Zm-9.019,5.33a10.845,10.845,0,0,0-.2-2.068,5.858,5.858,0,0,0-.678-1.852,4.056,4.056,0,0,0-1.238-1.327,3.332,3.332,0,0,0-1.9-.514,3.445,3.445,0,0,0-1.535.311,3.03,3.03,0,0,0-1.035.813,3.321,3.321,0,0,0-.595,1.123,4.155,4.155,0,0,0-.19,1.219,4.045,4.045,0,0,0,.524,2,5.889,5.889,0,0,0,1.439,1.7,7.891,7.891,0,0,0,2.178,1.243,10.883,10.883,0,0,0,2.736.657,11.548,11.548,0,0,0,.369-1.577A10.891,10.891,0,0,0,289.361,460.774Z" transform="translate(-244.552 -452.019)" fill="#d32237"/>
        <path id="Path_22" data-name="Path 22" d="M322.961,452h25.772l1.975,3.161v.24h-5.235v27.257h-.928l-2.808-3.185V467.113H334.1q-.976,0-1.249.335a1.321,1.321,0,0,0-.274.863q0,.646.048,1.305t.047,1.257a2.386,2.386,0,0,1-.285,1.27,1.062,1.062,0,0,1-.976.455,1.76,1.76,0,0,1-.94-.36,6.289,6.289,0,0,1-1.083-.946,13.671,13.671,0,0,1-1.083-1.329,12.921,12.921,0,0,1-.951-1.533,9.883,9.883,0,0,1-.666-1.557,4.508,4.508,0,0,1-.25-1.389,1.5,1.5,0,0,1,.238-.886,1.59,1.59,0,0,1,.666-.527,3.569,3.569,0,0,1,1.011-.263,10.486,10.486,0,0,1,1.273-.072h12.112V455.4h-16.8l-1.975-3.161Z" transform="translate(-263.066 -452)" fill="#d32237"/>
      </g>
    </g>
  </g>
</svg>
