<svg xmlns="http://www.w3.org/2000/svg" width="89" height="72" viewBox="0 0 89 72">
  <g id="Layer_4" data-name="Layer 4" transform="translate(-200.238 -154.631)">
    <rect id="Rectangle_7908" data-name="Rectangle 7908" width="89" height="72" transform="translate(200.238 154.631)" fill="#f2f2f2"/>
    <g id="Group_1" data-name="Group 1" transform="translate(226.531 167.308)">
      <path id="Path_1" data-name="Path 1" d="M264.685,275.822H238.942a10.485,10.485,0,0,0,7.827,6.673l14.322,2.59-.79,4.952-1.822-.331a3.943,3.943,0,0,0,.117-1.534,3.465,3.465,0,0,0-6.92.3l-5.46-.988a3.507,3.507,0,0,0-3.3-2.545,3.4,3.4,0,0,0-2.757,1.448l-2.4-.435L231.907,270.8h29.349l1.681-5.521H230.61l-1.873-5.023h40.685Z" transform="translate(-228.316 -242.506)" fill="#d32237"/>
      <ellipse id="Ellipse_1" data-name="Ellipse 1" cx="2.658" cy="2.832" rx="2.658" ry="2.832" transform="translate(11.989 42.918)" fill="#d32237"/>
      <ellipse id="Ellipse_2" data-name="Ellipse 2" cx="2.658" cy="2.832" rx="2.658" ry="2.832" transform="translate(24.258 42.918)" fill="#d32237"/>
      <path id="Path_2" data-name="Path 2" d="M314.848,223.613l-1.3,2.708h-4.458c.793-3.173,2.255-7.622,4.085-7.015C315.987,220.231,314.848,223.613,314.848,223.613Z" transform="translate(-293.328 -209.332)" fill="#f5811f"/>
      <path id="Path_3" data-name="Path 3" d="M332.935,200.408v-3.681a3.648,3.648,0,0,1,.769,1.84l1.036-1.84s1.137-.712.869.641l-.8,1.71s1.137-.781,1.772-.6l-2.407,2.243S333.1,201.417,332.935,200.408Z" transform="translate(-312.617 -190.958)" fill="#038c3e"/>
      <path id="Path_4" data-name="Path 4" d="M273.359,187.074s-.468,2.9,1.337,4.014A3.552,3.552,0,0,0,273.359,187.074Z" transform="translate(-264.373 -183.3)" fill="#038c3e"/>
      <path id="Path_5" data-name="Path 5" d="M232.775,223.423h-5.884l-.067-.214a3.225,3.225,0,0,1,.267-1.808c.436-.812-.3-2.892-.534-3.57s1.069-3.42,2.706-1.482a6.7,6.7,0,0,0,3.539,2.185c.153.033.24.046.24.046C232.744,218.794,232.775,223.423,232.775,223.423Z" transform="translate(-226.531 -206.433)" fill="#038c3e"/>
      <path id="Path_6" data-name="Path 6" d="M265.844,222.091a5.557,5.557,0,0,1-.471,2.252h-8.979a5.607,5.607,0,0,1,.188-4.889,4.917,4.917,0,0,1,4.3-2.649A5.134,5.134,0,0,1,265.844,222.091Z" transform="translate(-250.31 -207.353)" fill="#ed1c24"/>
      <path id="Path_7" data-name="Path 7" d="M349.163,179.455V184.3h-6.952v-4.843a3.676,3.676,0,0,1,2.541-3.566v-8.581h1.874v8.581A3.678,3.678,0,0,1,349.163,179.455Z" transform="translate(-320.121 -167.308)" fill="#b51f24"/>
      <path id="Path_8" data-name="Path 8" d="M451.476,229.474c.869,1.14-.8,1.532-.8,1.532s-3.142,1.191-3.142,1.468c0,0,4.078-1.825,4.981-1.005a2.212,2.212,0,0,1,.555,1.674.4.4,0,0,1-.707.283c-.263-.3-.545-.562-.684-.5-.187.089-.31.838-.375,1.393a.407.407,0,0,1-.568.343c-.814-.371-5.682-.176-8.113-.169C442.107,234.5,450.683,228.433,451.476,229.474Z" transform="translate(-401.339 -217.506)" fill="#038c3e"/>
      <path id="Path_9" data-name="Path 9" d="M380.668,221.738c-1.5,1.817-5.951,4.487-5.951,4.487h-12.9a21.022,21.022,0,0,1,3.119-2.767c.031.033.059.067.09.1a8.8,8.8,0,0,1,1.473,1.955,8.048,8.048,0,0,0-.487-2.809c.456-.306.947-.607,1.469-.9.719.649,1.712,1.645,1.76,2.277a7.843,7.843,0,0,0-.566-2.9c.511-.251,1.049-.49,1.61-.707a4.7,4.7,0,0,1,1.167,2.763c.4-.657.177-2.064-.228-3.106.518-.176,1.049-.331,1.6-.465a11.835,11.835,0,0,1,1.465,3.018c.452-.8,0-2.2-.452-3.236.381-.071.77-.134,1.167-.184.75,1.134,1.489,2.6,1.489,2.6.6-.331.114-1.72-.318-2.7a17.981,17.981,0,0,1,2.227.012,4.442,4.442,0,0,1,1.666.419C380.813,219.963,381.571,220.645,380.668,221.738Z" transform="translate(-335.981 -209.235)" fill="#bb845e"/>
      <path id="Path_10" data-name="Path 10" d="M382.3,188.175s6.017-3.277,9.059-3.206a4.481,4.481,0,0,0-1.07-3.527s.1-1.995.769-2.422-.635-.784-.635-.784-2.006-.962-1.972-.428.067,1.033-.167,1.282-.936,1.247-.936,1.247a2.691,2.691,0,0,0-2.775,1.674C383.706,183.971,382.3,188.175,382.3,188.175Z" transform="translate(-352.557 -175.673)" fill="#6ea4d8"/>
    </g>
    <path id="Path_11" data-name="Path 11" d="M465.6,281.838H452.338a.477.477,0,0,1,0-.955H465.6a.477.477,0,0,1,0,.955Z" transform="translate(-182.303 -91.887)" fill="#038c3e"/>
    <path id="Path_12" data-name="Path 12" d="M454.98,309.561h-8.642a.477.477,0,1,1,0-.955h8.642a.477.477,0,0,1,0,.955Z" transform="translate(-177.448 -114.317)" fill="#038c3e"/>
    <path id="Path_13" data-name="Path 13" d="M454.133,335.264H440.871a.477.477,0,0,1,0-.955h13.261a.477.477,0,1,1,0,.955Z" transform="translate(-173.025 -135.112)" fill="#038c3e"/>
    <path id="Path_14" data-name="Path 14" d="M441.941,360.966h-6.7a.477.477,0,1,1,0-.955h6.7a.477.477,0,0,1,0,.955Z" transform="translate(-168.472 -155.906)" fill="#038c3e"/>
    <path id="Path_15" data-name="Path 15" d="M440.312,391.859H427.083a.477.477,0,0,1,0-.955h13.229a.477.477,0,1,1,0,.955Z" transform="translate(-161.87 -180.899)" fill="#038c3e"/>
  </g>
</svg>
