<svg xmlns="http://www.w3.org/2000/svg" width="1499.001" height="363.097" viewBox="0 0 1499.001 363.097">
  <g id="blueLayer" transform="translate(0.001)">
    <path id="Subtraction_7" data-name="Subtraction 7" d="M-11053.328,363h-1498.356c29.871-8.935,60.3-17.455,90.437-25.324,30.378-7.928,61.218-15.393,91.663-22.186,30.691-6.846,61.826-13.207,92.538-18.9,30.95-5.741,62.365-10.981,93.373-15.574,31.206-4.622,62.893-8.726,94.18-12.2,31.441-3.487,63.386-6.439,94.945-8.773,31.727-2.343,63.917-4.125,95.676-5.3,31.872-1.179,64.3-1.777,96.372-1.777s64.5.6,96.375,1.777c31.762,1.171,63.952,2.952,95.677,5.3,31.556,2.334,63.5,5.285,94.944,8.773,31.284,3.472,62.971,7.575,94.18,12.2,31.01,4.593,62.425,9.833,93.373,15.574,30.8,5.714,61.935,12.075,92.539,18.9,30.469,6.8,61.309,14.264,91.662,22.186,30.127,7.866,60.548,16.386,90.416,25.322h.007Z" transform="translate(12552 0)" fill="#fff"/>
    <path id="Subtraction_6" data-name="Subtraction 6" d="M-70,433.1h0c-29.988-8.977-60.521-17.53-90.751-25.421-30.33-7.917-61.17-15.381-91.662-22.186-30.62-6.833-61.754-13.193-92.536-18.9-30.91-5.735-62.326-10.975-93.376-15.575-31.169-4.618-62.855-8.722-94.177-12.2-31.44-3.488-63.384-6.439-94.945-8.772-31.695-2.341-63.885-4.124-95.677-5.3-31.937-1.178-64.362-1.776-96.373-1.776s-64.437.6-96.373,1.776c-31.793,1.174-63.984,2.957-95.677,5.3-31.569,2.333-63.513,5.285-94.945,8.772-31.3,3.473-62.99,7.577-94.178,12.2-31.053,4.6-62.469,9.841-93.375,15.575-30.791,5.713-61.925,12.074-92.537,18.905-30.495,6.8-61.334,14.269-91.662,22.186-30.211,7.886-60.745,16.438-90.752,25.419V70H-70V433.1h0ZM-791.221,180.243a7.509,7.509,0,0,0-4.06,1.144,7.7,7.7,0,0,0-2.828,3.2,10.511,10.511,0,0,0-1.007,4.665v.483a8.543,8.543,0,0,0,2.312,6.244,8.136,8.136,0,0,0,6.035,2.345,8.785,8.785,0,0,0,3.923-.862,7.077,7.077,0,0,0,2.8-2.425l-2.111-2.014a5.326,5.326,0,0,1-4.383,2.175,4.349,4.349,0,0,1-3.182-1.257,5.257,5.257,0,0,1-1.442-3.415h11.392v-1.58a9.648,9.648,0,0,0-1.942-6.429A6.87,6.87,0,0,0-791.221,180.243Zm-17.708,0a7.509,7.509,0,0,0-4.06,1.144,7.7,7.7,0,0,0-2.829,3.2,10.51,10.51,0,0,0-1.007,4.665v.483a8.543,8.543,0,0,0,2.313,6.244,8.133,8.133,0,0,0,6.034,2.345,8.787,8.787,0,0,0,3.923-.862,7.073,7.073,0,0,0,2.8-2.425l-2.11-2.014a5.326,5.326,0,0,1-4.383,2.175,4.348,4.348,0,0,1-3.182-1.257,5.256,5.256,0,0,1-1.442-3.415h11.392v-1.58a9.648,9.648,0,0,0-1.942-6.429A6.871,6.871,0,0,0-808.93,180.243Zm-28.94,7.106a10.078,10.078,0,0,0-5.921,1.49,4.97,4.97,0,0,0-2.071,4.278,4.816,4.816,0,0,0,1.66,3.706,6.182,6.182,0,0,0,4.287,1.5,6.119,6.119,0,0,0,4.576-1.949,6.081,6.081,0,0,0,.451,1.627h4v-.274a8.947,8.947,0,0,1-.661-3.755v-7.863a5.514,5.514,0,0,0-1.869-4.326,7.348,7.348,0,0,0-4.882-1.539,9.123,9.123,0,0,0-3.65.709,6.357,6.357,0,0,0-2.587,1.957,4.365,4.365,0,0,0-.95,2.683h3.915a2.082,2.082,0,0,1,.854-1.7,3.468,3.468,0,0,1,2.191-.669,3.014,3.014,0,0,1,2.3.814,3.07,3.07,0,0,1,.758,2.168v1.144Zm-19.706-13.133a9.452,9.452,0,0,0-5.083,1.37,8.9,8.9,0,0,0-3.376,3.9,13.787,13.787,0,0,0-1.176,5.849v2.191A13.7,13.7,0,0,0-866,193.215a8.76,8.76,0,0,0,3.295,3.778,9.183,9.183,0,0,0,4.938,1.33,9.494,9.494,0,0,0,6.43-2.1,8.507,8.507,0,0,0,2.771-5.857h-4.06a5.658,5.658,0,0,1-1.531,3.593,5.293,5.293,0,0,1-3.61,1.08,4.537,4.537,0,0,1-3.988-2,10.356,10.356,0,0,1-1.362-5.806v-2.081a9.753,9.753,0,0,1,1.459-5.7,4.778,4.778,0,0,1,4.084-1.943,4.892,4.892,0,0,1,3.472,1.12,5.817,5.817,0,0,1,1.475,3.649h4.06a8.824,8.824,0,0,0-2.755-5.954A9.109,9.109,0,0,0-857.576,174.217Zm76.829,6.349V198h3.915V186.076a3.607,3.607,0,0,1,3.626-2.062,9.687,9.687,0,0,1,1.595.129l.016-3.674a3.69,3.69,0,0,0-1.386-.226,4.429,4.429,0,0,0-3.931,2.273l-.1-1.95Zm-46.713,0V198h3.916V186.076a3.6,3.6,0,0,1,3.625-2.062,9.67,9.67,0,0,1,1.595.129l.016-3.674a3.68,3.68,0,0,0-1.385-.226,4.429,4.429,0,0,0-3.932,2.273l-.1-1.95Zm-11.731,14.615a2.915,2.915,0,0,1-2.006-.669,2.3,2.3,0,0,1-.749-1.8,2.465,2.465,0,0,1,1.1-2.144,5.8,5.8,0,0,1,3.271-.757h2.111V193.1a3.787,3.787,0,0,1-1.539,1.515A4.471,4.471,0,0,1-839.191,195.18Zm51.546-7.525h-7.46a5.861,5.861,0,0,1,1.265-3.142,3.31,3.31,0,0,1,2.6-1.129,3.285,3.285,0,0,1,2.546,1.007,4.783,4.783,0,0,1,1.047,2.974v.289Zm-17.708,0h-7.461a5.87,5.87,0,0,1,1.265-3.142,3.311,3.311,0,0,1,2.6-1.129,3.285,3.285,0,0,1,2.546,1.007,4.786,4.786,0,0,1,1.048,2.974v.289Z" transform="translate(1568.999 -70)" fill="#171b4e" opacity="0.68"/>
  </g>
</svg>
