<svg xmlns="http://www.w3.org/2000/svg" xmlns:xlink="http://www.w3.org/1999/xlink" width="1508.752" height="1104.775" viewBox="0 0 1508.752 1104.775">
  <defs>
    <linearGradient id="linear-gradient" x1="0.5" y1="0.219" x2="0.243" y2="0.5" gradientUnits="objectBoundingBox">
      <stop offset="0"/>
      <stop offset="1" stop-color="#171b4e"/>
    </linearGradient>
  </defs>
  <path id="brainWindow" d="M1267.889-3314.226a242.119,242.119,0,0,1-55.277-6.4,242.089,242.089,0,0,1-52.723-19.06,375.273,375.273,0,0,1-62.675-39.632,375.1,375.1,0,0,1-53.633-51.209,434.155,434.155,0,0,1-54.847-75.014,32.162,32.162,0,0,0-1.931-2.971c-2.719-3.708-5.423-5.588-8.037-5.588-2.737,0-5.424,2.062-7.985,6.129a13.6,13.6,0,0,1-3.312,3.956,210.181,210.181,0,0,1-33.855,21.622,210.224,210.224,0,0,1-37.353,14.773,121.207,121.207,0,0,1-36.147,5.51,121.145,121.145,0,0,1-39.024-6.444,24.971,24.971,0,0,0-9.923-2.053,25.163,25.163,0,0,0-13.145,3.71,25.037,25.037,0,0,0-9.421,10.359,87.317,87.317,0,0,1-12.455,15.614,87.426,87.426,0,0,1-15.681,12.373,255.9,255.9,0,0,1-36.739,21.578,256.075,256.075,0,0,1-39.81,15.17,301.592,301.592,0,0,1-75.569,10.582c-3.3.135-6.647.2-9.961.2a244.9,244.9,0,0,1-51.723-5.534,244.782,244.782,0,0,1-49.428-16.376,218.237,218.237,0,0,1-52.789-34.406,218.208,218.208,0,0,1-40.71-47.975,352.54,352.54,0,0,1-81.23,33.186,300.411,300.411,0,0,1-76.872,10.01,300.8,300.8,0,0,1-58.971-5.847,300.9,300.9,0,0,1-57.021-17.462,357.323,357.323,0,0,1-57.509-29.25,357.018,357.018,0,0,1-51.286-39.142,67.673,67.673,0,0,1-11.075-10.535,28.373,28.373,0,0,1-3.314-7.721,77.45,77.45,0,0,1-2.01-9.15c-.937-5.725-1.249-10.632-1.262-10.838-.02-.429-2.025-43.285-2.834-87.132-.481-26.113-.469-47.811.037-64.492.631-20.886,2.038-33.994,4.183-38.959V-4418h1499v548.1c1.87,3.949,3.129,18.293,3.74,42.632.49,19.473.569,45.349.235,76.909-.568,53.787-2.157,106.035-2.173,106.556l-.261.191c-.317.231-.86.627-1.265.92-5.337,3.866-11.7,8.213-18.9,12.919-8.538,5.58-18.22,11.635-28.777,18-17.5,10.544-32.02,18.67-32.63,19.011l-.012.006c-1.769.888-17.831,8.974-36.79,19.175-11.478,6.177-21.568,11.815-29.99,16.758a253.46,253.46,0,0,0-23.5,15.128,34.924,34.924,0,0,1-3.279,2.119,60.923,60.923,0,0,0-6.957,4.7,109.043,109.043,0,0,0-10.831,8.347,53.822,53.822,0,0,0-10.213,11.573,56.3,56.3,0,0,0-8.334,27.749,92.1,92.1,0,0,0,25.428,72.8A117.91,117.91,0,0,0,1339.889-3399a118.329,118.329,0,0,0,23.686,10.5,183.923,183.923,0,0,0,32.739,8.4,31.058,31.058,0,0,1,12.315,4.452,9.83,9.83,0,0,1,4.641,5.864,9.839,9.839,0,0,1-.788,7.438,23.96,23.96,0,0,1-4.465,6.483,23.968,23.968,0,0,1-6.315,4.693,340.591,340.591,0,0,1-43.471,20.08l-22.245,6.878-4.949,1.588A241.845,241.845,0,0,1,1267.889-3314.226Zm-19.932-602.094c1.43,0,3.543.556,5.487,3.207l0,.005,0,0a13.332,13.332,0,0,1,.776,1.191,118.069,118.069,0,0,0,14.926,20.417l.04.044.039.043a101.5,101.5,0,0,0,14.52,13.864,101.636,101.636,0,0,0,16.964,10.729,64.154,64.154,0,0,0,13.961,5.046,64.108,64.108,0,0,0,14.641,1.7,64.059,64.059,0,0,0,16.638-2.2l1.3-.418.02-.007.02-.005,6.139-1.9a92,92,0,0,0,11.607-5.371l.051-.028.051-.025a2.825,2.825,0,0,0,.61-.427,4.8,4.8,0,0,0-.84-.193l-.047-.007-.047-.007a55.912,55.912,0,0,1-9.857-2.525,37.4,37.4,0,0,1-13.964-8.149l-.082-.075-.076-.08a29.925,29.925,0,0,1-8.271-23.52,19.927,19.927,0,0,1,10.279-16.635,28.327,28.327,0,0,0,2.453-1.636,148.721,148.721,0,0,0,17.13-15.274l.034-.035.036-.035a112.512,112.512,0,0,0,13.705-16.451,112.564,112.564,0,0,0,10.334-18.755l.008-.019.008-.019a58.982,58.982,0,0,0,3.938-12.386,59.017,59.017,0,0,0,1.131-12.8,59.077,59.077,0,0,0-1.668-12.739A58.956,58.956,0,0,0,1385.5-4024l-.12-.244-.086-.256a9.458,9.458,0,0,0-1.9-3.28,39.808,39.808,0,0,0-26.2-9.836c-.474,0-.953.009-1.424.027a44.058,44.058,0,0,0-13.181,2.773,44.09,44.09,0,0,0-11.756,6.639l-.071.058-.074.053a27.732,27.732,0,0,0-8.081,9.105,27.721,27.721,0,0,0-3.366,11.682,27.9,27.9,0,0,0,1.106,9.233,27.951,27.951,0,0,0,4.081,8.379l.048.063.042.067a15.707,15.707,0,0,1,2.536,9.327,8,8,0,0,1-1.659,4.919,7.99,7.99,0,0,1-4.325,2.872,13.672,13.672,0,0,1-4.105.631,13.706,13.706,0,0,1-12.686-8.462,69.172,69.172,0,0,1-5.3-18.52,48.84,48.84,0,0,1,2.087-24.162,34.634,34.634,0,0,1,13.84-18.044l.045-.029.044-.029a6.658,6.658,0,0,0,2.05-1.979l.072-.107.078-.1a2.29,2.29,0,0,0,.189-2.491c-.417-.675-.862-1.394-1.321-2.113l-.025-.039-.024-.04a81.705,81.705,0,0,0-32.49-30.348,62.641,62.641,0,0,0-13.724-5.008,62.613,62.613,0,0,0-14.429-1.686,62.635,62.635,0,0,0-15.16,1.865l-.014,0-.013,0a100.958,100.958,0,0,0-18.3,6.357l-.115.053-.119.045a29.65,29.65,0,0,0-8.9,5.373l-.022.02-.023.019a9.046,9.046,0,0,0-3.156,7.607c.034.344.083.716.135,1.1a20.41,20.41,0,0,1,.243,2.789,61.832,61.832,0,0,1-11.674,37.064l0,.005,0,.007a93.1,93.1,0,0,1-42.425,32.532c-8.309,3.438-16.9,6.506-25.216,9.473l-.007,0-.074.026-.88.314q-1.636.584-3.272,1.17l-.061.021-.061.02a75.043,75.043,0,0,0-19.13,9.339,49.581,49.581,0,0,0-7.959,6.738,49.528,49.528,0,0,0-6.311,8.159,49.578,49.578,0,0,0-4.486,9.289,49.646,49.646,0,0,0-2.476,10.122,64.247,64.247,0,0,0,.788,21.277l.033.164.02.167a17.168,17.168,0,0,0,1.649,5.55,57.305,57.305,0,0,0,11,13.772,57.322,57.322,0,0,0,14.748,9.831,64.955,64.955,0,0,0,13.086,4.335,64.916,64.916,0,0,0,13.707,1.467c.865,0,1.755-.018,2.644-.054l.058,0h.057a80.8,80.8,0,0,0,20.234-2.829,67.789,67.789,0,0,0,20.315-9.757l.1-.07.1-.065a20.646,20.646,0,0,0,6.535-6.446,11.067,11.067,0,0,1,4.068-4.379,11.081,11.081,0,0,1,5.769-1.606,11,11,0,0,1,4.208.834,30.091,30.091,0,0,0,9.565,1.558,30.137,30.137,0,0,0,8.982-1.369l.04-.012.042-.012a54.814,54.814,0,0,0,18.6-9.484l.034-.064.061-.1C1244.2-3915.7,1246.42-3916.32,1247.956-3916.32Zm-226.107-30.705a80.842,80.842,0,0,0-24.371,3.755,84.948,84.948,0,0,0-9.461,3.926,82.718,82.718,0,0,0-13.628,8.753,82.809,82.809,0,0,0-11.679,11.274l-.034.039-.034.04a16.37,16.37,0,0,0-3.44,6.1l-.028.091-.031.089a4.616,4.616,0,0,0,.409,3.94,15.158,15.158,0,0,0,2.314,2.167l.152.114.141.13a96.471,96.471,0,0,0,13.856,10.575,96.348,96.348,0,0,0,15.537,7.9l.031.013.031.014a80.715,80.715,0,0,0,15.287,4.681,80.682,80.682,0,0,0,15.809,1.568,80.5,80.5,0,0,0,20.6-2.681,94.966,94.966,0,0,0,26.98-12.014.852.852,0,0,0,.375-.868l-.035-.189-.017-.192a15.041,15.041,0,0,0-.719-3.018l-.006-.02a29.645,29.645,0,0,1-.792-2.946,131.344,131.344,0,0,1-2.86-20.53l0-.052v-.051a40.335,40.335,0,0,1,.661-8.712,2.38,2.38,0,0,0-.19-1.681,6.122,6.122,0,0,0-2.767-2.166l-.007,0a102.547,102.547,0,0,0-30.056-9.147l-.014,0h-.014A81.147,81.147,0,0,0,1021.85-3947.025Zm2.133-174.047a55.386,55.386,0,0,0-16.175,2.413,55.381,55.381,0,0,0-14.825,7.068,91.793,91.793,0,0,0-13.2,11.043,91.893,91.893,0,0,0-10.91,13.324l-.051.076-.055.073a87.466,87.466,0,0,0-16.942,58.832l.007.084,0,.083a15.494,15.494,0,0,1-4.442,11.39,42.089,42.089,0,0,0-3.13,4.057,60.829,60.829,0,0,0-9.368,28.9v.022a101.859,101.859,0,0,0,.5,18.818,101.926,101.926,0,0,0,3.968,18.4l.659,2.1c1.632,5.051,3.539,10.08,5.668,14.95.123-.139.246-.292.364-.454l.024-.035.027-.034a73.3,73.3,0,0,1,8.807-9.723,97.459,97.459,0,0,1,62.129-26.779h.031c1.683-.075,3.4-.113,5.1-.113a113.932,113.932,0,0,1,40.233,7.313c1.18.424,2.344.9,3.371,1.314l.007,0,.015.006c1.368.556,2.661,1.08,3.974,1.51l.194.064.186.083a1.233,1.233,0,0,0,.5.1,1.235,1.235,0,0,0,.51-.11,1.236,1.236,0,0,0,.667-.758l.074-.243.105-.231a22.706,22.706,0,0,1,1.41-2.639,95.37,95.37,0,0,1,21.5-24.479,85.873,85.873,0,0,1,45.361-19.4l.048-.006.049,0a30.955,30.955,0,0,0,13.423-4.468,90.093,90.093,0,0,0,15.044-12.072,90.151,90.151,0,0,0,12.139-15.026l.023-.034.023-.035a53.856,53.856,0,0,0,5.457-10.382,53.947,53.947,0,0,0,3.076-11.294,42.983,42.983,0,0,0-.114-13.221,43.033,43.033,0,0,0-4.128-12.583l-.063-.122-.054-.127a28.451,28.451,0,0,0-4.906-7.754,31.924,31.924,0,0,0-9.559-6.546,42,42,0,0,0-8.239-2.626,42.015,42.015,0,0,0-8.546-.88,41.843,41.843,0,0,0-12.792,2l-.1.031-.1.025a72.775,72.775,0,0,0-13.865,5.239,72.741,72.741,0,0,0-12.4,7.859,12.167,12.167,0,0,1-8.18,3.151c-.26,0-.524-.009-.784-.026a12.275,12.275,0,0,1-8.458-4.21c-.444-.434-.917-.892-1.388-1.3l-.016-.013-.016-.013a155.307,155.307,0,0,0-34.025-22.7l-.021-.011-.02-.01a94.507,94.507,0,0,0-29.2-9.2l-.026,0-.024,0A55.432,55.432,0,0,0,1023.983-4121.072Zm340.006,65.932a37.03,37.03,0,0,1,19.32,5.439,8.973,8.973,0,0,0,.069-1.528l0-.068v-.068a144.569,144.569,0,0,0-6.392-41.369l0-.008a140.745,140.745,0,0,0-8.538-21.444,106.647,106.647,0,0,0-11.974-18.837,106.659,106.659,0,0,0-15.454-15.776,106.643,106.643,0,0,0-18.376-12.25,106.535,106.535,0,0,0-20.734-8.262l-.221-.064-.213-.085a20.222,20.222,0,0,0-3.122-.994,43.5,43.5,0,0,1-.375,28.027l0,.006,0,.008a48.932,48.932,0,0,1-17.95,23.51l-.08.055-.081.051a8.439,8.439,0,0,1-1.794.861,28.249,28.249,0,0,0-8.168,4.848l-.069.059-.072.055a9.577,9.577,0,0,0-3.689,6.96l-.01.155-.023.156a1.829,1.829,0,0,0,.408,1.428,1.816,1.816,0,0,0,1.329.646l.14,0,.138.015c.278.028.555.042.824.042.245,0,.5-.012.755-.036a13.419,13.419,0,0,1,1.826-.125,13.481,13.481,0,0,1,1.926.138l.062.01.061.01a71.787,71.787,0,0,1,30.8,13.5,90.228,90.228,0,0,1,25.809,30.61,31,31,0,0,1,3.341,8.252l.045.182.028.186a.082.082,0,0,0,.039.056.08.08,0,0,0,.038.009.074.074,0,0,0,.035-.008l.273-.131.288-.089a93.869,93.869,0,0,1,27.585-4.141c.472,0,.975,0,1.5.012C1363.564-4055.138,1363.784-4055.14,1363.989-4055.14Zm-211.6-66.255a55.265,55.265,0,0,1,31.487,9.8,80.812,80.812,0,0,1,19.965,19.572l.03.042.029.043a4.3,4.3,0,0,0,1.279,1.228,5.157,5.157,0,0,0,2.169.482,5.115,5.115,0,0,0,2.7-.773l.144-.089.151-.078c.976-.5,1.931-1.013,2.942-1.558l.013-.007.145-.078c2-1.078,4.065-2.193,6.25-3.162a63.756,63.756,0,0,1,19.613-6.059l.088-.013v-.028c.006-.263-.017-.61-.042-.977v-.015a14.787,14.787,0,0,1-.031-2.288,29.89,29.89,0,0,1,22.821-26.9l.049-.012.048-.01a32.158,32.158,0,0,0,6.4-2.107,20.984,20.984,0,0,0,7.763-6.512,20.981,20.981,0,0,0,3.8-9.446,27.812,27.812,0,0,0-.609-10.62l-.024-.09-.018-.091a43.582,43.582,0,0,0-5.478-13.951,72.065,72.065,0,0,0-27.778-24.276l-.022-.011-.02-.011a79.012,79.012,0,0,0-13.525-5.372,78.985,78.985,0,0,0-14.266-2.782c-3.358-.3-6.772-.455-10.147-.455a113.387,113.387,0,0,0-35.319,5.631l-.034.011-.035.01a179.394,179.394,0,0,0-24.119,9.378l-.059.028-.059.027a43.672,43.672,0,0,0-7.368,4.1,15.481,15.481,0,0,1-9.62,3.366,15.453,15.453,0,0,1-7.678-2.048.714.714,0,0,0-.174-.022h-.014l-.178,0-.176-.014c-2.45-.167-4.951-.252-7.433-.252a109.025,109.025,0,0,0-33.052,5.125l-1.681.535-.064-.037a94.755,94.755,0,0,0-26.8,13.988,94.757,94.757,0,0,0-22.026,23.136c-1.137,1.691-2.075,3.1-2.947,4.586l-.1.167.226.086a9.017,9.017,0,0,0,2.416.549h.02l.021,0a124.763,124.763,0,0,1,23.994,4.7,118.186,118.186,0,0,1,48.17,26.623l.011.011.012.011a9.76,9.76,0,0,0,2.784,1.818l.113.049.11.055a3.378,3.378,0,0,0,1.545.369,3.434,3.434,0,0,0,2.12-.734l.024-.02.024-.019a72.086,72.086,0,0,1,30.578-13.553A55.607,55.607,0,0,1,1152.388-4121.4Z" transform="translate(0.502 4418.5)" stroke="#fff" stroke-width="1" fill="url(#linear-gradient)"/>
</svg>
