<svg xmlns="http://www.w3.org/2000/svg" xmlns:xlink="http://www.w3.org/1999/xlink" width="93.639" height="71.678" viewBox="0 0 93.639 71.678">
  <defs>
    <linearGradient id="linear-gradient" x1="0.105" y1="-0.035" x2="0.407" y2="1.253" gradientUnits="objectBoundingBox">
      <stop offset="0" stop-color="#f48302"/>
      <stop offset="1" stop-color="#e75627"/>
    </linearGradient>
  </defs>
  <path id="Path_3" data-name="Path 3" d="M2044.518,4414.42a21.2,21.2,0,0,1-6.591-5.149,24.121,24.121,0,0,1-3.1-4.246,1.567,1.567,0,0,0-.112-.171c-.317-.435-.629-.427-.907.031a.856.856,0,0,1-.186.224,11.953,11.953,0,0,1-4.037,2.059,6.912,6.912,0,0,1-4.266-.047,1.421,1.421,0,0,0-1.839.675,5.058,5.058,0,0,1-1.592,1.592,14.719,14.719,0,0,1-4.344,2.081,16.954,16.954,0,0,1-4.283.6,13.98,13.98,0,0,1-6.3-1.228,12.4,12.4,0,0,1-5.549-5.109,4.126,4.126,0,0,1-.427-1.4,13.818,13.818,0,0,1-.163-4.551,10.743,10.743,0,0,1,4.62-7.469,16.091,16.091,0,0,1,4.052-1.98c1.979-.706,3.978-1.406,5.909-2.2a17.943,17.943,0,0,0,8.184-6.275,11.675,11.675,0,0,0,2.206-6.987,6.506,6.506,0,0,0-.08-.715,2.661,2.661,0,0,1,.918-2.22,6.742,6.742,0,0,1,2.043-1.228,20.688,20.688,0,0,1,3.826-1.328,13.408,13.408,0,0,1,9.287,1.033,17.277,17.277,0,0,1,6.865,6.414c.093.147.186.3.277.451a1.254,1.254,0,0,1-.09,1.4,2.124,2.124,0,0,1-.663.637,6.14,6.14,0,0,0-2.467,3.223,8.994,8.994,0,0,0-.383,4.479,13.475,13.475,0,0,0,1.011,3.534,1.97,1.97,0,0,0,2.421,1.125.828.828,0,0,0,.62-.815,2.331,2.331,0,0,0-.379-1.42,6.481,6.481,0,0,1-1.193-4.053,6.353,6.353,0,0,1,2.636-4.8,9.7,9.7,0,0,1,5.491-2.074,8.875,8.875,0,0,1,6.167,2.214,2.847,2.847,0,0,1,.574.969,12.707,12.707,0,0,1,.234,10.786,23.522,23.522,0,0,1-5.019,7.345,31.53,31.53,0,0,1-3.545,3.161c-.187.14-.383.263-.577.388a3.175,3.175,0,0,0-1.671,2.693,5.251,5.251,0,0,0,1.446,4.132,6.714,6.714,0,0,0,2.514,1.467,10.286,10.286,0,0,0,1.864.473,1.852,1.852,0,0,1,.691.257.559.559,0,0,1,.228.753,1.361,1.361,0,0,1-.616.629,18,18,0,0,1-2.46,1.142l-.035.009v.022l-1.231.4,0,0-.262.087-.01-.033h-.006a13.617,13.617,0,0,1-3.566.474A13.778,13.778,0,0,1,2044.518,4414.42Zm-62.2-4.263a20.277,20.277,0,0,1-6.163-3.875,4.1,4.1,0,0,1-.628-.6,1.717,1.717,0,0,1-.187-1.545,3.989,3.989,0,0,1,.862-1.53,17.135,17.135,0,0,1,5.348-4.231,15.894,15.894,0,0,1,2.013-.839,17.109,17.109,0,0,1,7.7-.606,21.6,21.6,0,0,1,6.288,1.91c.945.459,1.14,1.063,1.039,1.647a7.05,7.05,0,0,0-.122,1.583,25.6,25.6,0,0,0,.556,4.014,13.292,13.292,0,0,1,.327,1.3.966.966,0,0,1-.434.994,19.873,19.873,0,0,1-5.662,2.524,16.985,16.985,0,0,1-10.931-.753Zm-9.176-8.1a.53.53,0,0,1-.376-.381,32.5,32.5,0,0,1-1.425-3.781,21.157,21.157,0,0,1-.935-7.788,12.989,12.989,0,0,1,2.014-6.211c.225-.326.464-.637.713-.932a2.278,2.278,0,0,0,.684-1.708,18.428,18.428,0,0,1,3.562-12.393,19.368,19.368,0,0,1,5.08-5.125,11.953,11.953,0,0,1,8.544-1.9,19.777,19.777,0,0,1,6.129,1.926,32.321,32.321,0,0,1,7.03,4.689c.117.109.23.218.34.326a1.664,1.664,0,0,0,2.4.155,15.277,15.277,0,0,1,5.608-2.8,9.218,9.218,0,0,1,6.521.334,7.205,7.205,0,0,1,2.19,1.5,6.6,6.6,0,0,1,1.141,1.8,9.457,9.457,0,0,1,.931,5.684,11.551,11.551,0,0,1-1.848,4.691,18.849,18.849,0,0,1-5.722,5.707,6.913,6.913,0,0,1-3.059,1.016,16.462,16.462,0,0,0-8.713,3.736,18.415,18.415,0,0,0-4.164,4.729c-.082.14-.161.287-.231.435a1.027,1.027,0,0,1-.567.652,1.092,1.092,0,0,1-.867.008c-.508-.171-1-.4-1.51-.583a22.326,22.326,0,0,0-8.813-1.406,18.863,18.863,0,0,0-12.012,5.179,14.5,14.5,0,0,0-1.678,1.856,1.743,1.743,0,0,1-.457.45.526.526,0,0,1-.51.14ZM2061.4,4377.7a1.3,1.3,0,0,1-.279-.125,6.666,6.666,0,0,0-3.641-.994,18.161,18.161,0,0,0-5.62.8.849.849,0,0,1-.738-.016.8.8,0,0,1-.427-.6,5.559,5.559,0,0,0-.6-1.468,17.368,17.368,0,0,0-4.977-5.909,13.655,13.655,0,0,0-5.854-2.569,2.177,2.177,0,0,0-.552,0,2.646,2.646,0,0,1-.5,0,1.174,1.174,0,0,1-1.117-1.336,2.718,2.718,0,0,1,1.058-1.988,6.571,6.571,0,0,1,1.89-1.118.988.988,0,0,0,.206-.094,9.165,9.165,0,0,0,3.32-4.356,7.893,7.893,0,0,0,.063-5.132,2.19,2.19,0,0,1-.093-.442c-.047-.466.172-.684.645-.653a4.784,4.784,0,0,1,1.148.312,22.241,22.241,0,0,1,13.908,11.522,30.087,30.087,0,0,1,3.091,13,3.025,3.025,0,0,1-.07.715.616.616,0,0,1-.31.451.661.661,0,0,1-.288.067A.631.631,0,0,1,2061.4,4377.7Zm-36.141-8.379a1.656,1.656,0,0,1-.548-.5,15.318,15.318,0,0,0-3.819-3.75,10.383,10.383,0,0,0-7.908-1.631,13.66,13.66,0,0,0-5.828,2.578,1.481,1.481,0,0,1-1.6.163,2.69,2.69,0,0,1-.789-.52,23,23,0,0,0-9.381-5.179,24.134,24.134,0,0,0-4.683-.916,2.723,2.723,0,0,1-.7-.163.756.756,0,0,1-.552-.49.764.764,0,0,1,.118-.722c.193-.326.4-.653.62-.963a19.9,19.9,0,0,1,10.6-7.905l.006.009a22.779,22.779,0,0,1,8.457-1.018.9.9,0,0,1,.4.085,2.3,2.3,0,0,0,2.648-.185,9.646,9.646,0,0,1,1.648-.917,35.705,35.705,0,0,1,4.967-1.932,23.641,23.641,0,0,1,9.48-1.08,16.623,16.623,0,0,1,5.885,1.724,15.358,15.358,0,0,1,5.918,5.179,9.741,9.741,0,0,1,1.215,3.083,6.319,6.319,0,0,1,.134,2.446,5,5,0,0,1-2.784,3.836,7.4,7.4,0,0,1-1.462.481,5.233,5.233,0,0,0-3.983,4.7c-.015.2.023.411.023.621a.754.754,0,0,1-.191.535.8.8,0,0,1-.523.249,12,12,0,0,0-3.717,1.149c-.64.28-1.236.637-1.858.955a1.876,1.876,0,0,1-.977.278A1.807,1.807,0,0,1,2025.258,4369.322Z" transform="translate(-1970.357 -4344.187)" fill="url(#linear-gradient)"/>
</svg>
